<?xml version="1.0" standalone="no"?>
<!DOCTYPE svg PUBLIC "-//W3C//DTD SVG 20010904//EN"
 "http://www.w3.org/TR/2001/REC-SVG-20010904/DTD/svg10.dtd">
<svg version="1.0" xmlns="http://www.w3.org/2000/svg"
 width="894.000000pt" height="894.000000pt" viewBox="0 0 894.000000 894.000000"
 preserveAspectRatio="xMidYMid meet">
<metadata>
Created by potrace 1.11, written by Peter Selinger 2001-2013
</metadata>
<g transform="translate(0.000000,894.000000) scale(0.100000,-0.100000)"
fill="#000000" stroke="none">
<path d="M4318 8340 c-2 -6 -757 -10 -2156 -11 l-2152 -1 19 -32 c10 -17 59
-101 108 -186 49 -85 124 -213 165 -285 42 -71 152 -263 246 -425 93 -162 192
-331 219 -375 28 -44 63 -105 78 -135 72 -142 1174 -2043 1220 -2105 30 -38
68 -104 86 -145 19 -41 147 -271 285 -510 356 -617 409 -709 769 -1335 342
-594 493 -855 610 -1050 40 -66 91 -156 113 -200 73 -143 537 -939 547 -938 9
1 403 684 477 828 22 44 68 122 101 175 33 52 174 293 315 535 140 242 262
451 272 465 24 37 99 169 165 295 32 61 91 162 131 225 111 176 1707 2947
1771 3073 30 61 83 152 116 201 68 102 379 637 477 821 35 66 86 156 113 200
28 44 157 265 288 490 l237 410 -166 3 c-92 1 -450 -1 -797 -5 -346 -5 -871
-5 -1165 -2 -294 4 -910 7 -1368 8 -458 0 -837 3 -842 6 -5 3 -12 1 -15 -5
-11 -17 -245 -11 -245 6 0 16 -17 19 -22 4z m-1958 -83 c30 -3 60 -1 67 5 7 5
16 7 21 4 9 -6 1056 -18 1308 -16 83 1 134 -2 138 -9 5 -7 13 -7 27 2 16 10
22 9 30 -3 8 -11 12 -12 16 -2 3 9 38 12 123 12 86 0 119 -3 123 -12 3 -10 7
-10 18 -2 8 7 36 10 71 7 46 -4 58 -9 63 -27 l8 -21 4 21 c4 21 10 22 216 29
117 4 832 5 1591 3 758 -2 1404 -1 1435 4 61 9 1201 20 1201 12 0 -3 -9 -13
-19 -22 -29 -26 -393 -651 -386 -663 4 -5 2 -15 -3 -22 -5 -7 -36 -59 -67
-117 -32 -58 -97 -170 -145 -250 -48 -80 -115 -199 -150 -265 -124 -237 -309
-538 -340 -555 -9 -5 -25 -25 -35 -44 -13 -23 -22 -31 -27 -23 -4 6 -10 8 -14
4 -4 -4 -3 -12 3 -18 12 -12 -3 -76 -24 -97 -7 -7 -13 -20 -13 -29 0 -8 -49
-97 -109 -196 -115 -194 -202 -344 -240 -417 -13 -25 -35 -59 -48 -77 -13 -18
-33 -54 -44 -80 -11 -26 -28 -56 -36 -66 -19 -20 -34 -45 -65 -107 -13 -25
-32 -58 -44 -75 -12 -16 -35 -55 -51 -85 -53 -95 -144 -255 -153 -265 -4 -5
-120 -206 -257 -445 -349 -608 -386 -670 -400 -670 -15 0 -36 -37 -28 -50 6
-10 -207 -390 -265 -473 -19 -26 -40 -47 -48 -47 -8 0 -12 -6 -9 -14 5 -14
-87 -193 -194 -374 -27 -46 -49 -85 -49 -87 0 -2 -16 -27 -35 -56 -19 -30 -35
-60 -35 -67 0 -18 -66 -138 -102 -183 -15 -20 -28 -44 -28 -52 0 -8 -7 -20
-16 -28 -9 -7 -23 -27 -32 -45 -9 -18 -55 -97 -101 -176 -47 -79 -94 -161
-106 -183 -22 -43 -23 -44 -113 -187 -34 -53 -62 -103 -62 -111 0 -8 -11 -26
-25 -41 -14 -15 -25 -36 -25 -47 0 -11 -15 -44 -34 -72 -76 -116 -366 -630
-366 -649 0 -35 -27 -3 -66 80 -20 42 -62 121 -94 176 -31 56 -77 135 -100
176 -24 41 -81 137 -127 213 -46 75 -83 141 -83 146 0 5 5 11 11 13 5 2 7 11
3 21 -5 13 -10 15 -19 7 -16 -13 -11 -21 -103 160 -41 80 -118 213 -172 295
-53 83 -132 215 -175 295 -43 80 -91 164 -107 188 -16 23 -27 46 -23 51 3 5 1
13 -5 16 -16 10 -60 82 -60 99 0 7 -9 16 -19 19 -11 3 -22 17 -26 35 -3 17
-16 46 -29 64 -12 18 -37 59 -55 90 -18 32 -52 84 -76 115 -23 32 -92 153
-153 268 -60 116 -130 244 -156 286 -25 42 -46 83 -46 91 0 9 -10 28 -21 42
-12 15 -42 64 -67 109 -24 45 -58 106 -74 136 -17 30 -36 61 -44 68 -8 8 -14
21 -14 29 0 8 -5 14 -10 14 -6 0 -15 12 -21 28 -11 30 -64 124 -204 367 -89
154 -120 213 -145 282 -7 19 -17 30 -25 27 -12 -5 -27 24 -29 56 -1 8 -9 15
-18 15 -19 0 -70 75 -143 210 -27 50 -66 119 -88 154 -21 35 -55 98 -76 140
-47 95 -120 231 -136 251 -7 8 -15 27 -19 43 -3 15 -11 27 -16 27 -6 0 -10 6
-10 14 0 7 -10 20 -21 28 -12 7 -23 25 -24 38 -4 44 -5 45 -16 30 -9 -12 -11
-13 -16 -1 -22 55 -167 327 -200 376 -22 33 -57 94 -78 135 -33 66 -299 524
-361 622 -13 21 -24 49 -24 63 0 14 -11 34 -25 47 -14 12 -24 27 -21 34 2 6
-5 24 -16 40 -16 24 -18 25 -13 7 4 -14 2 -23 -4 -23 -6 0 -11 4 -11 9 0 5
-30 57 -66 117 -37 60 -81 141 -98 179 -17 39 -46 95 -64 126 -17 31 -32 61
-32 67 0 18 -41 82 -53 82 -6 0 -8 3 -4 6 9 10 -20 61 -39 68 -9 3 -14 12 -10
21 3 8 0 15 -7 15 -15 0 -83 117 -79 136 2 8 -9 34 -24 59 -26 45 -45 64 -23
24 9 -17 8 -20 -3 -17 -7 2 -22 22 -33 44 -11 21 -45 87 -77 145 -32 58 -58
108 -58 111 0 7 919 15 1315 11 121 -2 315 1 430 5 219 9 382 8 475 -1z"/>
<path d="M7745 8220 c-3 -5 3 -10 14 -10 12 0 21 5 21 10 0 6 -6 10 -14 10 -8
0 -18 -4 -21 -10z"/>
<path d="M7810 8220 c0 -5 23 -10 50 -10 28 0 50 5 50 10 0 6 -22 10 -50 10
-27 0 -50 -4 -50 -10z"/>
<path d="M7940 8220 c0 -5 7 -10 15 -10 8 0 15 5 15 10 0 6 -7 10 -15 10 -8 0
-15 -4 -15 -10z"/>
<path d="M8005 8220 c3 -5 8 -10 11 -10 2 0 4 5 4 10 0 6 -5 10 -11 10 -5 0
-7 -4 -4 -10z"/>
<path d="M8082 8219 c2 -6 8 -10 13 -10 5 0 11 4 13 10 2 6 -4 11 -13 11 -9 0
-15 -5 -13 -11z"/>
<path d="M8180 8220 c0 -5 5 -10 10 -10 6 0 10 5 10 10 0 6 -4 10 -10 10 -5 0
-10 -4 -10 -10z"/>
<path d="M8300 8220 c0 -5 5 -10 10 -10 6 0 10 5 10 10 0 6 -4 10 -10 10 -5 0
-10 -4 -10 -10z"/>
<path d="M8365 8220 c-4 -6 7 -10 24 -10 17 0 31 5 31 10 0 6 -11 10 -24 10
-14 0 -28 -4 -31 -10z"/>
<path d="M185 8210 c3 -5 8 -10 11 -10 2 0 4 5 4 10 0 6 -5 10 -11 10 -5 0 -7
-4 -4 -10z"/>
<path d="M5575 8210 c-3 -5 1 -10 9 -10 9 0 16 5 16 10 0 6 -4 10 -9 10 -6 0
-13 -4 -16 -10z"/>
<path d="M3100 8200 c0 -5 18 -10 40 -10 22 0 40 5 40 10 0 6 -18 10 -40 10
-22 0 -40 -4 -40 -10z"/>
<path d="M4000 8194 c0 -9 5 -14 12 -12 18 6 21 28 4 28 -9 0 -16 -7 -16 -16z"/>
<path d="M4280 8200 c0 -5 5 -10 10 -10 6 0 10 5 10 10 0 6 -4 10 -10 10 -5 0
-10 -4 -10 -10z"/>
<path d="M6302 8198 c5 -15 48 -18 48 -3 0 6 -11 11 -26 13 -18 3 -25 0 -22
-10z"/>
<path d="M4090 8180 c0 -11 5 -20 10 -20 6 0 10 9 10 20 0 11 -4 20 -10 20 -5
0 -10 -9 -10 -20z"/>
<path d="M6420 8190 c0 -5 7 -10 15 -10 8 0 15 5 15 10 0 6 -7 10 -15 10 -8 0
-15 -4 -15 -10z"/>
<path d="M8165 8190 c-3 -5 -1 -10 4 -10 6 0 11 5 11 10 0 6 -2 10 -4 10 -3 0
-8 -4 -11 -10z"/>
<path d="M228 8185 c-10 -10 13 -55 29 -55 7 0 13 4 13 9 0 15 -35 53 -42 46z"/>
<path d="M4145 8179 c-10 -15 3 -25 16 -12 7 7 7 13 1 17 -6 3 -14 1 -17 -5z"/>
<path d="M5920 8176 c0 -8 5 -18 10 -21 6 -3 10 3 10 14 0 12 -4 21 -10 21 -5
0 -10 -6 -10 -14z"/>
<path d="M6610 8180 c0 -5 7 -10 15 -10 8 0 15 5 15 10 0 6 -7 10 -15 10 -8 0
-15 -4 -15 -10z"/>
<path d="M6790 8179 c0 -5 5 -7 10 -4 6 3 10 8 10 11 0 2 -4 4 -10 4 -5 0 -10
-5 -10 -11z"/>
<path d="M7972 8178 c5 -15 57 -18 61 -3 1 6 -13 11 -32 13 -24 3 -32 0 -29
-10z"/>
<path d="M8075 8179 c-10 -15 3 -25 16 -12 7 7 7 13 1 17 -6 3 -14 1 -17 -5z"/>
<path d="M3730 8161 c0 -12 5 -21 10 -21 6 0 10 6 10 14 0 8 -4 18 -10 21 -5
3 -10 -3 -10 -14z"/>
<path d="M5480 8170 c0 -5 5 -10 10 -10 6 0 10 5 10 10 0 6 -4 10 -10 10 -5 0
-10 -4 -10 -10z"/>
<path d="M7805 8170 c-3 -5 1 -10 9 -10 9 0 16 5 16 10 0 6 -4 10 -9 10 -6 0
-13 -4 -16 -10z"/>
<path d="M7876 8171 c-4 -5 -2 -12 3 -15 5 -4 12 -2 15 3 4 5 2 12 -3 15 -5 4
-12 2 -15 -3z"/>
<path d="M3170 8160 c0 -5 5 -10 10 -10 6 0 10 5 10 10 0 6 -4 10 -10 10 -5 0
-10 -4 -10 -10z"/>
<path d="M3250 8160 c0 -5 11 -10 25 -10 14 0 25 5 25 10 0 6 -11 10 -25 10
-14 0 -25 -4 -25 -10z"/>
<path d="M4324 8156 c-6 -17 2 -36 17 -36 12 0 12 37 -1 45 -6 3 -13 -1 -16
-9z"/>
<path d="M4410 8155 c0 -8 5 -15 10 -15 6 0 10 7 10 15 0 8 -4 15 -10 15 -5 0
-10 -7 -10 -15z"/>
<path d="M8335 8161 c-6 -11 9 -23 19 -14 9 9 7 23 -3 23 -6 0 -12 -4 -16 -9z"/>
<path d="M290 8146 c0 -15 18 -31 26 -23 7 7 -7 37 -17 37 -5 0 -9 -6 -9 -14z"/>
<path d="M3886 8153 c-11 -11 -6 -23 9 -23 8 0 15 4 15 9 0 13 -16 22 -24 14z"/>
<path d="M4200 8125 c0 -14 5 -25 10 -25 6 0 10 11 10 25 0 14 -4 25 -10 25
-5 0 -10 -11 -10 -25z"/>
<path d="M6345 8140 c-8 -12 20 -24 35 -15 6 3 8 11 5 16 -8 12 -32 12 -40 -1z"/>
<path d="M8170 8140 c0 -5 5 -10 10 -10 6 0 10 5 10 10 0 6 -4 10 -10 10 -5 0
-10 -4 -10 -10z"/>
<path d="M350 8130 c0 -5 5 -10 10 -10 6 0 10 5 10 10 0 6 -4 10 -10 10 -5 0
-10 -4 -10 -10z"/>
<path d="M3794 8125 c-8 -20 3 -48 16 -40 13 8 13 55 0 55 -6 0 -13 -7 -16
-15z"/>
<path d="M4380 8115 c0 -14 5 -25 10 -25 6 0 10 11 10 25 0 14 -4 25 -10 25
-5 0 -10 -11 -10 -25z"/>
<path d="M7853 8128 c2 -7 10 -13 17 -13 7 0 15 6 18 13 2 7 -5 12 -18 12 -13
0 -20 -5 -17 -12z"/>
<path d="M7930 8129 c0 -5 5 -7 10 -4 6 3 10 8 10 11 0 2 -4 4 -10 4 -5 0 -10
-5 -10 -11z"/>
<path d="M8230 8130 c0 -5 5 -10 10 -10 6 0 10 5 10 10 0 6 -4 10 -10 10 -5 0
-10 -4 -10 -10z"/>
<path d="M5776 8122 c-3 -6 -1 -14 5 -17 15 -10 25 3 12 16 -7 7 -13 7 -17 1z"/>
<path d="M7970 8120 c0 -5 4 -10 9 -10 6 0 13 5 16 10 3 6 -1 10 -9 10 -9 0
-16 -4 -16 -10z"/>
<path d="M8010 8120 c0 -5 7 -10 15 -10 8 0 15 5 15 10 0 6 -7 10 -15 10 -8 0
-15 -4 -15 -10z"/>
<path d="M8105 8120 c-3 -5 -1 -10 4 -10 6 0 11 5 11 10 0 6 -2 10 -4 10 -3 0
-8 -4 -11 -10z"/>
<path d="M397 8114 c-8 -8 1 -24 14 -24 5 0 9 7 9 15 0 15 -12 20 -23 9z"/>
<path d="M3650 8101 c0 -11 5 -23 10 -26 6 -4 10 5 10 19 0 14 -4 26 -10 26
-5 0 -10 -9 -10 -19z"/>
<path d="M4287 8113 c-11 -10 -8 -43 3 -43 15 0 24 30 13 41 -5 5 -12 6 -16 2z"/>
<path d="M4540 8110 c0 -5 5 -10 10 -10 6 0 10 5 10 10 0 6 -4 10 -10 10 -5 0
-10 -4 -10 -10z"/>
<path d="M6022 8109 c2 -7 10 -15 17 -17 8 -3 12 1 9 9 -2 7 -10 15 -17 17 -8
3 -12 -1 -9 -9z"/>
<path d="M272 8084 c1 -9 9 -19 16 -22 9 -3 13 2 10 14 -1 9 -9 19 -16 22 -9
3 -13 -2 -10 -14z"/>
<path d="M350 8090 c0 -5 7 -10 15 -10 8 0 15 5 15 10 0 6 -7 10 -15 10 -8 0
-15 -4 -15 -10z"/>
<path d="M4020 8090 c0 -5 7 -10 16 -10 8 0 12 5 9 10 -3 6 -10 10 -16 10 -5
0 -9 -4 -9 -10z"/>
<path d="M5860 8090 c0 -5 5 -10 10 -10 6 0 10 5 10 10 0 6 -4 10 -10 10 -5 0
-10 -4 -10 -10z"/>
<path d="M5940 8090 c0 -5 5 -10 10 -10 6 0 10 5 10 10 0 6 -4 10 -10 10 -5 0
-10 -4 -10 -10z"/>
<path d="M7915 8090 c-3 -5 -1 -10 4 -10 6 0 11 5 11 10 0 6 -2 10 -4 10 -3 0
-8 -4 -11 -10z"/>
<path d="M4610 8075 c0 -8 5 -15 10 -15 6 0 10 7 10 15 0 8 -4 15 -10 15 -5 0
-10 -7 -10 -15z"/>
<path d="M4810 8074 c0 -8 5 -12 10 -9 6 3 10 10 10 16 0 5 -4 9 -10 9 -5 0
-10 -7 -10 -16z"/>
<path d="M4930 8080 c0 -5 5 -10 10 -10 6 0 10 5 10 10 0 6 -4 10 -10 10 -5 0
-10 -4 -10 -10z"/>
<path d="M8030 8080 c0 -5 7 -10 15 -10 8 0 15 5 15 10 0 6 -7 10 -15 10 -8 0
-15 -4 -15 -10z"/>
<path d="M3375 8070 c3 -5 8 -10 11 -10 2 0 4 5 4 10 0 6 -5 10 -11 10 -5 0
-7 -4 -4 -10z"/>
<path d="M3850 8070 c0 -5 5 -10 10 -10 6 0 10 5 10 10 0 6 -4 10 -10 10 -5 0
-10 -4 -10 -10z"/>
<path d="M4130 8060 c0 -11 5 -20 10 -20 6 0 10 9 10 20 0 11 -4 20 -10 20 -5
0 -10 -9 -10 -20z"/>
<path d="M7970 8070 c0 -5 5 -10 10 -10 6 0 10 5 10 10 0 6 -4 10 -10 10 -5 0
-10 -4 -10 -10z"/>
<path d="M8130 8070 c0 -5 5 -10 10 -10 6 0 10 5 10 10 0 6 -4 10 -10 10 -5 0
-10 -4 -10 -10z"/>
<path d="M330 8060 c0 -5 5 -10 10 -10 6 0 10 5 10 10 0 6 -4 10 -10 10 -5 0
-10 -4 -10 -10z"/>
<path d="M370 8055 c0 -8 5 -15 10 -15 6 0 10 7 10 15 0 8 -4 15 -10 15 -5 0
-10 -7 -10 -15z"/>
<path d="M3900 8054 c0 -9 5 -14 12 -12 18 6 21 28 4 28 -9 0 -16 -7 -16 -16z"/>
<path d="M6450 8060 c0 -5 5 -10 10 -10 6 0 10 5 10 10 0 6 -4 10 -10 10 -5 0
-10 -4 -10 -10z"/>
<path d="M4345 8049 c-10 -15 3 -25 16 -12 7 7 7 13 1 17 -6 3 -14 1 -17 -5z"/>
<path d="M7930 8050 c0 -5 5 -10 10 -10 6 0 10 5 10 10 0 6 -4 10 -10 10 -5 0
-10 -4 -10 -10z"/>
<path d="M1085 8040 c-3 -5 0 -13 8 -16 23 -8 92 0 92 11 0 14 -92 19 -100 5z"/>
<path d="M4560 8035 c0 -8 5 -15 10 -15 6 0 10 7 10 15 0 8 -4 15 -10 15 -5 0
-10 -7 -10 -15z"/>
<path d="M410 8030 c0 -5 5 -10 10 -10 6 0 10 5 10 10 0 6 -4 10 -10 10 -5 0
-10 -4 -10 -10z"/>
<path d="M462 8029 c2 -7 10 -15 17 -17 8 -3 12 1 9 9 -2 7 -10 15 -17 17 -8
3 -12 -1 -9 -9z"/>
<path d="M720 8030 c0 -5 5 -10 10 -10 6 0 10 5 10 10 0 6 -4 10 -10 10 -5 0
-10 -4 -10 -10z"/>
<path d="M1310 8030 c0 -5 5 -10 10 -10 6 0 10 5 10 10 0 6 -4 10 -10 10 -5 0
-10 -4 -10 -10z"/>
<path d="M1610 8030 c0 -5 5 -10 10 -10 6 0 10 5 10 10 0 6 -4 10 -10 10 -5 0
-10 -4 -10 -10z"/>
<path d="M3800 8029 c0 -5 5 -7 10 -4 6 3 10 8 10 11 0 2 -4 4 -10 4 -5 0 -10
-5 -10 -11z"/>
<path d="M4212 8029 c2 -6 8 -10 13 -10 5 0 11 4 13 10 2 6 -4 11 -13 11 -9 0
-15 -5 -13 -11z"/>
<path d="M345 8020 c3 -5 8 -10 11 -10 2 0 4 5 4 10 0 6 -5 10 -11 10 -5 0 -7
-4 -4 -10z"/>
<path d="M3984 8016 c-5 -14 -180 -16 -1702 -16 -932 0 -1698 -2 -1701 -5 -3
-3 4 -20 14 -38 208 -351 732 -1273 725 -1275 -17 -6 -11 -22 8 -22 22 -1
2348 -4030 2332 -4040 -18 -11 21 -80 43 -77 25 3 97 -111 78 -122 -9 -6 -10
-11 -2 -15 6 -4 15 -5 20 -2 5 3 27 -30 50 -74 23 -43 73 -134 111 -201 47
-80 68 -128 65 -140 -5 -14 0 -22 17 -28 16 -7 80 -110 223 -360 110 -192 204
-349 209 -348 9 3 112 177 195 332 30 55 85 150 123 212 37 61 68 116 68 121
0 5 30 58 68 118 87 140 150 250 195 341 20 40 63 112 95 160 59 89 185 306
230 398 70 143 199 371 307 545 67 107 161 263 208 345 47 83 106 186 131 230
25 44 67 120 93 168 27 49 77 136 112 195 35 59 93 159 129 222 35 63 97 169
137 235 40 66 87 149 105 185 18 36 51 94 74 130 59 91 74 115 100 163 108
196 464 815 591 1027 35 58 102 177 150 265 48 88 101 180 120 205 32 44 272
456 483 830 57 102 107 190 111 195 5 6 22 35 39 66 l32 56 -1967 2 c-1541 1
-1969 4 -1976 14 -7 9 -10 9 -14 0 -3 -8 -24 -13 -53 -13 -30 0 -50 5 -53 13
-4 10 -7 10 -18 0 -16 -16 -199 -18 -199 -3 0 6 -5 10 -11 10 -5 0 -7 -4 -4
-10 4 -6 -10 -10 -35 -10 -23 0 -39 4 -35 9 3 5 1 12 -5 16 -6 3 -13 -1 -16
-9z m-929 -66 c3 -5 1 -10 -4 -10 -6 0 -11 5 -11 10 0 6 2 10 4 10 3 0 8 -4
11 -10z m4195 0 c0 -5 -4 -10 -10 -10 -5 0 -10 5 -10 10 0 6 5 10 10 10 6 0
10 -4 10 -10z m-3920 -20 c0 -5 -4 -10 -10 -10 -5 0 -10 5 -10 10 0 6 5 10 10
10 6 0 10 -4 10 -10z m1890 -24 c0 -11 -19 -15 -25 -6 -3 5 1 10 9 10 9 0 16
-2 16 -4z m-585 -16 c3 -5 -1 -10 -10 -10 -9 0 -13 5 -10 10 3 6 8 10 10 10 2
0 7 -4 10 -10z m2325 -10 c0 -5 -4 -10 -10 -10 -5 0 -10 5 -10 10 0 6 5 10 10
10 6 0 10 -4 10 -10z m-3720 -10 c0 -5 -4 -10 -10 -10 -5 0 -10 5 -10 10 0 6
5 10 10 10 6 0 10 -4 10 -10z m-1580 -10 c0 -5 -4 -10 -10 -10 -5 0 -10 5 -10
10 0 6 5 10 10 10 6 0 10 -4 10 -10z m275 0 c3 -5 1 -10 -4 -10 -6 0 -11 5
-11 10 0 6 2 10 4 10 3 0 8 -4 11 -10z m685 -10 c0 -5 -4 -10 -10 -10 -5 0
-10 5 -10 10 0 6 5 10 10 10 6 0 10 -4 10 -10z m398 -7 c-4 -22 -22 -20 -26 1
-2 10 3 16 13 16 10 0 15 -7 13 -17z m2612 1 c0 -8 -5 -12 -10 -9 -6 4 -8 11
-5 16 9 14 15 11 15 -7z m1450 6 c0 -5 -5 -10 -11 -10 -5 0 -7 5 -4 10 3 6 8
10 11 10 2 0 4 -4 4 -10z m-6145 -30 c-3 -5 -10 -10 -16 -10 -5 0 -9 5 -9 10
0 6 7 10 16 10 8 0 12 -4 9 -10z m513 -13 c2 -12 -3 -17 -17 -17 -12 0 -21 6
-21 13 0 31 32 34 38 4z m1392 13 c0 -5 -4 -10 -10 -10 -5 0 -10 5 -10 10 0 6
5 10 10 10 6 0 10 -4 10 -10z m4730 -10 c0 -5 -2 -10 -4 -10 -3 0 -8 5 -11 10
-3 6 -1 10 4 10 6 0 11 -4 11 -10z m-5182 -19 c21 -13 10 -46 -16 -49 -27 -4
-40 22 -22 43 14 17 20 18 38 6z m-638 -11 c0 -5 -2 -10 -4 -10 -3 0 -8 5 -11
10 -3 6 -1 10 4 10 6 0 11 -4 11 -10z m1498 -28 c4 -26 -22 -40 -43 -22 -11 9
-12 17 -4 32 13 25 43 19 47 -10z m4482 2 c0 -8 -5 -12 -10 -9 -6 4 -8 11 -5
16 9 14 15 11 15 -7z m-6644 -25 c10 -17 -13 -36 -27 -22 -12 12 -4 33 11 33
5 0 12 -5 16 -11z m1969 1 c3 -5 1 -10 -4 -10 -6 0 -11 5 -11 10 0 6 2 10 4
10 3 0 8 -4 11 -10z m-987 -33 c2 -10 -3 -17 -12 -17 -10 0 -16 9 -16 21 0 24
23 21 28 -4z m-218 3 c0 -5 -2 -10 -4 -10 -3 0 -8 5 -11 10 -3 6 -1 10 4 10 6
0 11 -4 11 -10z m-890 -10 c0 -5 -4 -10 -10 -10 -5 0 -10 5 -10 10 0 6 5 10
10 10 6 0 10 -4 10 -10z m4210 0 c0 -5 -2 -10 -4 -10 -3 0 -8 5 -11 10 -3 6
-1 10 4 10 6 0 11 -4 11 -10z m-3912 -21 c-2 -6 -8 -10 -13 -10 -5 0 -11 4
-13 10 -2 6 4 11 13 11 9 0 15 -5 13 -11z m1512 -2 c0 -8 -3 -17 -7 -20 -9 -9
-34 13 -27 24 8 14 34 11 34 -4z m5200 -1 c0 -3 -4 -8 -10 -11 -5 -3 -10 -1
-10 4 0 6 5 11 10 11 6 0 10 -2 10 -4z m-3450 -26 c0 -5 -2 -10 -4 -10 -3 0
-8 5 -11 10 -3 6 -1 10 4 10 6 0 11 -4 11 -10z m1290 0 c0 -5 -2 -10 -4 -10
-3 0 -8 5 -11 10 -3 6 -1 10 4 10 6 0 11 -4 11 -10z m1455 0 c3 -5 1 -10 -4
-10 -6 0 -11 5 -11 10 0 6 2 10 4 10 3 0 8 -4 11 -10z m-2980 -11 c11 -17 -1
-21 -15 -4 -8 9 -8 15 -2 15 6 0 14 -5 17 -11z m2423 -16 c-4 -22 -22 -20 -26
1 -2 10 3 16 13 16 10 0 15 -7 13 -17z m-3828 -3 c0 -5 -4 -10 -10 -10 -5 0
-10 5 -10 10 0 6 5 10 10 10 6 0 10 -4 10 -10z m4810 6 c0 -11 -19 -15 -25 -6
-3 5 1 10 9 10 9 0 16 -2 16 -4z m-4470 -36 c0 -5 -5 -10 -11 -10 -5 0 -7 5
-4 10 3 6 8 10 11 10 2 0 4 -4 4 -10z m3865 -15 c0 -22 -31 -33 -47 -17 -17
17 -1 44 24 40 15 -2 23 -10 23 -23z m-5995 5 c0 -5 -4 -10 -10 -10 -5 0 -10
5 -10 10 0 6 5 10 10 10 6 0 10 -4 10 -10z m830 0 c0 -5 -4 -10 -9 -10 -6 0
-13 5 -16 10 -3 6 1 10 9 10 9 0 16 -4 16 -10z m5628 -17 c-5 -26 -38 -29 -38
-4 0 15 6 21 21 21 14 0 19 -5 17 -17z m-4478 -3 c0 -5 -4 -10 -9 -10 -6 0
-13 5 -16 10 -3 6 1 10 9 10 9 0 16 -4 16 -10z m2105 -20 c0 -16 -6 -26 -18
-28 -19 -4 -32 20 -23 44 9 25 41 13 41 -16z m-2407 -47 c5 -17 -26 -29 -40
-15 -6 6 -7 15 -3 22 9 14 37 9 43 -7z m959 1 c3 -8 -1 -22 -9 -30 -12 -12
-17 -12 -33 -1 -23 17 -14 47 15 47 11 0 23 -7 27 -16z m-2047 -9 c0 -8 -9
-15 -20 -15 -11 0 -20 7 -20 15 0 8 9 15 20 15 11 0 20 -7 20 -15z m1745 -25
c0 -18 -6 -26 -23 -28 -13 -2 -25 3 -28 12 -10 26 4 48 28 44 17 -2 23 -10 23
-28z m-2001 3 c4 -9 0 -23 -9 -32 -13 -14 -17 -14 -31 1 -9 9 -14 24 -11 32 8
21 43 20 51 -1z m5891 7 c3 -5 -1 -10 -9 -10 -9 0 -16 5 -16 10 0 6 4 10 9 10
6 0 13 -4 16 -10z m420 -9 c3 -5 1 -12 -5 -16 -5 -3 -10 1 -10 9 0 18 6 21 15
7z m-5668 -27 c-9 -9 -28 6 -21 18 4 6 10 6 17 -1 6 -6 8 -13 4 -17z m2393 17
c0 -6 -4 -13 -10 -16 -5 -3 -10 1 -10 9 0 9 5 16 10 16 6 0 10 -4 10 -9z
m2250 -1 c0 -5 -4 -10 -10 -10 -5 0 -10 5 -10 10 0 6 5 10 10 10 6 0 10 -4 10
-10z m-230 -35 c0 -19 -13 -25 -29 -15 -19 11 -6 41 14 34 8 -3 15 -12 15 -19z
m-4895 -35 c0 -29 -32 -41 -41 -16 -9 24 4 48 23 44 12 -2 18 -12 18 -28z
m4255 5 c0 -7 -6 -16 -12 -18 -11 -5 104 -10 257 -12 39 0 40 -1 37 -34 -2
-22 0 -31 7 -26 6 3 11 21 11 38 0 19 3 27 8 20 11 -17 72 -29 72 -14 0 6 -7
11 -16 11 -10 0 -14 7 -12 23 2 14 10 22 23 22 15 0 20 -7 22 -30 3 -60 22
-92 38 -65 3 6 1 10 -5 10 -6 0 -10 10 -8 23 3 19 8 22 42 20 42 -3 72 -22 48
-30 -8 -3 -5 -11 10 -24 l23 -18 -40 -2 c-22 -2 -52 -2 -67 -1 -27 2 -28 0
-28 -42 l0 -43 -46 -7 c-26 -3 -84 -6 -130 -6 l-84 0 0 -44 c0 -28 -6 -48 -16
-57 -14 -12 -14 -14 0 -24 21 -16 28 -237 8 -257 -11 -11 -17 -9 -33 11 -16
19 -28 23 -72 23 -28 0 -61 -2 -71 -4 -18 -3 -19 5 -18 170 1 118 5 178 13
188 17 21 2 30 -18 12 -21 -18 -243 -26 -243 -9 0 10 -74 -25 -127 -59 -21
-13 -24 -13 -38 7 -23 33 -101 74 -144 76 -24 1 -60 -9 -91 -23 -48 -22 -53
-23 -64 -8 -13 18 -30 12 -38 -12 -5 -12 -7 -11 -14 5 -4 11 -10 22 -13 25
-27 23 -35 80 -10 65 5 -4 13 5 19 19 6 17 17 26 32 26 39 0 71 12 57 21 -21
12 68 31 148 31 128 -1 218 -40 264 -116 l18 -30 -4 61 c-4 75 -5 75 133 73
148 -3 147 -3 131 16 -11 14 -10 18 5 30 21 15 36 10 36 -11z m-1157 -35 c15
-12 20 -12 26 -1 10 16 31 6 31 -15 0 -18 2 -18 44 6 19 12 37 17 40 11 3 -5
15 -7 26 -4 19 5 20 0 20 -71 l0 -76 -116 0 c-89 0 -114 3 -110 13 3 6 9 19
12 29 3 9 21 19 40 22 18 4 36 11 40 17 7 12 -115 1 -132 -12 -6 -5 -19 -6
-28 -3 -9 4 -16 3 -15 -2 6 -32 -3 -54 -21 -54 -15 0 -20 7 -20 28 0 30 -20
82 -32 82 -5 0 -8 -9 -8 -21 0 -11 4 -18 8 -15 12 7 11 -56 -1 -71 -5 -7 -22
-13 -38 -13 -30 0 -34 -6 -45 -82 -3 -27 -10 -48 -15 -48 -5 0 -9 5 -9 10 0 6
-9 10 -20 10 -13 0 -20 -7 -20 -20 0 -11 -4 -20 -10 -20 -13 0 -60 -41 -60
-53 0 -6 8 -4 18 4 9 8 31 21 47 29 17 8 33 19 36 24 4 5 19 4 35 -1 16 -6 56
-8 88 -5 52 4 58 3 53 -12 -4 -10 -2 -16 6 -15 16 3 47 -11 47 -21 0 -5 -10
-6 -22 -4 -13 2 -5 -4 17 -14 39 -19 64 -20 35 -2 -13 8 -13 10 2 10 9 0 21
-13 27 -30 13 -40 21 -38 21 5 0 30 -5 37 -32 49 l-33 14 46 1 c43 1 47 -1 52
-26 3 -16 8 -38 12 -51 6 -18 4 -21 -8 -16 -10 4 -16 -1 -19 -16 -3 -20 -10
-22 -103 -26 -55 -2 -121 -4 -146 -4 -44 0 -47 -2 -51 -31 -3 -16 -1 -32 4
-35 4 -3 8 -18 8 -34 0 -15 6 -31 13 -34 10 -5 10 -7 0 -12 -7 -3 -13 -21 -13
-40 l0 -34 133 -1 c376 -2 377 -2 395 14 9 9 28 20 42 26 14 6 33 17 43 23 15
11 21 10 37 -9 10 -13 23 -23 28 -23 5 0 12 -6 15 -14 8 -19 109 -56 156 -56
38 0 74 28 100 77 17 33 -14 83 -68 110 -58 30 -58 29 -17 48 35 17 38 17 57
0 14 -14 22 -16 31 -7 8 8 7 13 -8 18 -10 4 -21 10 -24 14 -10 12 -100 -2
-100 -15 0 -8 -4 -16 -8 -19 -8 -4 -106 24 -147 43 -11 5 -33 12 -48 16 -15 3
-31 13 -34 22 -4 10 -17 26 -30 38 -18 15 -26 38 -37 103 -14 91 -12 97 39 97
20 0 33 -7 40 -19 6 -11 25 -24 43 -28 17 -5 32 -13 32 -19 0 -6 -4 -7 -10 -4
-5 3 -10 -3 -10 -14 0 -28 8 -26 32 4 20 25 38 25 38 1 0 -8 -10 -16 -22 -20
-23 -5 -23 -6 -3 -19 11 -8 32 -17 48 -21 25 -6 39 -26 17 -26 -5 0 -10 -4
-10 -10 0 -13 37 -13 45 0 4 7 13 6 26 -1 26 -14 36 -4 18 18 -13 15 -12 16 6
8 11 -4 49 -18 83 -31 35 -12 69 -27 75 -33 6 -6 16 -11 22 -11 22 0 105 -96
120 -139 17 -49 19 -99 5 -121 -7 -12 -12 -8 -21 18 -8 25 -15 31 -29 27 -12
-4 -22 1 -28 11 -5 9 -14 14 -20 10 -14 -8 -12 -76 2 -76 17 0 76 -44 76 -57
0 -7 -5 -13 -11 -13 -5 0 -15 -13 -20 -30 -6 -16 -19 -32 -29 -35 -10 -3 -21
-12 -24 -20 -3 -8 -17 -15 -31 -15 -14 0 -42 -7 -62 -15 -40 -17 -183 -21
-211 -5 -9 5 -43 16 -74 25 -32 8 -58 20 -58 26 0 6 -8 9 -17 7 -17 -3 -60 47
-55 65 1 4 -9 7 -22 7 -23 0 -25 -5 -31 -64 -8 -74 -15 -79 -87 -70 -41 6 -48
10 -43 24 10 31 -5 70 -27 70 -14 0 -18 -5 -14 -15 3 -9 0 -15 -10 -15 -12 0
-14 7 -9 30 4 18 3 30 -4 30 -5 0 -13 -20 -17 -45 -6 -41 -24 -64 -24 -31 0
30 -55 35 -63 5 -4 -15 -2 -19 9 -15 8 3 14 1 14 -4 0 -6 7 -10 16 -10 8 0 12
-4 9 -10 -7 -12 -315 -14 -315 -2 0 16 24 32 49 33 22 1 21 2 -8 9 -19 5 -44
4 -55 0 -12 -5 -15 -9 -7 -9 11 -1 11 -4 1 -16 -16 -20 -22 -19 -49 6 -16 15
-21 28 -17 45 7 28 -10 33 -19 5 -3 -10 -6 -35 -7 -55 -2 -51 -18 -45 -18 7 0
23 -3 93 -6 154 -6 96 -4 114 9 119 9 3 24 -3 36 -15 23 -23 37 -26 46 -11 3
6 -1 13 -10 16 -10 4 -14 16 -13 33 3 24 0 26 -29 23 -29 -3 -33 0 -33 21 0
14 7 30 15 37 21 17 20 41 -2 33 -15 -6 -16 10 -10 195 4 110 10 207 13 216 5
12 24 13 117 9 115 -6 279 10 285 27 4 10 33 -4 65 -30z m2745 13 c-4 -22 -22
-20 -26 1 -2 10 3 16 13 16 10 0 15 -7 13 -17z m-5182 -15 c3 -4 14 -8 25 -8
11 0 22 -7 25 -15 4 -8 15 -15 26 -15 30 0 54 -28 41 -49 -7 -11 -8 -23 -2
-32 7 -11 11 -10 22 6 14 18 16 18 36 -15 19 -31 29 -80 16 -80 -3 0 -11 16
-19 35 -8 19 -22 35 -30 35 -22 0 -20 -13 4 -28 25 -15 18 -32 -13 -32 l-22
-1 21 -12 c12 -7 19 -18 17 -24 -3 -7 0 -13 6 -13 20 0 32 -38 20 -58 -7 -11
-9 -27 -5 -37 5 -14 9 -15 21 -5 13 11 15 7 15 -29 0 -30 -4 -41 -15 -41 -8 0
-15 -7 -15 -16 0 -11 6 -13 19 -9 17 5 20 -2 26 -72 9 -106 -19 -223 -52 -223
-8 0 -11 -5 -8 -10 3 -6 -2 -13 -12 -17 -10 -3 -28 -15 -40 -26 -20 -18 -23
-18 -23 -4 0 23 -16 22 -23 -2 -5 -19 -61 -36 -104 -32 -11 1 -24 -3 -28 -8
-9 -16 -62 -13 -68 3 -4 10 11 15 64 20 68 7 81 15 57 32 -16 11 -146 10 -170
0 -13 -6 -18 -4 -18 8 0 9 -7 16 -15 16 -8 0 -15 -4 -15 -8 0 -5 -14 -8 -31
-7 -23 1 -33 -3 -36 -16 -5 -16 -7 -16 -20 -4 -16 17 -83 21 -83 5 0 -5 -5
-10 -11 -10 -5 0 -7 5 -4 10 4 6 -7 10 -25 10 -30 0 -31 2 -25 30 6 25 4 30
-13 30 -19 0 -20 8 -24 148 -2 81 -2 151 1 157 3 5 4 26 2 47 -2 27 2 38 11
38 8 0 19 14 25 30 9 23 18 30 37 30 14 0 26 5 26 10 0 6 -25 10 -55 10 -39 0
-55 4 -54 13 3 26 -2 37 -16 37 -8 0 -15 9 -15 20 0 11 7 23 15 26 11 5 15 22
15 70 0 54 3 64 18 65 10 0 12 3 5 6 -7 2 -13 8 -13 13 0 10 499 9 506 -2z
m606 -37 c-3 -30 0 -41 7 -37 6 4 11 20 11 36 0 31 20 53 20 23 1 -16 2 -16
13 -3 12 16 44 15 62 -1 5 -5 15 -9 23 -9 21 0 90 -60 112 -97 11 -19 20 -45
20 -58 0 -13 4 -26 9 -29 5 -4 8 -14 6 -24 -2 -9 -4 -26 -4 -36 -1 -16 -4 -17
-13 -8 -7 7 -25 12 -40 12 -17 0 -31 7 -35 15 -3 9 -13 15 -22 14 -34 -3 -58
14 -72 49 -8 20 -13 40 -11 45 1 5 -8 5 -20 2 -13 -4 -20 -4 -16 0 8 8 -9 35
-21 35 -4 0 -5 -14 -3 -32 4 -28 3 -30 -14 -23 -28 12 -92 7 -125 -11 -27 -13
-29 -19 -29 -69 0 -51 -10 -69 -25 -45 -8 13 -25 13 -25 1 0 -5 12 -13 26 -18
26 -9 26 -10 26 -102 0 -86 -1 -95 -22 -111 -23 -18 -20 -40 6 -40 8 0 15 -11
16 -27 4 -84 37 -123 103 -123 70 0 109 37 122 118 4 24 11 32 27 32 25 0 37
-8 52 -35 7 -11 19 -19 28 -19 9 1 16 -4 16 -11 0 -7 14 -12 33 -13 30 -1 31
0 13 14 -11 8 -23 14 -28 14 -17 0 -7 29 14 44 12 9 18 16 12 16 -5 0 -15 -5
-21 -11 -21 -21 -43 -2 -43 35 0 37 -16 57 -26 32 -3 -8 -11 -13 -19 -10 -7 3
-15 -2 -18 -10 -9 -23 -37 -20 -37 3 0 35 12 51 36 51 16 0 24 6 24 17 0 13 3
14 12 5 7 -7 17 -12 22 -12 6 0 5 5 -1 11 -11 11 -28 15 -80 18 -19 1 -23 7
-23 36 0 19 5 35 10 35 6 0 10 7 10 16 0 11 6 14 23 9 36 -12 40 -21 15 -44
-19 -19 -20 -23 -8 -31 23 -15 37 -11 18 4 -16 12 -16 14 7 26 14 7 25 19 25
27 0 8 12 13 34 13 19 0 38 5 41 10 13 21 34 10 34 -17 0 -16 4 -68 9 -118 5
-49 6 -94 2 -100 -4 -5 -8 -30 -9 -55 -2 -25 -9 -52 -17 -61 -8 -8 -14 -23
-14 -32 0 -9 -4 -17 -9 -17 -5 0 -11 -10 -14 -22 -4 -12 -9 -19 -13 -16 -3 4
-17 -6 -30 -22 -15 -17 -46 -35 -77 -45 -29 -9 -59 -19 -67 -22 -48 -19 -133
-21 -159 -4 -12 8 -13 12 -1 25 7 9 10 19 7 23 -4 3 -9 -2 -13 -11 -4 -10 -18
-22 -31 -27 -21 -8 -33 -3 -75 26 -27 20 -53 33 -57 31 -4 -3 -14 13 -21 34
-7 22 -17 40 -22 40 -4 0 -8 7 -8 15 0 7 -8 19 -17 24 -10 6 -13 11 -7 11 7 0
9 18 6 52 -4 41 -1 54 13 64 16 12 16 15 1 45 -11 22 -16 59 -16 120 l0 88 36
3 37 3 -32 35 c-29 30 -32 38 -26 74 3 22 12 48 20 57 8 8 12 19 8 22 -7 8 25
47 40 47 5 0 22 9 37 20 32 23 113 39 185 37 l50 -2 -3 -44z m1256 27 c-2 -15
-11 -24 -25 -26 -14 -2 -20 -8 -16 -18 3 -8 -1 -14 -11 -14 -9 0 -16 -4 -16
-10 0 -5 16 -10 35 -10 l35 0 2 -267 c1 -148 1 -281 0 -298 -1 -16 -2 -72 -2
-122 l1 -93 -47 0 c-40 0 -45 2 -39 18 4 9 10 26 13 37 2 11 10 27 16 35 21
27 40 70 33 76 -3 3 -15 -11 -27 -33 -11 -21 -29 -51 -40 -68 -11 -16 -23 -38
-26 -48 -5 -12 -15 -17 -31 -15 -13 2 -23 6 -23 11 0 4 0 135 0 291 0 276 1
285 20 291 29 9 25 27 -5 19 -20 -5 -25 -2 -25 13 0 11 11 26 25 33 33 18 32
30 -2 30 l-28 0 25 20 c14 10 22 22 18 26 -4 4 -14 2 -22 -5 -8 -7 -25 -9 -40
-5 -16 4 -26 2 -26 -5 0 -6 -7 -8 -15 -5 -8 4 -15 3 -15 0 0 -4 12 -11 26 -16
22 -9 25 -14 19 -38 -4 -15 -8 -34 -10 -42 -2 -8 -13 -44 -24 -79 -12 -35 -21
-73 -21 -85 0 -11 -6 -32 -13 -46 -8 -14 -19 -55 -26 -90 -7 -36 -16 -69 -21
-75 -4 -5 -15 -44 -25 -85 -17 -73 -35 -112 -35 -77 0 11 -6 17 -17 15 -14 -2
-18 3 -16 26 2 26 1 27 -16 12 -20 -18 -41 -21 -41 -6 0 6 -5 10 -10 10 -6 0
-8 -11 -4 -25 4 -15 2 -25 -5 -25 -6 0 -11 5 -11 10 0 6 -8 10 -19 10 -14 0
-22 12 -31 48 -6 26 -15 56 -20 67 -18 47 -30 93 -30 113 0 11 -5 24 -11 28
-7 4 -9 23 -5 50 3 28 2 44 -5 44 -14 0 -46 75 -60 141 -6 30 -15 58 -20 64
-5 5 -9 17 -9 27 0 10 -4 18 -8 18 -11 0 -30 -119 -20 -122 12 -5 21 -305 9
-312 -6 -4 -8 -20 -4 -37 5 -26 3 -28 -13 -22 -11 3 -22 11 -26 17 -10 15 -88
36 -88 24 0 -5 9 -12 20 -15 25 -7 25 -12 3 -29 -17 -12 -17 -13 3 -14 12 0
24 -7 28 -15 7 -18 52 -20 59 -2 9 24 28 -9 22 -36 -6 -22 -10 -25 -25 -17 -9
5 -21 6 -25 2 -3 -4 -13 2 -21 12 -15 22 -20 20 -26 -9 -2 -16 5 -20 41 -27
24 -4 49 -13 57 -19 23 -19 16 -39 -13 -39 -26 0 -26 -1 -7 -16 18 -14 16 -15
-21 -9 -44 7 -57 15 -37 22 14 5 16 39 3 47 -5 3 -14 0 -20 -8 -9 -11 -9 -15
1 -18 11 -4 -45 -38 -64 -38 -4 0 -8 23 -8 50 0 45 2 50 23 51 l22 2 -23 4
c-22 4 -23 9 -22 66 1 34 -1 70 -5 79 -10 24 -2 53 15 54 33 2 60 17 60 33 0
10 -3 12 -8 5 -4 -6 -21 -9 -39 -7 l-31 5 -7 131 c-4 73 -3 179 2 237 l8 105
60 6 c33 4 95 7 137 8 l77 1 15 -54 c9 -30 21 -58 26 -61 6 -3 10 -15 10 -26
0 -11 12 -46 26 -77 14 -31 26 -65 26 -76 1 -25 16 -83 29 -111 5 -11 15 -49
23 -85 11 -57 16 -65 37 -68 15 -2 20 0 12 5 -8 6 -10 22 -6 46 6 41 23 60 23
27 0 -13 5 -20 13 -18 15 6 22 39 9 47 -15 10 -25 51 -12 51 6 0 9 4 5 10 -6
9 12 99 41 200 34 121 47 166 55 188 8 21 12 22 154 22 146 0 146 0 143 -22z
m2586 -10 c-2 -54 -1 -53 -60 -50 -39 3 -54 1 -50 -7 5 -7 -4 -11 -23 -11 -17
0 -31 -5 -31 -11 0 -6 12 -9 27 -7 30 3 31 -1 38 -98 4 -53 2 -63 -13 -66 -28
-8 -63 9 -56 27 4 8 -1 17 -10 21 -9 3 -16 12 -16 19 0 7 -11 20 -25 29 -23
15 -25 15 -25 -1 0 -12 -3 -14 -11 -6 -6 6 -12 40 -14 76 -2 52 0 64 11 60 8
-3 14 0 14 5 0 13 -36 25 -50 17 -5 -3 -10 -2 -10 4 0 17 159 31 255 21 39 -4
50 -9 49 -22z m454 7 c12 -4 22 -14 22 -22 0 -8 6 -13 12 -11 26 9 108 -60
108 -91 0 -6 5 -20 10 -31 6 -11 15 -29 20 -40 6 -11 10 -31 10 -46 l0 -26
-72 6 c-40 3 -89 7 -110 8 -44 4 -47 6 -50 47 -1 18 -8 37 -15 43 -7 6 -11 14
-8 18 3 5 -28 10 -69 12 l-73 3 -12 -30 c-7 -16 -17 -41 -23 -55 -11 -24 -12
-58 -7 -292 2 -103 2 -107 23 -105 13 1 21 -4 21 -13 0 -8 -8 -14 -17 -14 -16
2 -16 -1 3 -27 11 -16 27 -29 35 -29 8 0 17 -7 21 -16 5 -12 7 -13 14 -2 6 10
11 10 21 0 17 -17 26 -15 24 6 -1 11 7 18 25 20 33 4 49 37 49 102 l0 50 49 0
c26 0 76 -3 110 -6 61 -7 61 -7 61 -39 0 -74 -29 -138 -92 -199 -55 -54 -62
-58 -97 -53 -23 3 -44 -1 -56 -9 -26 -19 -62 -17 -70 4 -6 16 -7 16 -16 0 -12
-22 -50 -23 -108 -2 -24 8 -46 12 -49 9 -3 -2 -12 4 -20 16 -8 11 -28 29 -45
39 -26 16 -28 20 -14 26 24 9 21 24 -4 24 -39 0 -78 61 -71 109 3 23 0 36 -10
42 -11 6 -12 26 -6 110 5 57 14 109 19 116 8 9 7 14 -4 19 -9 3 -14 13 -12 23
2 9 6 42 10 74 4 31 11 60 16 62 4 3 6 12 2 20 -4 12 5 15 38 16 24 1 37 3 28
6 -18 4 -32 40 -23 55 4 5 13 7 21 4 21 -8 39 4 22 15 -10 6 -11 9 -1 9 6 0
12 6 12 13 0 7 17 20 38 30 31 14 58 17 162 13 69 -3 135 -8 148 -11z m-3392
-112 c-10 -10 -19 5 -10 18 6 11 8 11 12 0 2 -7 1 -15 -2 -18z m869 -2 c-9
-16 -25 -3 -18 15 4 10 9 12 15 6 6 -6 7 -15 3 -21z m-3065 9 c0 -5 -4 -10 -9
-10 -6 0 -13 5 -16 10 -3 6 1 10 9 10 9 0 16 -4 16 -10z m6035 -30 c0 -18 -6
-26 -23 -28 -24 -4 -38 18 -28 44 3 9 15 14 28 12 17 -2 23 -10 23 -28z
m-5097 -27 c-2 -10 -10 -18 -18 -18 -8 0 -16 8 -18 18 -2 12 3 17 18 17 15 0
20 -5 18 -17z m445 -24 c13 -9 0 -29 -18 -29 -17 0 -30 43 -20 61 6 8 11 6 18
-7 6 -11 15 -22 20 -25z m3457 16 c0 -10 11 -15 35 -15 l35 0 -5 -45 c-5 -38
-3 -46 12 -51 35 -11 48 -21 51 -43 3 -16 -2 -21 -17 -21 -12 0 -21 -6 -21
-15 0 -9 -6 -15 -12 -14 -19 3 -68 -19 -68 -31 0 -14 8 -13 57 11 35 17 51 19
81 12 l37 -9 0 -199 c0 -230 -4 -255 -45 -255 -38 0 -60 9 -60 25 0 20 -21 30
-31 14 -7 -12 -19 -14 -76 -18 -7 -1 -13 -10 -13 -21 0 -16 -7 -20 -35 -20
-28 0 -35 4 -35 20 0 11 -4 20 -10 20 -15 0 -12 40 3 41 6 0 34 0 60 -1 l49
-2 -7 243 c-4 144 -11 249 -18 260 -8 13 -6 21 7 35 14 13 17 28 13 56 -3 21
-1 38 4 38 5 0 9 -7 9 -15z m-3585 -35 c-3 -5 -10 -10 -16 -10 -5 0 -9 5 -9
10 0 6 7 10 16 10 8 0 12 -4 9 -10z m3425 6 c0 -3 -4 -8 -10 -11 -5 -3 -10 -1
-10 4 0 6 5 11 10 11 6 0 10 -2 10 -4z m-2090 -16 c0 -5 -4 -10 -10 -10 -5 0
-10 5 -10 10 0 6 5 10 10 10 6 0 10 -4 10 -10z m3230 0 c0 -5 -2 -10 -4 -10
-3 0 -8 5 -11 10 -3 6 -1 10 4 10 6 0 11 -4 11 -10z m-6042 -23 c2 -10 -3 -17
-12 -17 -18 0 -29 16 -21 31 9 14 29 6 33 -14z m5172 3 c0 -5 -2 -10 -4 -10
-3 0 -8 5 -11 10 -3 6 -1 10 4 10 6 0 11 -4 11 -10z m-3514 -15 c14 -13 13
-16 -8 -24 -26 -10 -38 -6 -38 14 0 11 10 20 28 24 2 1 10 -6 18 -14z m1150
-42 c-10 -10 -19 5 -10 18 6 11 8 11 12 0 2 -7 1 -15 -2 -18z m3389 6 c0 -7
-8 -15 -17 -17 -18 -3 -25 18 -11 32 10 10 28 1 28 -15z m-939 -11 c7 -11 5
-14 -23 -22 -20 -6 -23 -4 -23 17 0 20 4 24 20 20 11 -3 23 -10 26 -15z
m-5156 -34 c0 -8 -7 -14 -15 -14 -15 0 -21 21 -9 33 10 9 24 -2 24 -19z m205
6 c3 -5 2 -10 -4 -10 -5 0 -13 5 -16 10 -3 6 -2 10 4 10 5 0 13 -4 16 -10z
m1131 -21 c10 -17 -13 -36 -27 -22 -12 12 -4 33 11 33 5 0 12 -5 16 -11z
m1154 -49 c0 -5 -2 -10 -4 -10 -3 0 -8 5 -11 10 -3 6 -1 10 4 10 6 0 11 -4 11
-10z m3397 -15 c7 -20 -2 -29 -21 -22 -9 4 -13 13 -10 22 8 19 23 19 31 0z
m-2597 -15 c0 -5 -4 -10 -10 -10 -5 0 -10 5 -10 10 0 6 5 10 10 10 6 0 10 -4
10 -10z m960 0 c0 -5 -4 -10 -10 -10 -5 0 -10 5 -10 10 0 6 5 10 10 10 6 0 10
-4 10 -10z m1813 -5 c1 -5 -6 -11 -15 -13 -11 -2 -18 3 -18 13 0 17 30 18 33
0z m-1423 -51 c0 -8 -9 -14 -20 -14 -22 0 -28 26 -7 33 16 6 27 -1 27 -19z
m-3225 -14 c3 -5 1 -10 -4 -10 -6 0 -11 5 -11 10 0 6 2 10 4 10 3 0 8 -4 11
-10z m2083 -13 c2 -10 -3 -17 -12 -17 -18 0 -29 16 -21 31 9 14 29 6 33 -14z
m-3362 -28 c10 -17 -13 -36 -27 -22 -12 12 -4 33 11 33 5 0 12 -5 16 -11z
m4384 -16 c17 -10 28 -23 25 -31 -2 -7 2 -23 9 -35 10 -16 13 -45 10 -102 -7
-145 5 -130 -106 -130 -53 0 -100 4 -105 8 -4 5 -7 72 -5 150 3 119 6 144 20
155 23 18 111 9 152 -15z m-2515 -14 c0 -7 -8 -15 -17 -17 -18 -3 -25 18 -11
32 10 10 28 1 28 -15z m2205 -9 c0 -5 -2 -10 -4 -10 -3 0 -8 5 -11 10 -3 6 -1
10 4 10 6 0 11 -4 11 -10z m120 -20 c0 -5 -7 -10 -16 -10 -8 0 -12 5 -9 10 3
6 10 10 16 10 5 0 9 -4 9 -10z m-4 -77 c-10 -10 -19 5 -10 18 6 11 8 11 12 0
2 -7 1 -15 -2 -18z m-2439 11 c-3 -3 -12 -4 -19 -1 -8 3 -5 6 6 6 11 1 17 -2
13 -5z m-1723 -50 c21 -8 21 -40 0 -48 -21 -8 -34 1 -34 23 0 28 9 34 34 25z
m156 -30 c0 -8 -4 -12 -10 -9 -5 3 -10 13 -10 21 0 8 5 12 10 9 6 -3 10 -13
10 -21z m5620 16 c0 -5 -4 -10 -10 -10 -5 0 -10 5 -10 10 0 6 5 10 10 10 6 0
10 -4 10 -10z m-3570 -30 c0 -5 -4 -10 -10 -10 -5 0 -10 5 -10 10 0 6 5 10 10
10 6 0 10 -4 10 -10z m1740 -20 c0 -5 -4 -10 -10 -10 -5 0 -10 5 -10 10 0 6 5
10 10 10 6 0 10 -4 10 -10z m1158 -5 c2 -2 -3 -14 -10 -27 -21 -38 -48 -51
-48 -23 0 21 -10 19 -38 -7 l-24 -23 4 25 c1 13 13 30 26 36 13 6 29 17 35 23
9 9 43 7 55 -4z m-4918 -5 c0 -5 -6 -10 -14 -10 -8 0 -18 5 -21 10 -3 6 3 10
14 10 12 0 21 -4 21 -10z m1807 4 c-3 -3 -12 -4 -19 -1 -8 3 -5 6 6 6 11 1 17
-2 13 -5z m-472 -14 c3 -5 1 -10 -4 -10 -6 0 -11 5 -11 10 0 6 2 10 4 10 3 0
8 -4 11 -10z m492 -22 c-3 -8 -6 -5 -6 6 -1 11 2 17 5 13 3 -3 4 -12 1 -19z
m-1779 0 c24 -24 13 -38 -28 -38 -29 0 -42 5 -50 19 -5 11 -10 22 -10 25 0 11
76 6 88 -6z m212 -3 c6 -3 10 -13 10 -21 0 -11 -6 -13 -20 -9 -11 4 -43 8 -70
9 -28 1 -50 6 -50 9 0 4 0 11 0 17 0 10 112 6 130 -5z m2230 -25 c0 -5 -7 -10
-15 -10 -8 0 -15 5 -15 10 0 6 7 10 15 10 8 0 15 -4 15 -10z m1944 -25 c9 -23
-22 -47 -45 -35 -21 12 -21 12 -13 34 8 20 50 21 58 1z m-4085 -18 c15 -19
-10 -53 -33 -44 -16 6 -22 38 -9 50 10 11 30 8 42 -6z m4781 -31 c0 -11 -19
-15 -25 -6 -3 5 1 10 9 10 9 0 16 -2 16 -4z m-544 -17 c10 -17 -13 -36 -27
-22 -12 12 -4 33 11 33 5 0 12 -5 16 -11z m-3736 -9 c0 -5 -4 -10 -10 -10 -5
0 -10 5 -10 10 0 6 5 10 10 10 6 0 10 -4 10 -10z m3037 -6 c3 -8 -2 -23 -11
-32 -15 -15 -17 -15 -32 0 -21 21 -11 48 16 48 11 0 23 -7 27 -16z m-1381 -5
c10 -17 -13 -36 -27 -22 -12 12 -4 33 11 33 5 0 12 -5 16 -11z m-798 -11 c-2
-6 -10 -14 -16 -16 -7 -2 -10 2 -6 12 7 18 28 22 22 4z m2372 -8 c0 -5 -4 -10
-10 -10 -5 0 -10 5 -10 10 0 6 5 10 10 10 6 0 10 -4 10 -10z m1337 -16 c3 -8
-1 -22 -9 -30 -19 -19 -52 3 -42 29 8 21 43 22 51 1z m-99 -33 c3 -8 -1 -12
-9 -9 -7 2 -15 10 -17 17 -3 8 1 12 9 9 7 -2 15 -10 17 -17z m-4318 -12 c0 -5
-4 -9 -10 -9 -5 0 -10 7 -10 16 0 8 5 12 10 9 6 -3 10 -10 10 -16z m384 11
l26 -10 0 -174 c0 -168 -1 -174 -21 -179 -12 -3 -18 -10 -15 -16 4 -6 13 -8
21 -4 11 4 15 -2 15 -20 0 -28 -16 -43 -41 -39 -10 2 -19 -6 -22 -18 -6 -23
21 -28 41 -8 16 16 20 9 14 -34 l-4 -38 -49 0 c-38 0 -51 4 -59 20 -6 11 -16
20 -23 19 -7 -1 -24 3 -38 9 -26 11 -27 13 -34 134 -3 68 -5 146 -4 173 1 28
-1 76 -6 107 l-8 57 34 5 c86 14 144 24 146 25 1 0 13 -3 27 -9z m1626 -5 c0
-8 -6 -15 -14 -15 -17 0 -28 14 -19 24 12 12 33 6 33 -9z m-2820 -21 c0 -8 -9
-14 -20 -14 -22 0 -28 26 -7 33 16 6 27 -1 27 -19z m510 16 c0 -5 -5 -10 -11
-10 -5 0 -7 5 -4 10 3 6 8 10 11 10 2 0 4 -4 4 -10z m1645 -10 c-5 -17 -2 -20
24 -20 17 0 31 -4 31 -9 0 -4 10 -19 23 -33 12 -13 30 -41 39 -61 10 -20 22
-37 27 -37 5 0 14 -13 19 -29 9 -26 8 -30 -11 -35 -12 -3 -33 -6 -46 -6 -20 0
-21 -2 -11 -15 8 -10 17 -12 24 -6 6 5 24 11 40 13 25 2 31 -1 37 -25 7 -27 6
-28 -17 -23 -15 4 -24 2 -24 -5 0 -8 12 -10 35 -6 32 5 37 3 48 -21 6 -15 20
-33 29 -40 10 -7 18 -22 18 -33 0 -10 4 -19 8 -19 5 0 21 -22 36 -50 37 -68
50 -65 42 10 -6 51 -4 61 9 67 13 4 14 8 4 14 -8 4 -14 39 -17 93 -5 86 -4 86
19 84 13 -2 28 -7 32 -13 6 -6 10 -6 14 3 2 7 10 18 17 25 8 8 10 20 5 32 -4
11 -8 16 -8 12 -1 -5 -7 -5 -13 0 -7 4 -17 8 -23 8 -5 1 -18 5 -28 9 -17 8
-17 10 4 32 12 13 29 24 36 24 26 0 2 20 -25 21 l-27 1 30 13 c25 11 33 11 52
-1 29 -18 34 -18 26 2 -4 12 -2 15 8 12 8 -3 13 -16 11 -32 -4 -33 4 -33 22 2
l15 27 1 -29 c0 -16 -8 -35 -17 -42 -16 -12 -16 -13 -1 -14 11 0 18 -11 21
-37 9 -60 8 -133 -1 -133 -5 0 -21 14 -35 30 -15 17 -34 30 -43 30 -22 0 33
-57 62 -64 28 -7 32 -34 40 -273 6 -183 5 -192 -12 -191 -11 1 -29 -2 -41 -6
-14 -5 -23 -3 -23 3 0 6 -9 11 -21 11 -11 0 -17 -4 -14 -10 8 -13 -1 -13 -25
2 -25 16 -42 1 -34 -30 7 -25 36 -29 54 -7 17 21 33 8 26 -21 -4 -14 -2 -24 4
-24 5 0 10 8 10 19 0 26 20 38 50 32 21 -5 25 -12 28 -47 l2 -41 -64 -5 c-101
-8 -115 -3 -138 53 -12 27 -24 49 -28 49 -5 0 -25 30 -46 68 -21 37 -44 72
-52 78 -20 14 -8 48 14 40 8 -3 12 -2 9 4 -3 6 -16 10 -29 10 -24 0 -45 28
-137 185 -40 68 -44 81 -30 87 15 6 15 7 -1 7 -9 1 -23 4 -32 7 -13 5 -16 -2
-16 -38 0 -75 12 -168 21 -162 5 3 9 0 9 -5 0 -6 -4 -11 -8 -11 -5 0 -7 -65
-4 -145 3 -129 2 -144 -12 -139 -9 3 -16 2 -16 -3 0 -5 -16 -7 -35 -5 -19 2
-35 7 -35 11 0 4 -18 5 -40 3 -42 -4 -48 4 -30 38 7 13 7 21 0 25 -5 3 -10 40
-10 81 0 67 2 74 19 74 11 0 23 -4 26 -10 3 -5 15 -10 26 -10 11 0 22 -7 25
-15 4 -8 12 -15 20 -15 20 0 18 5 -16 39 -21 20 -42 31 -68 33 -34 3 -37 5
-40 38 -2 19 -8 39 -13 44 -10 11 -12 69 -3 116 6 28 10 31 33 26 40 -9 128
-17 114 -10 -18 8 -16 24 2 24 8 0 15 7 15 15 0 11 -11 15 -41 15 -32 0 -40
-3 -36 -15 4 -8 2 -17 -3 -20 -6 -4 -10 -2 -10 4 0 6 -14 7 -34 4 -40 -6 -55
10 -32 36 21 23 20 58 -1 70 -15 8 -19 27 -21 100 -3 59 0 91 6 91 6 0 14 -4
17 -10 3 -5 11 -10 16 -10 6 0 7 5 4 10 -8 13 1 13 27 -1 17 -9 23 -8 30 5 6
11 23 16 49 16 36 0 40 -2 34 -20z m1157 3 c16 -14 21 -15 27 -4 10 16 31 6
31 -15 0 -18 2 -18 44 6 19 12 37 17 40 11 3 -5 15 -7 26 -4 19 5 20 0 20 -76
l0 -81 -115 0 c-63 0 -115 2 -115 5 0 23 29 56 56 65 56 19 48 29 -18 23 -37
-3 -66 -11 -71 -19 -4 -7 -14 -11 -22 -8 -9 4 -16 -3 -21 -20 -9 -38 -44 -36
-44 3 0 17 -4 33 -10 36 -6 4 -10 -8 -10 -29 0 -38 -8 -46 -54 -55 -29 -6 -31
-10 -40 -70 -6 -46 -11 -60 -19 -52 -17 17 -48 13 -53 -7 -3 -9 -21 -28 -41
-42 -22 -15 -30 -26 -22 -29 7 -2 15 1 17 8 2 6 12 11 23 11 10 0 19 3 19 8 0
18 52 27 132 24 69 -3 86 -7 81 -18 -3 -9 2 -14 15 -14 29 0 38 -20 10 -21
-20 0 -19 -2 7 -11 17 -5 37 -12 45 -15 8 -4 18 -7 22 -7 4 -1 14 -10 22 -21
15 -20 15 -20 16 3 0 15 6 22 20 22 13 0 20 -7 20 -20 0 -13 -5 -18 -15 -14
-11 5 -15 -1 -15 -19 0 -25 -1 -25 -87 -25 -49 1 -104 -3 -123 -8 -30 -8 -35
-13 -35 -39 0 -22 -6 -33 -23 -40 -21 -9 -23 -15 -20 -75 l3 -65 220 2 c156 1
222 -2 227 -10 5 -9 10 -9 20 1 23 23 28 12 28 -62 0 -105 0 -106 -77 -106
-61 0 -64 1 -58 21 11 33 -3 69 -26 69 -11 0 -17 -4 -14 -10 3 -5 -1 -10 -10
-10 -13 0 -15 6 -10 30 4 19 3 30 -4 30 -6 0 -11 -11 -11 -25 0 -14 -5 -25
-11 -25 -6 0 -8 -8 -4 -19 3 -11 1 -22 -5 -26 -7 -4 -14 1 -16 13 -3 11 -20
23 -38 29 -32 10 -32 9 -28 -20 3 -19 7 -25 12 -16 6 9 12 9 25 -4 9 -9 13
-21 10 -27 -7 -11 -315 -14 -315 -3 0 15 34 43 54 44 13 1 8 4 -13 9 -40 9
-64 3 -57 -15 8 -21 -25 -27 -51 -9 -18 11 -24 22 -20 40 2 13 1 24 -4 24 -13
0 -18 -14 -21 -58 -4 -49 -18 -57 -18 -9 0 17 -3 86 -6 153 -6 104 -4 122 9
127 9 3 21 -1 27 -8 7 -8 17 -12 22 -9 6 4 14 0 19 -7 4 -7 12 -10 16 -5 4 4
0 14 -10 21 -13 9 -17 20 -12 34 5 17 1 20 -27 23 -40 4 -47 25 -17 59 21 24
21 24 1 27 -20 3 -21 8 -16 165 3 89 7 185 10 214 l5 52 122 -5 c67 -3 130 -7
140 -9 9 -2 17 1 17 5 0 8 42 14 134 18 25 1 46 -4 58 -15z m782 -26 c54 -25
113 -94 103 -121 -3 -8 -25 -23 -49 -34 -24 -10 -49 -26 -57 -35 -18 -23 -34
-21 -57 4 -63 69 -160 89 -234 48 -34 -19 -44 -21 -60 -11 -26 16 -40 15 -40
-3 0 -8 -4 -15 -10 -15 -5 0 -10 9 -10 20 0 11 -4 20 -10 20 -5 0 -10 7 -10
15 0 8 -4 15 -10 15 -5 0 -10 7 -10 15 0 8 7 15 15 15 9 0 20 11 25 25 7 17
17 25 34 25 32 0 57 10 51 20 -13 21 122 39 214 28 34 -4 86 -18 115 -31z
m-2454 -14 c0 -35 3 -44 10 -33 5 8 10 27 10 43 0 15 5 27 10 27 6 0 10 -5 10
-12 0 -8 3 -9 11 -1 11 11 56 6 65 -8 3 -5 13 -9 22 -9 20 -1 91 -63 115 -102
9 -15 17 -38 17 -52 0 -14 4 -27 9 -30 12 -8 3 -68 -11 -81 -8 -7 -9 -6 -3 4
6 11 0 13 -28 9 -20 -2 -34 -1 -32 2 2 3 -3 13 -10 24 -9 12 -20 16 -34 11
-12 -4 -21 -2 -21 4 0 6 -7 11 -15 11 -8 0 -15 5 -15 10 0 6 5 10 10 10 6 0
10 6 10 14 0 8 6 17 13 19 6 3 2 6 -10 6 -15 1 -23 -5 -23 -16 0 -13 -3 -14
-11 -6 -6 6 -11 22 -11 36 0 24 -37 83 -38 60 0 -7 -7 -13 -16 -13 -8 0 -12
-5 -9 -10 3 -6 4 -18 1 -28 -5 -14 -14 -17 -45 -14 -51 5 -108 -14 -122 -40
-6 -11 -8 -36 -4 -59 7 -42 4 -45 -25 -29 -11 6 -21 6 -24 1 -3 -5 8 -14 25
-20 l30 -10 -2 -83 c-2 -103 -7 -128 -26 -128 -8 0 -13 -7 -11 -17 2 -10 11
-17 21 -17 12 1 17 -7 19 -30 0 -17 2 -35 3 -41 2 -5 3 -16 4 -23 2 -28 53
-62 93 -62 74 0 128 52 128 123 0 31 4 34 41 29 23 -3 33 -12 41 -34 8 -23 13
-26 24 -17 11 9 14 8 14 -5 0 -9 6 -16 14 -16 8 0 21 -3 30 -6 9 -3 16 -1 16
5 0 6 -12 16 -26 21 -19 7 -24 15 -19 29 4 13 0 20 -16 24 -17 4 -20 12 -17
38 2 20 -2 34 -9 36 -7 3 -13 0 -13 -6 0 -6 -8 -11 -17 -11 -9 0 -25 -7 -35
-16 -16 -16 -18 -16 -24 0 -3 9 -3 27 0 41 5 21 11 24 30 19 17 -4 25 -1 28
14 5 19 -2 22 -48 22 -16 0 -23 8 -28 33 -4 19 -2 33 4 35 5 2 10 10 10 18 0
16 28 18 50 4 12 -8 11 -13 -8 -33 -27 -29 -27 -33 -2 -40 11 -3 20 -1 20 4 0
5 -5 9 -11 9 -8 0 -8 5 1 15 7 8 19 15 26 15 8 0 14 7 14 15 0 10 11 15 35 15
19 0 35 5 35 10 0 6 9 10 20 10 17 0 19 -3 11 -17 -6 -11 -6 -24 0 -35 17 -32
22 -135 9 -221 -7 -48 -16 -87 -21 -87 -5 0 -9 -6 -9 -13 0 -23 -25 -67 -37
-67 -7 0 -13 -5 -13 -11 0 -5 -4 -7 -10 -4 -5 3 -10 3 -10 -2 0 -4 -7 -17 -15
-27 -14 -19 -16 -19 -34 -2 -11 10 -17 24 -14 32 3 8 0 14 -5 14 -8 0 -8 9 -1
30 11 31 23 38 34 20 3 -5 11 -10 17 -10 6 0 3 9 -6 19 -11 12 -14 21 -7 26
12 7 15 35 3 35 -4 0 -13 -13 -20 -30 -11 -24 -18 -29 -36 -24 -18 4 -25 1
-29 -17 -4 -13 -2 -26 4 -29 5 -4 7 -14 4 -22 -4 -11 4 -22 24 -34 34 -20 40
-39 14 -41 -10 0 -49 -10 -88 -21 -52 -15 -81 -18 -113 -12 -50 9 -60 16 -44
32 7 7 12 19 12 28 -1 9 -6 5 -15 -11 -21 -39 -51 -42 -96 -12 -22 14 -39 30
-39 35 0 6 -6 8 -14 5 -9 -4 -22 12 -38 46 -51 107 -63 182 -30 194 9 4 23 13
30 20 16 15 32 17 32 3 0 -5 5 -10 10 -10 6 0 10 6 10 13 0 16 -41 37 -70 37
-19 0 -20 7 -20 101 l0 102 30 -6 c18 -4 30 -2 30 4 0 6 -13 24 -30 41 -16 16
-30 32 -30 34 0 22 24 94 32 94 5 0 8 6 7 13 -3 28 4 37 58 67 57 33 116 46
206 49 l47 1 0 -47z m560 37 c0 -5 -7 -7 -15 -4 -8 4 -15 8 -15 10 0 2 7 4 15
4 8 0 15 -4 15 -10z m-2350 -10 c0 -5 -4 -10 -10 -10 -5 0 -10 5 -10 10 0 6 5
10 10 10 6 0 10 -4 10 -10z m4948 -7 c-4 -22 -22 -20 -26 1 -2 10 3 16 13 16
10 0 15 -7 13 -17z m-4408 -3 c0 -5 -4 -10 -10 -10 -5 0 -10 5 -10 10 0 6 5
10 10 10 6 0 10 -4 10 -10z m2870 -101 c0 -5 -7 -9 -15 -9 -9 0 -12 6 -9 15 6
15 24 11 24 -6z m-2600 -9 c0 -5 -4 -10 -10 -10 -5 0 -10 5 -10 10 0 6 5 10
10 10 6 0 10 -4 10 -10z m-390 -40 c8 -14 8 -26 0 -40 -19 -35 -80 -20 -80 20
0 40 61 55 80 20z m1455 -50 c-11 -18 -35 -10 -41 14 -9 39 5 50 27 21 11 -13
17 -29 14 -35z m1915 47 c0 3 10 -6 21 -21 12 -15 27 -25 33 -23 7 3 20 -1 31
-9 10 -8 13 -14 7 -14 -7 0 -12 -9 -12 -20 0 -25 18 -26 27 -2 6 14 8 13 13
-8 4 -17 18 -29 45 -39 52 -19 52 -19 29 -36 -19 -14 -18 -14 3 -15 12 0 25 5
28 10 4 7 12 7 25 0 27 -15 47 -13 32 2 -25 25 -10 26 50 2 34 -13 70 -24 80
-24 10 0 18 -4 18 -9 0 -5 13 -14 30 -21 30 -13 120 -102 120 -119 0 -6 7 -8
15 -5 8 4 15 1 15 -5 0 -6 -5 -11 -11 -11 -7 0 -9 -10 -5 -25 9 -34 -4 -107
-18 -102 -6 3 -10 10 -8 17 4 16 -18 41 -30 34 -5 -3 -17 1 -27 10 -15 13 -20
14 -29 4 -19 -23 -2 -66 29 -77 16 -5 29 -15 29 -20 0 -6 7 -11 15 -11 8 0 15
-7 15 -15 0 -8 -5 -15 -10 -15 -6 0 -16 -12 -23 -27 -19 -43 -57 -70 -127 -90
-73 -20 -229 -24 -252 -6 -7 6 -32 16 -55 22 -23 6 -49 18 -57 26 -8 8 -18 15
-22 15 -13 0 -54 43 -54 57 0 7 -9 13 -19 13 -49 0 -19 47 54 86 11 6 31 17
44 25 19 11 25 12 28 1 3 -7 12 -18 19 -25 8 -7 23 -20 32 -29 29 -28 129 -61
166 -54 33 6 64 33 85 73 19 38 -11 88 -71 119 l-52 26 39 19 c34 17 40 17 55
4 19 -17 50 -20 50 -5 0 6 -8 14 -17 17 -10 4 -20 9 -23 13 -3 3 -29 4 -57 2
-44 -3 -53 -7 -53 -23 0 -14 -7 -19 -25 -19 -14 0 -25 4 -25 8 0 5 -25 16 -55
26 -55 17 -90 43 -42 30 14 -3 34 -1 44 5 15 9 12 10 -20 11 -21 0 -46 -4 -55
-9 -12 -6 -26 -5 -42 5 -14 7 -20 13 -15 14 6 0 -6 13 -24 29 -32 27 -36 37
-47 113 -14 100 -12 109 27 98 16 -5 29 -6 29 -3z m1120 -17 c0 -5 -5 -10 -11
-10 -5 0 -7 5 -4 10 3 6 8 10 11 10 2 0 4 -4 4 -10z m-4830 -10 c0 -5 -5 -10
-11 -10 -5 0 -7 5 -4 10 3 6 8 10 11 10 2 0 4 -4 4 -10z m3230 -40 c0 -5 -2
-10 -4 -10 -3 0 -8 5 -11 10 -3 6 -1 10 4 10 6 0 11 -4 11 -10z m-1381 -51
c-20 -13 -43 -7 -47 13 -4 21 28 28 47 10 12 -12 12 -15 0 -23z m2889 24 c-4
-22 -22 -20 -26 1 -2 10 3 16 13 16 10 0 15 -7 13 -17z m-308 -13 c0 -11 -7
-20 -15 -20 -8 0 -15 9 -15 20 0 11 7 20 15 20 8 0 15 -9 15 -20z m595 -20 c3
-5 1 -10 -4 -10 -6 0 -11 5 -11 10 0 6 2 10 4 10 3 0 8 -4 11 -10z m-1615 -50
c0 -20 -5 -30 -15 -30 -8 0 -15 5 -15 10 0 6 -15 19 -32 30 l-33 20 48 0 c46
0 47 -1 47 -30z m-2702 3 c-4 -22 -22 -20 -26 1 -2 10 3 16 13 16 10 0 15 -7
13 -17z m-288 -23 c0 -5 -4 -10 -10 -10 -5 0 -10 5 -10 10 0 6 5 10 10 10 6 0
10 -4 10 -10z m2920 0 c0 -5 -4 -10 -9 -10 -6 0 -13 5 -16 10 -3 6 1 10 9 10
9 0 16 -4 16 -10z m-3330 -30 c0 -5 -4 -10 -10 -10 -5 0 -10 5 -10 10 0 6 5
10 10 10 6 0 10 -4 10 -10z m3585 -75 c0 -13 -8 -21 -22 -23 -19 -3 -23 1 -23
23 0 22 4 26 23 23 14 -2 22 -10 22 -23z m1275 -52 c25 -9 29 -12 13 -12 -31
-1 -53 -27 -54 -64 -1 -31 -1 -31 -11 8 -12 45 -22 54 -58 56 -26 1 -22 4 21
13 20 4 28 14 34 38 l8 33 6 -30 c5 -23 14 -33 41 -42z m-1080 27 c0 -5 -7
-10 -16 -10 -8 0 -12 5 -9 10 3 6 10 10 16 10 5 0 9 -4 9 -10z m-2400 -10 c0
-5 -5 -10 -11 -10 -5 0 -7 5 -4 10 3 6 8 10 11 10 2 0 4 -4 4 -10z m385 0 c3
-5 -1 -10 -10 -10 -9 0 -13 5 -10 10 3 6 8 10 10 10 2 0 7 -4 10 -10z m-630
-19 c-3 -6 -11 -8 -17 -5 -6 4 -5 9 3 15 16 10 23 4 14 -10z m84 -27 c9 8 25
14 36 12 18 -3 20 -11 21 -84 2 -73 0 -82 -16 -82 -11 0 -22 -5 -25 -11 -4 -6
0 -9 11 -7 13 2 20 -4 22 -18 2 -16 -10 -32 -42 -59 l-46 -37 -35 16 c-19 9
-35 21 -35 27 0 5 -11 7 -25 3 -14 -3 -25 -2 -25 4 0 5 -9 12 -19 15 -27 7
-23 42 8 75 15 16 24 36 22 50 -1 14 3 22 13 22 9 0 16 5 16 10 0 6 -4 10 -9
10 -16 0 -24 42 -11 50 7 4 25 2 42 -4 25 -9 31 -8 39 7 9 16 12 16 26 2 14
-14 17 -14 32 -1z m-295 -30 c8 -20 8 -112 0 -141 -4 -14 -14 -23 -26 -23 -10
0 -16 -4 -13 -10 3 -5 22 -10 41 -10 19 0 34 5 34 10 0 6 5 10 10 10 6 0 10
-5 10 -11 0 -7 8 -18 18 -25 15 -13 15 -14 -8 -11 -31 3 -33 -20 -4 -40 20
-13 22 -11 37 18 l15 32 26 -26 c51 -51 24 -68 -87 -56 -80 9 -147 31 -147 48
0 5 -8 12 -17 15 -44 14 -69 132 -44 200 11 28 26 33 97 35 39 1 53 -3 58 -15z
m-839 -24 c3 -5 1 -10 -4 -10 -6 0 -11 5 -11 10 0 6 2 10 4 10 3 0 8 -4 11
-10z m945 -10 c0 -5 -4 -10 -10 -10 -5 0 -10 5 -10 10 0 6 5 10 10 10 6 0 10
-4 10 -10z m3470 0 c0 -5 -5 -10 -11 -10 -5 0 -7 5 -4 10 3 6 8 10 11 10 2 0
4 -4 4 -10z m-2105 -30 c0 -8 -8 -16 -17 -18 -13 -2 -18 3 -18 18 0 15 5 20
18 18 9 -2 17 -10 17 -18z m1515 16 c0 -3 -4 -8 -10 -11 -5 -3 -10 -1 -10 4 0
6 5 11 10 11 6 0 10 -2 10 -4z m-3450 -16 c0 -5 -2 -10 -4 -10 -3 0 -8 5 -11
10 -3 6 -1 10 4 10 6 0 11 -4 11 -10z m4195 -30 c3 -5 1 -10 -4 -10 -6 0 -11
5 -11 10 0 6 2 10 4 10 3 0 8 -4 11 -10z m-3695 -39 c0 -6 -4 -13 -10 -16 -5
-3 -10 1 -10 9 0 9 5 16 10 16 6 0 10 -4 10 -9z m-500 -49 c0 -13 -12 -22 -22
-16 -10 6 -1 24 13 24 5 0 9 -4 9 -8z m110 -22 c0 -5 -5 -10 -11 -10 -5 0 -7
5 -4 10 3 6 8 10 11 10 2 0 4 -4 4 -10z m1580 0 c0 -5 15 -10 33 -10 55 0 77
-10 77 -35 0 -21 -5 -23 -80 -30 -89 -8 -110 0 -110 42 0 15 8 27 23 33 30 12
57 12 57 0z m710 -6 c0 -8 -5 -12 -10 -9 -6 4 -8 11 -5 16 9 14 15 11 15 -7z
m1520 -14 c0 -5 -4 -10 -10 -10 -5 0 -10 5 -10 10 0 6 5 10 10 10 6 0 10 -4
10 -10z m105 -10 c3 -5 1 -10 -4 -10 -6 0 -11 5 -11 10 0 6 2 10 4 10 3 0 8
-4 11 -10z m-1520 -50 c-3 -5 -12 -7 -20 -3 -21 7 -19 13 6 13 11 0 18 -4 14
-10z m420 -20 c3 -5 -1 -10 -10 -10 -9 0 -13 5 -10 10 3 6 8 10 10 10 2 0 7
-4 10 -10z m-2845 -20 c0 -5 -5 -10 -11 -10 -5 0 -7 5 -4 10 3 6 8 10 11 10 2
0 4 -4 4 -10z m3996 -1 c10 -17 -13 -36 -27 -22 -12 12 -4 33 11 33 5 0 12 -5
16 -11z m-3686 -59 c0 -5 -4 -10 -10 -10 -5 0 -10 5 -10 10 0 6 5 10 10 10 6
0 10 -4 10 -10z m690 0 c0 -5 -4 -10 -10 -10 -5 0 -10 5 -10 10 0 6 5 10 10
10 6 0 10 -4 10 -10z m2730 0 c0 -5 -5 -10 -11 -10 -5 0 -7 5 -4 10 3 6 8 10
11 10 2 0 4 -4 4 -10z m-3274 -11 c10 -17 -13 -36 -27 -22 -12 12 -4 33 11 33
5 0 12 -5 16 -11z m1862 -1 c11 -11 17 -58 8 -58 -2 0 -11 -3 -19 -6 -20 -7
-50 37 -41 60 7 19 35 21 52 4z m-1515 -13 c1 -5 -6 -11 -15 -13 -11 -2 -18 3
-18 13 0 17 30 18 33 0z m2037 -5 c0 -5 -4 -10 -10 -10 -5 0 -10 5 -10 10 0 6
5 10 10 10 6 0 10 -4 10 -10z m-2610 -28 c0 -5 -6 -17 -14 -28 -12 -15 -19
-17 -32 -8 -25 15 -27 29 -9 48 12 12 21 13 36 6 10 -6 19 -14 19 -18z m750
-2 c0 -5 -4 -10 -10 -10 -5 0 -10 5 -10 10 0 6 5 10 10 10 6 0 10 -4 10 -10z
m560 6 c0 -3 -4 -8 -10 -11 -5 -3 -10 -1 -10 4 0 6 5 11 10 11 6 0 10 -2 10
-4z m-440 -27 c0 -6 -4 -7 -10 -4 -5 3 -10 11 -10 16 0 6 5 7 10 4 6 -3 10
-11 10 -16z m2820 -25 c0 -8 -7 -14 -15 -14 -15 0 -21 21 -9 33 10 9 24 -2 24
-19z m-1280 12 c0 -3 -4 -8 -10 -11 -5 -3 -10 -1 -10 4 0 6 5 11 10 11 6 0 10
-2 10 -4z m940 -10 c0 -3 -4 -8 -10 -11 -5 -3 -10 -1 -10 4 0 6 5 11 10 11 6
0 10 -2 10 -4z m-1947 -36 c3 -10 2 -30 0 -45 -4 -19 -11 -26 -27 -24 -11 0
-23 0 -26 -1 -31 -11 -42 -7 -37 16 2 13 0 27 -4 30 -5 3 -9 13 -9 23 0 27 96
27 103 1z m337 -27 c0 -45 0 -45 -30 -41 -16 3 -30 2 -30 -2 0 -3 -9 -6 -21
-6 -16 0 -20 5 -16 23 2 13 0 26 -4 29 -5 3 -9 13 -9 23 0 15 9 18 55 19 l55
0 0 -45z m439 9 c33 -24 66 -91 52 -105 -5 -5 -28 -7 -53 -3 -37 6 -46 11 -55
36 -10 26 -17 30 -47 30 -30 0 -38 -5 -46 -26 -15 -38 -13 -217 3 -236 14 -18
57 -31 57 -17 0 5 6 9 14 9 15 0 26 21 26 51 0 16 7 19 55 19 49 0 55 -2 55
-20 0 -34 -26 -85 -52 -102 -13 -9 -40 -18 -59 -19 -28 -3 -33 -1 -31 14 2 10
-3 17 -13 17 -8 0 -15 4 -15 9 0 15 -34 18 -59 5 -25 -13 -25 -14 42 -28 39
-9 35 -30 -5 -22 -40 8 -81 34 -73 46 4 6 1 10 -4 10 -6 0 -11 -7 -11 -15 0
-8 -7 -15 -15 -15 -8 0 -15 -7 -15 -15 0 -10 -11 -15 -35 -15 -31 0 -35 3 -35
26 0 14 -4 23 -9 20 -5 -3 -7 -15 -4 -26 4 -17 0 -19 -36 -17 -37 1 -40 3 -34
26 4 17 2 22 -6 17 -6 -4 -11 -16 -11 -27 0 -17 -7 -19 -56 -19 l-57 0 7 40
c5 31 3 42 -9 46 -8 4 -15 16 -15 28 0 12 -5 27 -12 34 -9 9 -8 12 4 12 9 0
23 6 30 14 8 7 28 15 45 18 27 4 33 1 38 -19 3 -12 2 -40 -1 -62 l-6 -39 73
-4 c48 -2 85 1 105 10 l30 14 -2 81 c-2 45 -4 84 -5 87 -2 8 1 42 7 68 3 15
10 22 19 18 9 -3 12 0 8 10 -3 8 6 25 23 40 26 25 32 26 98 21 46 -4 78 -12
95 -25z m-1719 -22 c0 -5 -5 -10 -11 -10 -5 0 -7 5 -4 10 3 6 8 10 11 10 2 0
4 -4 4 -10z m-310 -10 c0 -5 -5 -10 -11 -10 -5 0 -7 5 -4 10 3 6 8 10 11 10 2
0 4 -4 4 -10z m1590 -50 c0 -5 -5 -10 -11 -10 -5 0 -7 5 -4 10 3 6 8 10 11 10
2 0 4 -4 4 -10z m-342 -58 c2 -22 -2 -33 -17 -41 -16 -9 -22 -8 -30 6 -9 17
-11 17 -25 -2 -18 -23 -21 -45 -6 -45 6 0 10 5 10 10 0 6 15 10 34 10 41 0 49
-16 40 -77 -7 -49 -19 -45 124 -44 46 0 92 3 103 6 11 4 19 2 19 -4 0 -6 -7
-11 -16 -11 -8 0 -12 -5 -9 -10 3 -6 -1 -13 -9 -16 -9 -3 -16 -12 -16 -18 0
-10 -36 -13 -139 -14 -134 -1 -139 0 -145 21 -3 11 0 27 6 34 6 8 8 16 4 20
-3 3 -6 1 -6 -5 0 -7 -4 -12 -10 -12 -5 0 -8 46 -6 116 3 129 9 141 60 120 24
-9 32 -19 34 -44z m326 38 c24 -9 37 -40 17 -40 -5 0 -11 -9 -14 -20 -5 -20
-47 -29 -47 -10 0 6 -4 10 -10 10 -5 0 -10 -7 -10 -15 0 -8 -4 -15 -9 -15 -5
0 -11 -6 -14 -12 -2 -7 -3 -4 -1 7 2 11 4 39 4 63 0 40 2 42 29 42 16 0 41 -4
55 -10z m1432 -11 c10 -17 -13 -36 -27 -22 -12 12 -4 33 11 33 5 0 12 -5 16
-11z m-2236 -69 c0 -5 -4 -10 -10 -10 -5 0 -10 5 -10 10 0 6 5 10 10 10 6 0
10 -4 10 -10z m338 -33 c2 -12 -3 -17 -17 -17 -12 0 -21 6 -21 13 0 31 32 34
38 4z m2196 1 c14 -23 -3 -52 -33 -56 -42 -6 -67 38 -39 66 17 17 58 11 72
-10z m-2774 8 c0 -3 -4 -8 -10 -11 -5 -3 -10 -1 -10 4 0 6 5 11 10 11 6 0 10
-2 10 -4z m3140 -27 c0 -23 -28 -26 -37 -3 -6 16 15 37 29 28 4 -3 8 -14 8
-25z m-3520 -84 c0 -8 -7 -15 -15 -15 -8 0 -15 7 -15 15 0 8 7 15 15 15 8 0
15 -7 15 -15z m3346 -6 c10 -17 -13 -36 -27 -22 -12 12 -4 33 11 33 5 0 12 -5
16 -11z m-2877 -9 c40 -21 31 -80 -12 -80 -44 0 -62 43 -31 74 18 19 20 19 43
6z m-559 -20 c0 -5 -2 -10 -4 -10 -3 0 -8 5 -11 10 -3 6 -1 10 4 10 6 0 11 -4
11 -10z m970 -46 c0 -8 -7 -14 -15 -14 -15 0 -21 21 -9 33 10 9 24 -2 24 -19z
m1048 -21 c-5 -25 -28 -28 -28 -4 0 12 6 21 16 21 9 0 14 -7 12 -17z m-2338
-3 c0 -5 -4 -10 -10 -10 -5 0 -10 5 -10 10 0 6 5 10 10 10 6 0 10 -4 10 -10z
m3640 -10 c0 -5 -5 -10 -11 -10 -5 0 -7 5 -4 10 3 6 8 10 11 10 2 0 4 -4 4
-10z m-3250 -35 c0 -8 -4 -15 -10 -15 -5 0 -10 7 -10 15 0 8 5 15 10 15 6 0
10 -7 10 -15z m2825 5 c3 -5 1 -10 -4 -10 -6 0 -11 5 -11 10 0 6 2 10 4 10 3
0 8 -4 11 -10z m-1097 -24 c4 -21 -14 -37 -35 -29 -14 5 -18 35 -6 47 12 12
38 1 41 -18z m424 2 c-7 -7 -12 -8 -12 -2 0 14 12 26 19 19 2 -3 -1 -11 -7
-17z m908 -139 c0 -11 -4 -17 -10 -14 -5 3 -10 13 -10 21 0 8 5 14 10 14 6 0
10 -9 10 -21z m280 17 c0 -3 -4 -8 -10 -11 -5 -3 -10 -1 -10 4 0 6 5 11 10 11
6 0 10 -2 10 -4z m-2570 -37 c0 -24 -23 -21 -28 4 -2 10 3 17 12 17 10 0 16
-9 16 -21z m330 -33 c0 -3 -4 -8 -10 -11 -5 -3 -10 -1 -10 4 0 6 5 11 10 11 6
0 10 -2 10 -4z m-1055 -36 c3 -5 1 -10 -4 -10 -6 0 -11 5 -11 10 0 6 2 10 4
10 3 0 8 -4 11 -10z m1585 -110 c0 -5 -4 -10 -10 -10 -5 0 -10 5 -10 10 0 6 5
10 10 10 6 0 10 -4 10 -10z m440 0 c0 -5 -4 -10 -10 -10 -5 0 -10 5 -10 10 0
6 5 10 10 10 6 0 10 -4 10 -10z m-2065 -50 c0 -8 -8 -16 -17 -18 -13 -2 -18 3
-18 18 0 15 5 20 18 18 9 -2 17 -10 17 -18z m3080 10 c3 -5 1 -10 -4 -10 -6 0
-11 5 -11 10 0 6 2 10 4 10 3 0 8 -4 11 -10z m-353 -45 c15 -33 -1 -50 -37
-41 -31 8 -42 31 -25 51 19 23 49 18 62 -10z m-762 -25 c0 -5 -4 -10 -10 -10
-5 0 -10 5 -10 10 0 6 5 10 10 10 6 0 10 -4 10 -10z m-1705 -50 c3 -5 1 -10
-4 -10 -6 0 -11 5 -11 10 0 6 2 10 4 10 3 0 8 -4 11 -10z m2675 0 c0 -5 -4
-10 -10 -10 -5 0 -10 5 -10 10 0 6 5 10 10 10 6 0 10 -4 10 -10z m-1392 -38
c4 -28 -24 -40 -45 -19 -14 13 -14 19 -3 32 18 22 44 15 48 -13z m-978 -2 c0
-5 -5 -10 -11 -10 -5 0 -7 5 -4 10 3 6 8 10 11 10 2 0 4 -4 4 -10z m1590 -30
c0 -5 -4 -10 -10 -10 -5 0 -10 5 -10 10 0 6 5 10 10 10 6 0 10 -4 10 -10z
m-1934 -11 c10 -17 -13 -36 -27 -22 -12 12 -4 33 11 33 5 0 12 -5 16 -11z
m424 -59 c0 -5 -5 -10 -11 -10 -5 0 -7 5 -4 10 3 6 8 10 11 10 2 0 4 -4 4 -10z
m285 -29 c3 -5 1 -12 -5 -16 -5 -3 -10 1 -10 9 0 18 6 21 15 7z m-345 -41 c0
-5 -7 -10 -15 -10 -8 0 -15 5 -15 10 0 6 7 10 15 10 8 0 15 -4 15 -10z m470
-60 c0 -5 -2 -10 -4 -10 -3 0 -8 5 -11 10 -3 6 -1 10 4 10 6 0 11 -4 11 -10z
m1850 -15 c0 -8 -7 -15 -15 -15 -8 0 -15 7 -15 15 0 8 7 15 15 15 8 0 15 -7
15 -15z m-2134 -6 c10 -17 -13 -36 -27 -22 -12 12 -4 33 11 33 5 0 12 -5 16
-11z m644 -4 c0 -8 -9 -15 -20 -15 -11 0 -20 7 -20 15 0 8 9 15 20 15 11 0 20
-7 20 -15z m-1130 -21 c0 -17 -26 -19 -36 -3 -7 12 15 31 28 23 4 -3 8 -12 8
-20z m690 -54 c0 -11 -7 -20 -15 -20 -15 0 -21 21 -8 33 12 13 23 7 23 -13z
m1344 -96 c19 -18 20 -28 6 -55 -19 -35 -80 -18 -80 22 0 21 26 49 45 49 7 0
21 -7 29 -16z m-1439 -34 c3 -5 1 -10 -4 -10 -6 0 -11 5 -11 10 0 6 2 10 4 10
3 0 8 -4 11 -10z m1679 -18 c8 -13 -11 -35 -23 -28 -16 10 -14 36 3 36 8 0 17
-4 20 -8z m-956 -56 c-2 -13 -10 -21 -23 -21 -23 0 -33 34 -14 45 20 13 40 -1
37 -24z m-1233 -16 c0 -8 -8 -16 -17 -18 -13 -2 -18 3 -18 18 0 15 5 20 18 18
9 -2 17 -10 17 -18z m195 -30 c0 -5 -4 -10 -10 -10 -5 0 -10 5 -10 10 0 6 5
10 10 10 6 0 10 -4 10 -10z m660 -50 c0 -5 -4 -10 -10 -10 -5 0 -10 5 -10 10
0 6 5 10 10 10 6 0 10 -4 10 -10z m1380 -24 c0 -7 -7 -19 -15 -26 -19 -16 -41
1 -32 24 8 20 47 21 47 2z m-394 -27 c10 -17 -23 -46 -38 -31 -8 8 -8 15 2 27
15 18 26 19 36 4z m-361 -40 c11 -17 -1 -21 -15 -4 -8 9 -8 15 -2 15 6 0 14
-5 17 -11z m-955 -29 c0 -5 -4 -10 -10 -10 -5 0 -10 5 -10 10 0 6 5 10 10 10
6 0 10 -4 10 -10z m148 -17 c-5 -26 -38 -29 -38 -4 0 15 6 21 21 21 14 0 19
-5 17 -17z m942 7 c0 -5 -4 -10 -10 -10 -5 0 -10 5 -10 10 0 6 5 10 10 10 6 0
10 -4 10 -10z m-805 -29 c7 -12 -25 -30 -42 -24 -7 3 -13 11 -13 19 0 16 45
20 55 5z m-605 -31 c0 -5 -4 -10 -10 -10 -5 0 -10 5 -10 10 0 6 5 10 10 10 6
0 10 -4 10 -10z m1834 -37 c4 -9 1 -20 -6 -24 -16 -10 -43 15 -34 30 11 16 33
13 40 -6z m-854 -23 c0 -5 -4 -10 -10 -10 -5 0 -10 5 -10 10 0 6 5 10 10 10 6
0 10 -4 10 -10z m-194 -21 c10 -17 -13 -36 -27 -22 -12 12 -4 33 11 33 5 0 12
-5 16 -11z m414 -30 c0 -6 -4 -7 -10 -4 -5 3 -10 11 -10 16 0 6 5 7 10 4 6 -3
10 -11 10 -16z m300 -15 c0 -8 -7 -14 -15 -14 -15 0 -21 21 -9 33 10 9 24 -2
24 -19z m-1010 6 c0 -5 -4 -10 -10 -10 -5 0 -10 5 -10 10 0 6 5 10 10 10 6 0
10 -4 10 -10z m-282 -37 c5 -17 -26 -29 -40 -15 -6 6 -7 15 -3 22 9 14 37 9
43 -7z m1472 -3 c0 -5 -9 -10 -20 -10 -11 0 -20 5 -20 10 0 6 9 10 20 10 11 0
20 -4 20 -10z m-1342 -17 c-2 -10 -10 -18 -18 -18 -8 0 -16 8 -18 18 -2 12 3
17 18 17 15 0 20 -5 18 -17z m277 -2 c3 -5 1 -12 -5 -16 -5 -3 -10 1 -10 9 0
18 6 21 15 7z m-25 -31 c0 -5 -4 -10 -10 -10 -5 0 -10 5 -10 10 0 6 5 10 10
10 6 0 10 -4 10 -10z m95 -20 c3 -5 1 -10 -4 -10 -6 0 -11 5 -11 10 0 6 2 10
4 10 3 0 8 -4 11 -10z m-415 -40 c0 -5 -4 -10 -10 -10 -5 0 -10 5 -10 10 0 6
5 10 10 10 6 0 10 -4 10 -10z m565 -30 c0 -8 -8 -16 -17 -18 -13 -2 -18 3 -18
18 0 15 5 20 18 18 9 -2 17 -10 17 -18z m185 10 c0 -5 -4 -10 -10 -10 -5 0
-10 5 -10 10 0 6 5 10 10 10 6 0 10 -4 10 -10z m260 -21 c0 -5 -4 -9 -10 -9
-5 0 -10 7 -10 16 0 8 5 12 10 9 6 -3 10 -10 10 -16z m-828 -81 c-7 -7 -12 -8
-12 -2 0 6 3 14 7 17 3 4 9 5 12 2 2 -3 -1 -11 -7 -17z m904 -49 c10 -17 -13
-36 -27 -22 -12 12 -4 33 11 33 5 0 12 -5 16 -11z m-1046 -19 c0 -11 -7 -20
-15 -20 -8 0 -15 9 -15 20 0 11 7 20 15 20 8 0 15 -9 15 -20z m590 10 c0 -5
-4 -10 -10 -10 -5 0 -10 5 -10 10 0 6 5 10 10 10 6 0 10 -4 10 -10z m645 -40
c10 -16 -16 -43 -28 -31 -11 11 -2 41 12 41 5 0 13 -5 16 -10z m-955 -10 c0
-5 -2 -10 -4 -10 -3 0 -8 5 -11 10 -3 6 -1 10 4 10 6 0 11 -4 11 -10z m243
-12 c7 -21 -4 -38 -23 -38 -23 0 -34 16 -26 35 7 18 43 20 49 3z m-306 -64
c-9 -9 -28 6 -21 18 4 6 10 6 17 -1 6 -6 8 -13 4 -17z m353 -74 c0 -11 -7 -20
-15 -20 -15 0 -21 21 -8 33 12 13 23 7 23 -13z m-370 -144 c0 -11 -19 -15 -25
-6 -3 5 1 10 9 10 9 0 16 -2 16 -4z m150 -42 c0 -14 -21 -19 -33 -7 -9 9 13
34 24 27 5 -3 9 -12 9 -20z m300 2 c0 -3 -4 -8 -10 -11 -5 -3 -10 -1 -10 4 0
6 5 11 10 11 6 0 10 -2 10 -4z m-160 -31 c0 -9 -7 -18 -16 -22 -18 -7 -39 11
-30 26 11 17 46 13 46 -4z m450 -45 c0 -5 -4 -10 -10 -10 -5 0 -10 5 -10 10 0
6 5 10 10 10 6 0 10 -4 10 -10z m-364 -167 c-10 -10 -19 5 -10 18 6 11 8 11
12 0 2 -7 1 -15 -2 -18z m194 -193 c0 -5 -4 -10 -10 -10 -5 0 -10 5 -10 10 0
6 5 10 10 10 6 0 10 -4 10 -10z m-280 -105 c0 -8 -9 -15 -20 -15 -11 0 -20 7
-20 15 0 8 9 15 20 15 11 0 20 -7 20 -15z m140 -105 c0 -5 -4 -10 -10 -10 -5
0 -10 5 -10 10 0 6 5 10 10 10 6 0 10 -4 10 -10z m80 -140 c0 -5 -4 -10 -10
-10 -5 0 -10 5 -10 10 0 6 5 10 10 10 6 0 10 -4 10 -10z m-70 -106 c0 -8 -7
-14 -15 -14 -15 0 -21 21 -9 33 10 9 24 -2 24 -19z"/>
<path d="M5853 7300 c-12 -28 -8 -39 8 -23 6 6 9 19 6 29 -3 17 -5 16 -14 -6z"/>
<path d="M5270 7286 c0 -15 18 -31 26 -23 7 7 -7 37 -17 37 -5 0 -9 -6 -9 -14z"/>
<path d="M5225 7280 c4 -6 -5 -10 -19 -10 -19 0 -26 -5 -26 -20 0 -14 7 -20
21 -20 12 0 23 8 26 20 3 11 10 20 15 20 5 0 6 5 3 10 -3 6 -11 10 -16 10 -6
0 -7 -4 -4 -10z"/>
<path d="M5337 7283 c-12 -12 -7 -22 8 -17 8 4 15 10 15 15 0 11 -14 12 -23 2z"/>
<path d="M5750 7280 c0 -5 5 -10 11 -10 5 0 7 5 4 10 -3 6 -8 10 -11 10 -2 0
-4 -4 -4 -10z"/>
<path d="M5928 7273 c7 -3 16 -2 19 1 4 3 -2 6 -13 5 -11 0 -14 -3 -6 -6z"/>
<path d="M5820 7235 c0 -8 4 -15 10 -15 5 0 7 7 4 15 -4 8 -8 15 -10 15 -2 0
-4 -7 -4 -15z"/>
<path d="M6110 7234 c0 -8 5 -12 10 -9 6 3 10 10 10 16 0 5 -4 9 -10 9 -5 0
-10 -7 -10 -16z"/>
<path d="M5720 7228 c0 -4 7 -8 15 -8 8 0 15 4 15 8 0 5 -7 9 -15 9 -8 0 -15
-4 -15 -9z"/>
<path d="M5100 7219 c0 -5 5 -7 10 -4 6 3 10 8 10 11 0 2 -4 4 -10 4 -5 0 -10
-5 -10 -11z"/>
<path d="M6052 7214 c4 -21 22 -23 26 -1 2 10 -3 17 -13 17 -10 0 -15 -6 -13
-16z"/>
<path d="M5890 7050 c-8 -5 -12 -12 -8 -15 10 -10 49 5 43 16 -8 11 -16 11
-35 -1z"/>
<path d="M4980 7083 c0 -26 1 -26 15 -7 19 25 19 34 0 34 -10 0 -15 -10 -15
-27z"/>
<path d="M5045 6960 c-3 -5 -1 -10 4 -10 6 0 11 5 11 10 0 6 -2 10 -4 10 -3 0
-8 -4 -11 -10z"/>
<path d="M4360 6950 c-13 -8 -12 -10 3 -10 9 0 17 5 17 10 0 12 -1 12 -20 0z"/>
<path d="M5265 6938 c9 -30 21 -42 34 -34 14 9 -8 56 -26 56 -10 0 -12 -7 -8
-22z"/>
<path d="M4400 6940 c0 -5 11 -10 25 -10 14 0 25 5 25 10 0 6 -11 10 -25 10
-14 0 -25 -4 -25 -10z"/>
<path d="M4460 6930 c0 -5 5 -10 10 -10 6 0 10 5 10 10 0 6 -4 10 -10 10 -5 0
-10 -4 -10 -10z"/>
<path d="M5015 6930 c3 -5 10 -10 16 -10 5 0 9 5 9 10 0 6 -7 10 -16 10 -8 0
-12 -4 -9 -10z"/>
<path d="M5082 6909 c18 -7 33 -7 45 0 14 8 9 10 -27 10 -42 -1 -43 -1 -18
-10z"/>
<path d="M5225 6910 c-3 -5 -1 -10 4 -10 6 0 11 5 11 10 0 6 -2 10 -4 10 -3 0
-8 -4 -11 -10z"/>
<path d="M5175 6890 c-3 -5 1 -10 9 -10 9 0 16 5 16 10 0 6 -4 10 -9 10 -6 0
-13 -4 -16 -10z"/>
<path d="M4240 6711 c0 -5 9 -11 20 -14 24 -6 27 8 4 17 -21 8 -24 8 -24 -3z"/>
<path d="M4258 6673 c7 -3 16 -2 19 1 4 3 -2 6 -13 5 -11 0 -14 -3 -6 -6z"/>
<path d="M4230 6625 c0 -8 5 -15 10 -15 6 0 10 7 10 15 0 8 -4 15 -10 15 -5 0
-10 -7 -10 -15z"/>
<path d="M5190 6600 c0 -5 5 -10 11 -10 5 0 7 5 4 10 -3 6 -8 10 -11 10 -2 0
-4 -4 -4 -10z"/>
<path d="M5234 6577 c5 -15 2 -17 -17 -11 -21 6 -21 6 -4 -12 10 -11 24 -28
32 -39 13 -18 14 -18 15 -2 0 9 -5 17 -11 17 -6 0 -9 9 -6 19 2 10 0 25 -5 32
-7 11 -8 10 -4 -4z"/>
<path d="M5285 6560 c3 -5 8 -10 11 -10 2 0 4 5 4 10 0 6 -5 10 -11 10 -5 0
-7 -4 -4 -10z"/>
<path d="M5330 6550 c0 -15 26 -23 46 -16 20 8 17 11 -18 20 -17 4 -28 2 -28
-4z"/>
<path d="M1928 7323 c7 -3 16 -2 19 1 4 3 -2 6 -13 5 -11 0 -14 -3 -6 -6z"/>
<path d="M1770 7304 c0 -9 32 -33 44 -34 5 0 1 9 -9 20 -18 20 -35 26 -35 14z"/>
<path d="M2000 7301 c0 -11 31 -24 39 -16 3 3 -1 10 -9 15 -19 12 -30 12 -30
1z"/>
<path d="M2160 7280 c0 -5 5 -10 11 -10 5 0 7 5 4 10 -3 6 -8 10 -11 10 -2 0
-4 -4 -4 -10z"/>
<path d="M2034 7244 c3 -8 6 -18 6 -20 0 -2 5 -4 10 -4 16 0 11 27 -6 34 -12
5 -15 2 -10 -10z"/>
<path d="M1956 7241 c-8 -12 14 -28 37 -28 23 0 22 14 -2 27 -24 12 -28 12
-35 1z"/>
<path d="M2177 7230 c3 -13 14 -20 29 -20 26 0 30 10 12 28 -20 20 -47 15 -41
-8z"/>
<path d="M2108 7233 c12 -2 30 -2 40 0 9 3 -1 5 -23 4 -22 0 -30 -2 -17 -4z"/>
<path d="M1835 7220 c3 -5 11 -10 16 -10 6 0 7 5 4 10 -3 6 -11 10 -16 10 -6
0 -7 -4 -4 -10z"/>
<path d="M1898 7173 c-3 -26 -6 -28 -42 -25 -41 4 -47 -11 -13 -32 13 -8 20
-7 27 4 8 12 13 13 30 3 26 -17 27 -17 33 7 5 20 -12 70 -25 70 -4 0 -8 -12
-10 -27z"/>
<path d="M1958 7173 c12 -21 21 -193 21 -400 l1 -133 55 0 c31 0 72 8 93 17
l37 17 -40 6 -40 6 50 8 c92 14 105 28 105 122 0 29 3 34 24 34 32 0 44 20 17
27 -17 4 -20 10 -14 32 8 36 9 36 38 7 30 -30 40 -32 49 -10 9 24 -3 36 -32
32 -22 -2 -28 2 -30 20 -2 14 -10 22 -23 22 -14 0 -19 7 -19 25 0 18 5 25 20
25 11 0 20 5 20 11 0 6 -6 9 -14 6 -14 -6 -36 10 -36 26 0 5 11 7 25 5 14 -3
25 -1 25 3 0 5 -6 9 -13 9 -9 0 -12 11 -9 35 3 27 1 35 -12 35 -16 0 -20 -10
-17 -42 3 -26 -8 -22 -19 7 -14 36 -60 52 -174 61 -95 7 -98 6 -88 -13z m232
-223 c0 -5 -4 -10 -10 -10 -5 0 -10 5 -10 10 0 6 5 10 10 10 6 0 10 -4 10 -10z"/>
<path d="M2320 7100 c0 -5 5 -10 10 -10 6 0 10 5 10 10 0 6 -4 10 -10 10 -5 0
-10 -4 -10 -10z"/>
<path d="M1880 7041 c0 -11 31 -24 39 -16 3 3 -1 10 -9 15 -19 12 -30 12 -30
1z"/>
<path d="M2297 6994 c3 -8 12 -14 20 -14 8 0 22 -9 31 -21 11 -13 23 -18 35
-14 36 14 14 40 -45 52 -38 8 -45 8 -41 -3z"/>
<path d="M1935 6990 c3 -5 8 -10 11 -10 2 0 4 5 4 10 0 6 -5 10 -11 10 -5 0
-7 -4 -4 -10z"/>
<path d="M1815 6870 c-3 -5 1 -10 9 -10 9 0 16 5 16 10 0 6 -4 10 -9 10 -6 0
-13 -4 -16 -10z"/>
<path d="M2400 6790 c0 -5 9 -14 20 -20 16 -8 18 -8 14 4 -6 17 -34 30 -34 16z"/>
<path d="M1890 6669 c0 -11 5 -17 10 -14 6 3 10 13 10 21 0 8 -4 14 -10 14 -5
0 -10 -9 -10 -21z"/>
<path d="M2090 6618 c0 -12 38 -10 45 2 4 6 -5 9 -19 8 -15 -1 -26 -6 -26 -10z"/>
<path d="M2610 7200 c-8 -5 -10 -10 -5 -10 6 0 17 5 25 10 8 5 11 10 5 10 -5
0 -17 -5 -25 -10z"/>
<path d="M2572 7161 c13 -17 29 -30 37 -30 11 -1 9 5 -5 22 -39 45 -68 53 -32
8z"/>
<path d="M2970 7155 c0 -8 4 -15 9 -15 5 0 11 7 15 15 3 9 0 15 -9 15 -8 0
-15 -7 -15 -15z"/>
<path d="M2578 7118 c6 -6 18 -8 28 -6 14 3 12 5 -9 10 -19 3 -25 2 -19 -4z"/>
<path d="M3057 6955 c-4 -8 -2 -17 3 -20 6 -4 10 3 10 14 0 25 -6 27 -13 6z"/>
<path d="M2607 6862 c-14 -3 -16 -7 -6 -18 13 -16 47 -18 69 -4 12 8 12 10 -3
14 -33 11 -42 12 -60 8z"/>
<path d="M2530 6854 c0 -11 29 -34 43 -34 9 0 18 -6 20 -12 3 -8 6 -6 6 4 1
10 -12 24 -29 33 -31 16 -40 18 -40 9z"/>
<path d="M2618 6803 c7 -3 16 -2 19 1 4 3 -2 6 -13 5 -11 0 -14 -3 -6 -6z"/>
<path d="M3009 6685 c-11 -23 -21 -30 -41 -28 -18 1 -29 -5 -37 -23 -8 -19 -8
-24 3 -24 8 0 17 6 19 13 4 9 6 9 6 0 1 -6 -3 -15 -9 -18 -13 -8 -13 -45 1
-45 6 0 17 -7 26 -15 22 -23 27 -11 9 18 -9 13 -15 30 -12 38 17 55 15 53 36
34 21 -19 28 -7 8 13 -8 8 -8 15 1 26 7 9 11 21 9 28 -3 7 -11 0 -19 -17z"/>
<path d="M2680 6690 c0 -5 7 -10 16 -10 8 0 12 5 9 10 -3 6 -10 10 -16 10 -5
0 -9 -4 -9 -10z"/>
<path d="M2650 6650 c0 -5 5 -10 11 -10 5 0 7 5 4 10 -3 6 -8 10 -11 10 -2 0
-4 -4 -4 -10z"/>
<path d="M2820 6605 c0 -10 10 -15 33 -15 l32 0 -29 15 c-35 18 -36 18 -36 0z"/>
<path d="M2610 6585 c-16 -19 0 -19 26 0 16 12 16 14 3 15 -9 0 -22 -7 -29
-15z"/>
<path d="M2716 6581 c-3 -5 1 -14 9 -21 12 -10 15 -10 15 3 0 19 -16 31 -24
18z"/>
<path d="M2787 6562 c-10 -11 -13 -23 -8 -31 10 -16 31 -6 31 15 0 8 8 14 18
14 14 0 15 2 2 10 -21 13 -25 13 -43 -8z"/>
<path d="M2880 6560 c0 -5 7 -7 15 -4 8 4 15 8 15 10 0 2 -7 4 -15 4 -8 0 -15
-4 -15 -10z"/>
<path d="M3370 7299 c0 -5 5 -7 10 -4 6 3 10 8 10 11 0 2 -4 4 -10 4 -5 0 -10
-5 -10 -11z"/>
<path d="M3337 7275 c-4 -8 -2 -17 3 -20 6 -4 10 3 10 14 0 25 -6 27 -13 6z"/>
<path d="M3448 7260 c-7 -24 -3 -38 8 -28 3 4 4 17 2 30 l-3 23 -7 -25z"/>
<path d="M3840 7219 c0 -5 5 -7 10 -4 6 3 10 8 10 11 0 2 -4 4 -10 4 -5 0 -10
-5 -10 -11z"/>
<path d="M3406 7195 c-3 -8 -1 -15 4 -15 13 0 22 18 11 24 -5 3 -11 -1 -15 -9z"/>
<path d="M3265 7170 c-3 -5 -1 -10 4 -10 6 0 11 5 11 10 0 6 -2 10 -4 10 -3 0
-8 -4 -11 -10z"/>
<path d="M3766 7125 c-3 -8 -1 -15 4 -15 6 0 10 7 10 15 0 8 -2 15 -4 15 -2 0
-6 -7 -10 -15z"/>
<path d="M3800 7040 c-24 -15 -8 -17 30 -4 30 11 32 13 10 13 -14 1 -32 -3
-40 -9z"/>
<path d="M3270 7001 c-15 -29 -13 -32 18 -25 41 10 45 15 25 30 -24 18 -30 17
-43 -5z"/>
<path d="M3232 6944 c-11 -12 -9 -14 8 -14 11 0 20 4 20 9 0 17 -15 19 -28 5z"/>
<path d="M3708 6762 c-4 -12 -2 -25 4 -28 15 -10 19 1 10 26 l-9 24 -5 -22z"/>
<path d="M3667 6707 c-6 -47 -3 -55 16 -39 8 7 17 9 20 5 4 -3 7 -1 7 5 0 6
-4 14 -10 17 -5 3 -10 15 -10 25 0 38 -18 28 -23 -13z"/>
<path d="M3230 6646 c0 -9 7 -16 16 -16 9 0 14 5 12 12 -6 18 -28 21 -28 4z"/>
<path d="M3225 6560 c-3 -5 -1 -10 4 -10 6 0 11 5 11 10 0 6 -2 10 -4 10 -3 0
-8 -4 -11 -10z"/>
<path d="M7040 7319 c0 -5 -4 -8 -9 -4 -5 3 -12 1 -16 -5 -3 -5 -19 -10 -35
-10 -23 0 -27 -3 -23 -21 3 -12 11 -18 19 -15 8 3 18 -4 24 -14 16 -30 29 -24
25 10 -3 22 1 33 15 40 21 11 27 30 10 30 -5 0 -10 -5 -10 -11z"/>
<path d="M6894 7286 c-9 -10 -7 -19 7 -37 l19 -24 0 32 c0 36 -10 47 -26 29z"/>
<path d="M7060 7253 c0 -10 4 -14 8 -8 4 6 11 13 16 18 5 4 2 7 -7 7 -10 0
-17 -8 -17 -17z"/>
<path d="M7132 7250 c-12 -10 -28 -20 -34 -22 -9 -3 -9 -13 -1 -39 11 -33 11
-33 12 -6 1 19 8 30 25 37 29 10 42 28 30 40 -5 5 -19 0 -32 -10z"/>
<path d="M7156 7195 c-3 -9 0 -15 8 -15 7 0 19 7 26 15 10 12 9 15 -8 15 -11
0 -22 -7 -26 -15z"/>
<path d="M6840 7060 c0 -5 5 -10 11 -10 5 0 7 5 4 10 -3 6 -8 10 -11 10 -2 0
-4 -4 -4 -10z"/>
<path d="M6810 7030 c-13 -8 -12 -10 3 -10 9 0 17 5 17 10 0 12 -1 12 -20 0z"/>
<path d="M6748 7013 c-10 -2 -18 -9 -18 -14 0 -13 13 -11 36 6 19 14 14 17
-18 8z"/>
<path d="M6820 6924 c0 -8 5 -12 10 -9 6 4 8 11 5 16 -9 14 -15 11 -15 -7z"/>
<path d="M6710 6840 c0 -20 5 -30 15 -30 9 0 18 -7 21 -15 8 -19 44 -20 44 -1
0 8 -4 17 -9 20 -5 4 -8 17 -6 31 2 22 -1 25 -31 25 -31 0 -34 -3 -34 -30z"/>
<path d="M6780 6730 c0 -5 5 -10 11 -10 5 0 7 5 4 10 -3 6 -8 10 -11 10 -2 0
-4 -4 -4 -10z"/>
<path d="M7120 6640 c0 -5 5 -10 11 -10 5 0 7 5 4 10 -3 6 -8 10 -11 10 -2 0
-4 -4 -4 -10z"/>
<path d="M6894 6585 c19 -15 19 -15 -5 -17 -13 0 -34 0 -46 1 -13 1 -23 -3
-23 -10 0 -6 6 -9 14 -6 8 3 22 -3 31 -13 12 -14 27 -18 57 -15 24 2 54 -3 75
-13 33 -16 36 -16 49 3 8 10 14 27 14 37 0 19 8 22 34 12 12 -5 14 -10 6 -19
-13 -16 3 -30 25 -21 21 8 19 22 -7 46 -27 25 -53 26 -70 2 -15 -21 -68 -38
-68 -22 0 5 0 13 0 18 0 9 -58 30 -85 31 -20 0 -20 0 -1 -14z"/>
<path d="M6400 7120 c0 -5 5 -10 11 -10 5 0 7 5 4 10 -3 6 -8 10 -11 10 -2 0
-4 -4 -4 -10z"/>
<path d="M6537 6910 c-3 -11 -1 -23 4 -26 5 -3 9 -1 9 5 0 5 3 16 6 25 3 9 2
16 -4 16 -5 0 -12 -9 -15 -20z"/>
<path d="M6512 6768 c-16 -18 -18 -27 -10 -41 7 -13 7 -22 -1 -30 -15 -15 -14
-27 4 -27 8 0 15 -4 15 -10 0 -5 8 -10 18 -10 14 0 15 2 2 10 -10 6 -11 10 -2
10 17 0 15 47 -2 53 -12 5 -13 13 -6 36 10 37 9 37 -18 9z"/>
<path d="M6558 6733 c7 -3 16 -2 19 1 4 3 -2 6 -13 5 -11 0 -14 -3 -6 -6z"/>
<path d="M6483 6593 c-9 -39 -8 -51 3 -62 19 -20 23 -13 26 48 4 68 -14 76
-29 14z"/>
<path d="M5930 6620 c0 -5 10 -10 23 -10 18 0 19 2 7 10 -19 13 -30 13 -30 0z"/>
<path d="M3025 6210 c3 -5 11 -10 16 -10 6 0 7 5 4 10 -3 6 -11 10 -16 10 -6
0 -7 -4 -4 -10z"/>
<path d="M3032 6143 c9 -2 24 -15 33 -29 13 -20 19 -22 35 -14 24 13 26 30 5
30 -8 0 -15 5 -15 10 0 6 -17 9 -37 9 -21 -1 -30 -3 -21 -6z"/>
<path d="M3110 6040 c-8 -5 -11 -12 -7 -17 5 -4 11 -2 15 4 4 6 16 13 27 16
l20 5 -20 1 c-11 0 -27 -3 -35 -9z"/>
<path d="M4610 6170 c-13 -8 -12 -10 3 -10 9 0 17 5 17 10 0 12 -1 12 -20 0z"/>
<path d="M4155 6050 c3 -5 8 -10 11 -10 2 0 4 5 4 10 0 6 -5 10 -11 10 -5 0
-7 -4 -4 -10z"/>
<path d="M4000 6019 c0 -5 9 -9 20 -9 11 0 20 2 20 4 0 2 -9 6 -20 9 -11 3
-20 1 -20 -4z"/>
<path d="M4515 5960 c3 -5 14 -10 23 -10 15 0 15 2 2 10 -20 13 -33 13 -25 0z"/>
<path d="M4570 5962 c0 -11 22 -32 33 -32 4 0 5 5 2 10 -4 6 8 10 27 11 31 1
32 1 8 9 -34 11 -70 12 -70 2z"/>
<path d="M4110 5941 c0 -6 5 -13 10 -16 6 -3 10 1 10 9 0 9 -4 16 -10 16 -5 0
-10 -4 -10 -9z"/>
<path d="M4347 5874 c-4 -4 -7 -14 -7 -23 0 -11 3 -12 11 -4 6 6 10 16 7 23
-2 6 -7 8 -11 4z"/>
<path d="M4555 5710 c3 -5 8 -10 11 -10 2 0 4 5 4 10 0 6 -5 10 -11 10 -5 0
-7 -4 -4 -10z"/>
<path d="M4480 5689 c0 -5 5 -7 10 -4 6 3 10 8 10 11 0 2 -4 4 -10 4 -5 0 -10
-5 -10 -11z"/>
<path d="M4638 5693 c6 -2 18 -2 25 0 6 3 1 5 -13 5 -14 0 -19 -2 -12 -5z"/>
<path d="M4568 5683 c-32 -5 -61 -33 -34 -33 20 0 86 27 86 34 0 6 -6 6 -52
-1z"/>
<path d="M4480 5615 c0 -8 5 -15 10 -15 6 0 10 7 10 15 0 8 -4 15 -10 15 -5 0
-10 -7 -10 -15z"/>
<path d="M4537 5613 c-18 -17 -5 -33 26 -32 17 0 25 3 17 6 -8 3 -20 11 -26
19 -6 8 -14 11 -17 7z"/>
<path d="M4590 5607 c27 -15 36 -14 25 2 -3 6 -16 11 -28 11 -21 0 -21 -1 3
-13z"/>
<path d="M5090 6234 c0 -8 5 -12 10 -9 6 3 10 10 10 16 0 5 -4 9 -10 9 -5 0
-10 -7 -10 -16z"/>
<path d="M4960 5880 c0 -5 7 -7 15 -4 8 4 15 8 15 10 0 2 -7 4 -15 4 -8 0 -15
-4 -15 -10z"/>
<path d="M5010 5880 c0 -5 12 -10 26 -10 14 0 23 4 19 10 -3 6 -15 10 -26 10
-10 0 -19 -4 -19 -10z"/>
<path d="M5070 5870 c0 -5 5 -10 10 -10 6 0 10 5 10 10 0 6 -4 10 -10 10 -5 0
-10 -4 -10 -10z"/>
<path d="M4990 5840 c0 -5 5 -10 11 -10 5 0 7 5 4 10 -3 6 -8 10 -11 10 -2 0
-4 -4 -4 -10z"/>
<path d="M4847 5654 c-10 -11 3 -24 24 -24 23 0 25 15 3 24 -19 7 -19 7 -27 0z"/>
<path d="M4842 5565 c0 -16 2 -22 5 -12 2 9 2 23 0 30 -3 6 -5 -1 -5 -18z"/>
<path d="M5870 6227 c0 -12 -8 -17 -26 -17 -19 0 -25 -5 -22 -17 5 -24 37 -29
45 -6 4 10 11 21 17 25 8 5 7 11 -2 20 -9 9 -12 9 -12 -5z"/>
<path d="M5912 6228 c2 -6 10 -14 16 -16 7 -2 10 2 6 12 -7 18 -28 22 -22 4z"/>
<path d="M5967 6224 c-4 -4 -4 -10 -1 -15 6 -10 34 0 34 12 0 10 -24 12 -33 3z"/>
<path d="M5954 6179 c-10 -17 13 -36 27 -22 12 12 4 33 -11 33 -5 0 -12 -5
-16 -11z"/>
<path d="M5735 6160 c-3 -5 -1 -10 4 -10 6 0 11 5 11 10 0 6 -2 10 -4 10 -3 0
-8 -4 -11 -10z"/>
<path d="M3358 6133 c7 -3 16 -2 19 1 4 3 -2 6 -13 5 -11 0 -14 -3 -6 -6z"/>
<path d="M3321 6108 c8 -7 21 -22 29 -32 14 -18 13 -18 -9 -11 -16 5 -21 4
-17 -4 4 -6 18 -11 31 -11 18 0 22 4 18 20 -3 11 -9 20 -14 20 -5 0 -9 7 -9
15 0 9 -9 15 -22 15 -19 0 -20 -2 -7 -12z"/>
<path d="M3820 5889 c0 -11 5 -17 10 -14 6 3 10 13 10 21 0 8 -4 14 -10 14 -5
0 -10 -9 -10 -21z"/>
<path d="M3362 5793 c-6 -2 -10 -9 -6 -14 7 -12 84 -12 84 0 0 17 -48 26 -78
14z"/>
<path d="M3370 5740 c0 -5 7 -10 16 -10 8 0 12 5 9 10 -3 6 -10 10 -16 10 -5
0 -9 -4 -9 -10z"/>
<path d="M3440 5620 c0 -5 7 -10 16 -10 8 0 12 5 9 10 -3 6 -10 10 -16 10 -5
0 -9 -4 -9 -10z"/>
<path d="M3582 5538 c3 -7 18 -14 34 -15 16 -1 21 1 12 3 -10 3 -18 10 -18 15
0 5 -7 9 -16 9 -9 0 -14 -6 -12 -12z"/>
<path d="M3375 5519 c-11 -17 -2 -18 19 -3 17 12 17 14 4 14 -9 0 -20 -5 -23
-11z"/>
<path d="M3470 5511 c0 -5 7 -11 15 -15 9 -3 15 0 15 9 0 8 -7 15 -15 15 -8 0
-15 -4 -15 -9z"/>
<path d="M3553 5498 c-12 -15 -13 -48 -2 -48 4 0 11 9 14 20 3 11 14 20 23 20
15 0 15 2 2 10 -20 13 -26 12 -37 -2z"/>
<path d="M3640 5491 c0 -5 9 -7 20 -4 11 3 20 7 20 9 0 2 -9 4 -20 4 -11 0
-20 -4 -20 -9z"/>
<path d="M5613 6035 c-8 -23 4 -30 22 -12 19 20 19 27 0 27 -9 0 -18 -7 -22
-15z"/>
<path d="M5680 5894 c0 -8 5 -12 10 -9 6 3 10 10 10 16 0 5 -4 9 -10 9 -5 0
-10 -7 -10 -16z"/>
<path d="M5900 5890 c0 -5 4 -10 10 -10 5 0 7 -7 4 -15 -4 -9 1 -18 10 -21 24
-9 28 -1 13 29 -12 26 -37 37 -37 17z"/>
<path d="M5660 5870 c0 -5 5 -10 11 -10 5 0 7 5 4 10 -3 6 -8 10 -11 10 -2 0
-4 -4 -4 -10z"/>
<path d="M5865 5850 c-3 -5 -1 -10 4 -10 6 0 11 5 11 10 0 6 -2 10 -4 10 -3 0
-8 -4 -11 -10z"/>
<path d="M5815 5830 c-3 -5 1 -10 9 -10 9 0 16 5 16 10 0 6 -4 10 -9 10 -6 0
-13 -4 -16 -10z"/>
<path d="M5876 5506 c6 -15 3 -17 -15 -11 -20 6 -20 5 4 -19 14 -14 25 -30 25
-36 0 -6 4 -9 9 -6 9 6 -8 69 -23 83 -4 4 -4 -1 0 -11z"/>
<path d="M5920 5500 c0 -5 5 -10 11 -10 5 0 7 5 4 10 -3 6 -8 10 -11 10 -2 0
-4 -4 -4 -10z"/>
<path d="M5970 5484 c0 -18 17 -26 40 -19 25 8 18 21 -15 27 -16 4 -25 1 -25
-8z"/>
<path d="M3110 5690 c0 -5 5 -10 10 -10 6 0 10 5 10 10 0 6 -4 10 -10 10 -5 0
-10 -4 -10 -10z"/>
<path d="M3045 5560 c3 -5 10 -10 16 -10 5 0 9 5 9 10 0 6 -7 10 -16 10 -8 0
-12 -4 -9 -10z"/>
<path d="M3016 5543 c-3 -3 -3 -10 0 -14 7 -12 44 -12 44 0 0 10 -36 21 -44
14z"/>
<path d="M2765 5510 c-3 -5 -1 -10 4 -10 6 0 11 5 11 10 0 6 -2 10 -4 10 -3 0
-8 -4 -11 -10z"/>
<path d="M2825 5485 c17 -7 34 -10 40 -7 5 3 -1 9 -15 13 -42 12 -57 8 -25 -6z"/>
<path d="M4750 5161 c0 -5 7 -11 15 -15 9 -3 15 0 15 9 0 8 -7 15 -15 15 -8 0
-15 -4 -15 -9z"/>
<path d="M4830 5136 c-6 -9 -10 -21 -7 -28 4 -9 6 -7 6 4 1 9 7 18 14 21 6 2
9 7 6 11 -3 4 -12 0 -19 -8z"/>
<path d="M4634 4949 c-3 -6 0 -15 7 -20 22 -14 28 -11 22 11 -6 22 -18 26 -29
9z"/>
<path d="M4820 4794 c0 -8 5 -12 10 -9 6 4 8 11 5 16 -9 14 -15 11 -15 -7z"/>
<path d="M4417 4789 c7 -7 15 -10 18 -7 3 3 -2 9 -12 12 -14 6 -15 5 -6 -5z"/>
<path d="M4500 4790 c0 -5 5 -10 10 -10 6 0 10 5 10 10 0 6 -4 10 -10 10 -5 0
-10 -4 -10 -10z"/>
<path d="M4120 4795 c0 -8 4 -15 10 -15 5 0 7 7 4 15 -4 8 -8 15 -10 15 -2 0
-4 -7 -4 -15z"/>
<path d="M4207 4803 c-4 -3 -7 -11 -7 -17 0 -6 5 -5 12 2 6 6 9 14 7 17 -3 3
-9 2 -12 -2z"/>
<path d="M4165 4790 c-3 -5 1 -10 9 -10 9 0 16 5 16 10 0 6 -4 10 -9 10 -6 0
-13 -4 -16 -10z"/>
<path d="M525 8010 c3 -5 8 -10 11 -10 2 0 4 5 4 10 0 6 -5 10 -11 10 -5 0 -7
-4 -4 -10z"/>
<path d="M400 7995 c0 -8 5 -15 10 -15 6 0 10 7 10 15 0 8 -4 15 -10 15 -5 0
-10 -7 -10 -15z"/>
<path d="M440 7956 c0 -16 28 -42 36 -33 8 7 -14 47 -26 47 -6 0 -10 -6 -10
-14z"/>
<path d="M490 7955 c0 -8 5 -15 10 -15 6 0 10 7 10 15 0 8 -4 15 -10 15 -5 0
-10 -7 -10 -15z"/>
<path d="M395 7940 c3 -5 10 -10 16 -10 5 0 9 5 9 10 0 6 -7 10 -16 10 -8 0
-12 -4 -9 -10z"/>
<path d="M510 7910 c0 -5 7 -10 16 -10 8 0 12 5 9 10 -3 6 -10 10 -16 10 -5 0
-9 -4 -9 -10z"/>
<path d="M500 7860 c0 -5 5 -10 10 -10 6 0 10 5 10 10 0 6 -4 10 -10 10 -5 0
-10 -4 -10 -10z"/>
<path d="M460 7850 c0 -5 5 -10 10 -10 6 0 10 5 10 10 0 6 -4 10 -10 10 -5 0
-10 -4 -10 -10z"/>
<path d="M565 7810 c3 -5 8 -10 11 -10 2 0 4 5 4 10 0 6 -5 10 -11 10 -5 0 -7
-4 -4 -10z"/>
<path d="M8350 7530 c0 -5 5 -10 10 -10 6 0 10 5 10 10 0 6 -4 10 -10 10 -5 0
-10 -4 -10 -10z"/>
<path d="M8280 7470 c0 -5 5 -10 10 -10 6 0 10 5 10 10 0 6 -4 10 -10 10 -5 0
-10 -4 -10 -10z"/>
<path d="M8200 7421 c0 -6 5 -13 10 -16 6 -3 10 1 10 9 0 9 -4 16 -10 16 -5 0
-10 -4 -10 -9z"/>
<path d="M8245 7360 c3 -5 10 -10 16 -10 5 0 9 5 9 10 0 6 -7 10 -16 10 -8 0
-12 -4 -9 -10z"/>
<path d="M8166 7332 c-3 -6 -1 -14 5 -17 15 -10 25 3 12 16 -7 7 -13 7 -17 1z"/>
<path d="M852 7291 c2 -7 7 -12 11 -12 12 1 9 15 -3 20 -7 2 -11 -2 -8 -8z"/>
<path d="M8190 7270 c0 -5 5 -10 10 -10 6 0 10 5 10 10 0 6 -4 10 -10 10 -5 0
-10 -4 -10 -10z"/>
<path d="M8130 7260 c0 -5 7 -10 16 -10 8 0 12 5 9 10 -3 6 -10 10 -16 10 -5
0 -9 -4 -9 -10z"/>
<path d="M890 7210 c0 -5 5 -10 10 -10 6 0 10 5 10 10 0 6 -4 10 -10 10 -5 0
-10 -4 -10 -10z"/>
<path d="M8100 7205 c0 -8 5 -15 10 -15 6 0 10 7 10 15 0 8 -4 15 -10 15 -5 0
-10 -7 -10 -15z"/>
<path d="M8130 7190 c0 -5 7 -10 15 -10 8 0 15 5 15 10 0 6 -7 10 -15 10 -8 0
-15 -4 -15 -10z"/>
<path d="M8030 7159 c0 -5 5 -7 10 -4 6 3 10 8 10 11 0 2 -4 4 -10 4 -5 0 -10
-5 -10 -11z"/>
<path d="M8110 7160 c0 -5 5 -10 10 -10 6 0 10 5 10 10 0 6 -4 10 -10 10 -5 0
-10 -4 -10 -10z"/>
<path d="M8045 7120 c-3 -5 1 -10 10 -10 9 0 13 5 10 10 -3 6 -8 10 -10 10 -2
0 -7 -4 -10 -10z"/>
<path d="M8090 7120 c0 -5 5 -10 11 -10 5 0 7 5 4 10 -3 6 -8 10 -11 10 -2 0
-4 -4 -4 -10z"/>
<path d="M7970 7094 c0 -8 5 -12 10 -9 6 4 8 11 5 16 -9 14 -15 11 -15 -7z"/>
<path d="M8066 7081 c-4 -5 -2 -12 3 -15 5 -4 12 -2 15 3 4 5 2 12 -3 15 -5 4
-12 2 -15 -3z"/>
<path d="M990 7069 c0 -5 5 -7 10 -4 6 3 10 8 10 11 0 2 -4 4 -10 4 -5 0 -10
-5 -10 -11z"/>
<path d="M7915 7039 c-4 -11 -4 -23 -1 -27 8 -7 36 30 30 40 -9 14 -23 8 -29
-13z"/>
<path d="M8025 7030 c-3 -5 -1 -10 4 -10 6 0 11 5 11 10 0 6 -2 10 -4 10 -3 0
-8 -4 -11 -10z"/>
<path d="M7955 7019 c-10 -15 3 -25 16 -12 7 7 7 13 1 17 -6 3 -14 1 -17 -5z"/>
<path d="M7850 7000 c0 -5 5 -10 10 -10 6 0 10 5 10 10 0 6 -4 10 -10 10 -5 0
-10 -4 -10 -10z"/>
<path d="M7990 6990 c0 -5 5 -10 11 -10 5 0 7 5 4 10 -3 6 -8 10 -11 10 -2 0
-4 -4 -4 -10z"/>
<path d="M7880 6961 c-6 -13 -6 -22 -1 -26 9 -5 31 24 31 39 0 14 -20 4 -30
-13z"/>
<path d="M7922 6938 c-6 -6 -12 -19 -12 -27 0 -13 2 -13 16 1 9 9 15 21 13 27
-3 9 -8 8 -17 -1z"/>
<path d="M7806 6915 c-19 -30 -20 -35 -3 -35 16 0 40 47 28 55 -5 2 -16 -6
-25 -20z"/>
<path d="M7976 6931 c-4 -5 -2 -12 3 -15 5 -4 12 -2 15 3 4 5 2 12 -3 15 -5 4
-12 2 -15 -3z"/>
<path d="M7860 6880 c0 -5 5 -10 11 -10 5 0 7 5 4 10 -3 6 -8 10 -11 10 -2 0
-4 -4 -4 -10z"/>
<path d="M7935 6870 c-3 -5 -1 -10 4 -10 6 0 11 5 11 10 0 6 -2 10 -4 10 -3 0
-8 -4 -11 -10z"/>
<path d="M7876 6838 c-17 -24 -21 -48 -8 -48 4 0 15 13 25 29 21 35 6 52 -17
19z"/>
<path d="M7820 6835 c0 -8 4 -15 9 -15 5 0 11 7 15 15 3 9 0 15 -9 15 -8 0
-15 -7 -15 -15z"/>
<path d="M7892 6795 c-15 -33 2 -41 22 -10 19 30 20 35 3 35 -8 0 -19 -11 -25
-25z"/>
<path d="M7750 6791 c-6 -13 -6 -22 -1 -26 9 -5 31 24 31 39 0 14 -20 4 -30
-13z"/>
<path d="M7810 6775 c0 -8 5 -15 10 -15 6 0 10 7 10 15 0 8 -4 15 -10 15 -5 0
-10 -7 -10 -15z"/>
<path d="M7770 6729 c0 -5 5 -7 10 -4 6 3 10 8 10 11 0 2 -4 4 -10 4 -5 0 -10
-5 -10 -11z"/>
<path d="M7835 6730 c-3 -5 -1 -10 4 -10 6 0 11 5 11 10 0 6 -2 10 -4 10 -3 0
-8 -4 -11 -10z"/>
<path d="M7705 6710 c3 -5 8 -10 11 -10 2 0 4 5 4 10 0 6 -5 10 -11 10 -5 0
-7 -4 -4 -10z"/>
<path d="M7801 6702 c-13 -25 2 -38 19 -16 9 10 10 18 3 25 -8 8 -14 5 -22 -9z"/>
<path d="M7732 6678 c-14 -14 -16 -38 -2 -38 13 0 32 38 22 44 -5 3 -14 0 -20
-6z"/>
<path d="M7820 6669 c-7 -11 -9 -23 -6 -26 8 -9 36 17 36 33 0 21 -18 17 -30
-7z"/>
<path d="M7675 6660 c-3 -5 -1 -10 4 -10 6 0 11 5 11 10 0 6 -2 10 -4 10 -3 0
-8 -4 -11 -10z"/>
<path d="M7760 6611 c0 -11 31 -24 39 -16 3 3 -1 10 -9 15 -19 12 -30 12 -30
1z"/>
<path d="M1120 6594 c0 -12 41 -74 49 -74 4 0 7 16 8 36 1 26 -2 34 -13 30 -8
-3 -14 -1 -14 4 0 6 -7 10 -15 10 -8 0 -15 -3 -15 -6z"/>
<path d="M7665 6579 c-10 -15 3 -25 16 -12 7 7 7 13 1 17 -6 3 -14 1 -17 -5z"/>
<path d="M7680 6531 c-6 -13 -6 -22 -1 -26 9 -5 31 24 31 39 0 14 -20 4 -30
-13z"/>
<path d="M7730 6535 c-7 -9 -10 -18 -7 -22 8 -7 37 15 37 28 0 14 -16 11 -30
-6z"/>
<path d="M7613 6505 c-3 -9 -3 -18 0 -21 9 -9 27 6 27 22 0 19 -19 18 -27 -1z"/>
<path d="M7675 6440 c3 -5 8 -10 11 -10 2 0 4 5 4 10 0 6 -5 10 -11 10 -5 0
-7 -4 -4 -10z"/>
<path d="M7596 6402 c-18 -36 -19 -42 -7 -42 16 0 44 51 33 62 -7 7 -15 0 -26
-20z"/>
<path d="M7526 6398 c-21 -30 -7 -47 16 -19 10 13 18 27 18 32 0 16 -19 9 -34
-13z"/>
<path d="M7640 6385 c-7 -14 -10 -28 -7 -32 8 -8 36 26 37 45 0 20 -16 14 -30
-13z"/>
<path d="M7596 6311 c-4 -5 -2 -12 3 -15 5 -4 12 -2 15 3 4 5 2 12 -3 15 -5 4
-12 2 -15 -3z"/>
<path d="M7451 6262 c-24 -46 -25 -52 -12 -52 17 0 54 71 43 82 -7 7 -17 -2
-31 -30z"/>
<path d="M7520 6280 c0 -5 5 -10 10 -10 6 0 10 5 10 10 0 6 -4 10 -10 10 -5 0
-10 -4 -10 -10z"/>
<path d="M7551 6246 c-23 -36 -27 -56 -11 -56 14 0 52 78 41 85 -5 3 -19 -10
-30 -29z"/>
<path d="M1580 6187 c0 -19 27 -53 36 -45 9 10 -12 58 -26 58 -5 0 -10 -6 -10
-13z"/>
<path d="M7540 6170 c0 -5 5 -10 10 -10 6 0 10 5 10 10 0 6 -4 10 -10 10 -5 0
-10 -4 -10 -10z"/>
<path d="M7427 6138 c-22 -38 -7 -61 17 -27 17 24 22 59 9 59 -5 0 -16 -14
-26 -32z"/>
<path d="M7472 6115 c-6 -14 -7 -27 -2 -30 11 -7 41 35 34 47 -9 14 -20 9 -32
-17z"/>
<path d="M7420 6040 c0 -5 4 -10 9 -10 6 0 13 5 16 10 3 6 -1 10 -9 10 -9 0
-16 -4 -16 -10z"/>
<path d="M7340 6010 c0 -5 5 -10 10 -10 6 0 10 5 10 10 0 6 -4 10 -10 10 -5 0
-10 -4 -10 -10z"/>
<path d="M7412 5980 c-15 -24 -15 -30 -1 -30 12 0 38 29 39 43 0 15 -26 6 -38
-13z"/>
<path d="M7287 5926 c-3 -8 -3 -17 0 -20 7 -7 33 13 33 25 0 15 -27 10 -33 -5z"/>
<path d="M7332 5858 c-33 -48 -39 -68 -22 -68 13 0 63 87 58 102 -3 7 -19 -9
-36 -34z"/>
<path d="M7257 5831 c-18 -31 -22 -51 -9 -51 9 0 42 54 42 69 0 20 -15 11 -33
-18z"/>
<path d="M7188 5801 c-10 -13 -15 -28 -11 -34 9 -14 35 18 31 39 -3 17 -5 17
-20 -5z"/>
<path d="M7266 5734 c-4 -9 -4 -19 -2 -21 8 -8 26 8 26 23 0 19 -16 18 -24 -2z"/>
<path d="M7210 5720 c0 -5 5 -10 10 -10 6 0 10 5 10 10 0 6 -4 10 -10 10 -5 0
-10 -4 -10 -10z"/>
<path d="M1700 5711 c0 -5 8 -19 18 -32 23 -28 37 -11 16 19 -15 22 -34 29
-34 13z"/>
<path d="M7162 5698 c-14 -14 -16 -38 -2 -38 9 0 30 31 30 44 0 10 -15 7 -28
-6z"/>
<path d="M7200 5659 c-7 -11 -9 -23 -6 -26 8 -9 36 17 36 33 0 21 -18 17 -30
-7z"/>
<path d="M7106 5613 c-9 -9 -7 -33 3 -33 12 0 22 28 12 34 -5 3 -11 3 -15 -1z"/>
<path d="M1782 5584 c1 -9 9 -19 16 -22 9 -3 13 2 10 14 -1 9 -9 19 -16 22 -9
3 -13 -2 -10 -14z"/>
<path d="M7195 5590 c-3 -5 -1 -10 4 -10 6 0 11 5 11 10 0 6 -2 10 -4 10 -3 0
-8 -4 -11 -10z"/>
<path d="M7137 5536 c-6 -16 2 -28 14 -20 12 7 11 34 0 34 -5 0 -11 -6 -14
-14z"/>
<path d="M1840 5490 c0 -5 5 -10 10 -10 6 0 10 5 10 10 0 6 -4 10 -10 10 -5 0
-10 -4 -10 -10z"/>
<path d="M7060 5480 c0 -5 5 -10 10 -10 6 0 10 5 10 10 0 6 -4 10 -10 10 -5 0
-10 -4 -10 -10z"/>
<path d="M7015 5390 c-3 -5 -1 -10 4 -10 6 0 11 5 11 10 0 6 -2 10 -4 10 -3 0
-8 -4 -11 -10z"/>
<path d="M6952 5290 c-24 -39 -27 -50 -12 -50 13 0 42 58 37 73 -2 7 -14 -4
-25 -23z"/>
<path d="M7026 5271 c-4 -7 -5 -15 -2 -18 9 -9 19 4 14 18 -4 11 -6 11 -12 0z"/>
<path d="M6886 5124 c-4 -9 -4 -19 -2 -21 8 -8 26 8 26 23 0 19 -16 18 -24 -2z"/>
<path d="M6280 4055 c0 -8 5 -15 10 -15 6 0 10 7 10 15 0 8 -4 15 -10 15 -5 0
-10 -7 -10 -15z"/>
<path d="M6145 3869 c-4 -6 -5 -13 -2 -16 7 -7 27 6 27 18 0 12 -17 12 -25 -2z"/>
<path d="M6030 3790 c-15 -28 -4 -39 17 -17 13 12 14 20 6 28 -8 8 -14 5 -23
-11z"/>
<path d="M6050 3714 c0 -17 22 -14 28 4 2 7 -3 12 -12 12 -9 0 -16 -7 -16 -16z"/>
<path d="M5987 3621 c-33 -57 -15 -71 21 -16 26 40 27 45 9 45 -7 0 -20 -13
-30 -29z"/>
<path d="M3128 3112 c-23 -5 -23 -14 3 -46 19 -24 48 -28 33 -5 -3 5 2 21 10
34 9 14 12 25 6 25 -5 0 -10 -5 -10 -11 0 -8 -4 -8 -12 -2 -7 5 -21 8 -30 5z"/>
<path d="M5722 3001 c-12 -21 -22 -44 -22 -50 0 -24 18 -8 44 39 20 36 23 50
13 50 -7 0 -23 -17 -35 -39z"/>
<path d="M5532 2910 c-14 -23 -16 -50 -3 -50 5 0 12 8 16 19 3 10 13 18 22 17
9 0 18 5 21 13 3 10 0 12 -12 8 -9 -4 -16 -2 -16 3 0 17 -14 11 -28 -10z"/>
<path d="M5670 2894 c0 -17 22 -14 28 4 2 7 -3 12 -12 12 -9 0 -16 -7 -16 -16z"/>
<path d="M5381 2647 c-6 -8 -8 -17 -4 -20 7 -8 33 11 33 24 0 13 -16 11 -29
-4z"/>
<path d="M3710 2510 c0 -5 5 -10 10 -10 6 0 10 5 10 10 0 6 -4 10 -10 10 -5 0
-10 -4 -10 -10z"/>
<path d="M4960 1860 c0 -5 5 -10 11 -10 5 0 7 5 4 10 -3 6 -8 10 -11 10 -2 0
-4 -4 -4 -10z"/>
<path d="M4917 1776 c-6 -16 2 -28 14 -20 12 7 11 34 0 34 -5 0 -11 -6 -14
-14z"/>
<path d="M4791 1631 c-12 -16 -21 -34 -21 -41 0 -19 20 -7 41 27 26 40 8 53
-20 14z"/>
<path d="M4850 1630 c0 -5 5 -10 10 -10 6 0 10 5 10 10 0 6 -4 10 -10 10 -5 0
-10 -4 -10 -10z"/>
<path d="M4070 1600 c0 -5 5 -10 11 -10 5 0 7 5 4 10 -3 6 -8 10 -11 10 -2 0
-4 -4 -4 -10z"/>
<path d="M4032 1579 c2 -7 10 -15 17 -17 8 -3 12 1 9 9 -2 7 -10 15 -17 17 -8
3 -12 -1 -9 -9z"/>
<path d="M4730 1500 c0 -5 5 -10 10 -10 6 0 10 5 10 10 0 6 -4 10 -10 10 -5 0
-10 -4 -10 -10z"/>
<path d="M4780 1490 c0 -5 5 -10 10 -10 6 0 10 5 10 10 0 6 -4 10 -10 10 -5 0
-10 -4 -10 -10z"/>
<path d="M4742 1428 c-16 -16 -15 -28 3 -28 8 0 15 2 15 4 0 2 3 11 6 20 7 19
-7 21 -24 4z"/>
</g>
</svg>
