<?xml version="1.0" encoding="utf-8"?>
<!-- Generator: Adobe Illustrator 22.1.0, SVG Export Plug-In . SVG Version: 6.00 Build 0)  -->
<svg version="1.1" id="Layer_1" xmlns="http://www.w3.org/2000/svg" xmlns:xlink="http://www.w3.org/1999/xlink" x="0px" y="0px"
	 viewBox="0 0 570.6 570.6" style="enable-background:new 0 0 570.6 570.6;" xml:space="preserve">
<style type="text/css">
	.st0{fill:#FFFF66;}
</style>
<g>
	<path class="st0" d="M285.3,570.6c-0.3,0-0.6-0.3-0.6-0.6l-0.5-44.5c0.6-0.1,1.2-0.2,1.8-0.2l0.4,0l-0.5,44.7
		C285.9,570.3,285.6,570.6,285.3,570.6z M348.6,563.4c-0.3,0-0.5-0.2-0.6-0.5l-6.4-26.8c0.2,0,0.4,0,0.6,0c0.5,0,0.9,0.1,1.3,0.2
		l5.7,26.4c0.1,0.3-0.1,0.6-0.5,0.7C348.7,563.4,348.7,563.4,348.6,563.4z M227,536.4c0.1,0,0.3,0.1,0.4,0.1c0.7,0,1.5-0.4,1.5-1.2
		c0-0.4-0.1-1.1-1.4-1.4l-0.1,0l0.7-3.3c0.2,0.1,0.5,0.2,0.7,0.3c0.3,0.2,0.5,0.4,0.8,0.6c0.1,0.1,0.2,0.1,0.2,0.2l-4.2,17.7
		c-0.1,0-0.1,0-0.2,0c-0.6,0-1,0.2-1.4,0.4L227,536.4z M293.3,547.4c-0.3,0-0.5-0.2-0.5-0.5l-1.7-40.9l0.1-0.7l-0.1-2.1l-0.1,0
		l-2.2-54.5l-1.6,0l0,3.7c-0.1,0-0.3,0-0.4,0c-1.7,0-2.9,1.6-3.2,2.3l-0.6-57.7l-1.6,0l-2.7,41.8c-0.1,0-0.3,0-0.4,0
		c-1.6,0-2.7,1.5-3.1,2.1l-0.1,0.2l0.4,3.5l0.4,0.2c0.1,0.1,0.3,0.1,0.4,0.2c0.5,0.3,0.9,0.4,1.1,0.7c-0.2,1,0.1,1.8,0.4,2.4
		c0.1,0.3,0.3,0.6,0.4,1l-3.5,53.4c-0.5,0.2-1,0.4-1.6,0.5c-0.1,0-0.3,0-0.4-0.1l2.4-55.1l-1.6-0.1l-1.3,14.4l-0.1,0l-0.5,5.6l0.2,0
		l-1.1,11.6l-0.2,0l-0.9,9.3l0.2,0.1l-0.5,5.3l-0.2-0.1l-0.2,1.2l-0.7,7.1c-0.5,0.2-1,0.3-1.6,0.5c-0.1,0-0.2,0-0.4-0.1l3.9-53
		l-1.6-0.2l-3.1,25.6c-0.2-0.2-0.5-0.4-0.7-0.5c-0.7-0.5-1.1-0.8-1.2-1.4c-0.1-0.2-0.1-0.5-0.2-0.6c0,0,0,0,0-0.1l4.2-41.4l0.2,0.1
		c0.8,0.5,1.7,1.2,2.7,1.5l1,0.4l0.6-7.6l-0.1-0.2c-0.5-0.9-1.3-1.3-2.2-1.3c-0.4,0-0.7,0.1-1.2,0.2l-0.2,0.1c0,0-0.1,0.1-0.1,0.1
		l3.9-38.5l-1.6-0.2l-4.8,27c-0.4-0.5-1-0.9-1.8-0.9c-0.3,0-0.5,0-0.8,0.1l-0.5,0.1l-1.1,5.3l0.1,0.8l0.4,0.3
		c0.6,0.5,1.5,1.2,2.5,1.6l-0.4,2c-0.1,0-0.2,0-0.2,0c-0.6,0-1.1,0.2-1.6,0.5l-0.4,0.3l0.2,0.9c0.2,0.9,0.4,2.1,1.3,2.7l-0.4,2.3
		c-0.4,0.3-0.8,0.7-0.9,1.2l-0.2,0.5l0.4,0.4c0.1,0.1,0.2,0.2,0.3,0.2l-4.9,27.4c-0.2-0.2-0.4-0.3-0.5-0.4c-0.6-0.5-0.9-0.8-1-1.3
		c0-0.2-0.1-0.4-0.2-0.6c0,0,0,0,0,0l3.2-20.7l-0.2-0.3c-0.1-0.1-0.2-0.2-0.2-0.3l-0.9-1.2l0.4,0.2c0.1,0.1,0.2,0.1,0.3,0.1l0.9,0.4
		l0.8-4.8l-1.4,0.5l-0.4,0.2l-0.1,0.4l-5.6,26.9c-0.2-0.2-0.3-0.3-0.5-0.5c-0.6-0.5-0.9-0.8-1-1.3c0-0.2-0.1-0.4-0.2-0.6
		c0,0,0,0,0,0l2.4-12.8l-1.6-0.3l0.4-0.5c-0.1,0.1-0.3,0.1-0.5,0.2c-0.7,0.3-1.9,0.7-1.8,2.2c0,1,0.5,1.5,1,1.8l-0.1,0.4
		c-0.1-0.1-0.2-0.3-0.3-0.4c-0.6-0.8-1.1-1.7-1.9-2.4c0.4-1.2,0-2.5-0.4-3.2l10.1-46.3l-1.5-0.4l-6.7,22.6c-0.1,0-0.1,0-0.2,0
		c-1.5,0-2.3,1.1-2.4,3.2l0,0.4l0.3,0.2c0.3,0.3,0.6,0.5,1,0.8l-2,6.6c0,0-0.1,0-0.1,0c-0.6,0.2-1.8,0.6-1.9,2c0,0.2,0,0.4,0,0.6
		c-0.3-0.4-0.6-0.9-1-1.3c0.2-0.5,0.3-1.1,0.2-1.7l-1.6-0.1l-1.2,3.7c-0.4-0.5-0.9-0.6-1.1-0.6l-0.9-0.1l0,0.8c0,0,0,0,0,0
		c-0.3,0.2-0.9,0.7-0.6,1.7l0.1,0.2l0.2,0.2c0.3,0.2,0.6,0.4,0.9,0.4c0.3,0,0.5-0.1,0.6-0.2l-1.4,4.2c-0.1,0-0.2,0-0.2,0
		c-0.4,0-0.8,0.1-1.2,0.4l-0.1,0.1l-0.1,0.1c-1.1,1.4-1.3,4.1-0.6,6l-10.9,33.3l-0.1,0l-0.2,0.5l-1.6,4.8l0.2,0.3l-4.9,14.9
		l-0.2-0.2l-0.4,1.2l-0.6,1.9c-0.7,0.2-1.4,0.4-2,0.7c0,0,0,0-0.1,0l0.3-1.1c0.2,0,0.3,0.1,0.5,0.1l0.7,0.2l0.2-0.7
		c0-0.1,0.1-0.2,0.1-0.3l1-1.9l-0.9,0.3l0.8-2.7l-0.5-0.3c-0.1-0.1-0.3-0.1-0.4-0.2l8.1-26.5c0.2-0.1,0.4-0.1,0.6-0.2l0.4-0.1
		l0.6-1.9c0.6-0.3,1.5-0.9,1.4-2.3l-0.1-0.8l-0.4,0l0.5-1.6l-1.2,0.8l0.4-1.2l0.9,0.1l10.4-34.3l-1.5-0.5l-5.7,15.7
		c-0.3-0.6-0.9-0.8-1.2-0.8l-0.9-0.1l0,0.8c0,0,0,0-0.1,0c-0.3,0.2-1,0.7-0.7,1.8l0.1,0.2l0.2,0.2c0.3,0.2,0.6,0.5,1,0.5
		c0.3,0,0.5-0.1,0.6-0.2c0.1,0,0.1-0.1,0.2-0.1l-1.7,4.7c-0.1,0-0.2,0-0.4,0c-0.4,0-0.8,0.1-1.2,0.3l-0.1,0.1l-0.1,0.1
		c-1.2,1.5-1.5,4.4-0.8,6.5l-13,36c-0.7,0-1.3,0.1-2,0.2l4.1-12.3c0.7-0.3,1.6-0.9,1.6-2.4l0-0.8h-0.4l32.4-95.9l-1.5-0.6
		l-19.6,46.2c-0.3-0.5-0.8-0.7-1.1-0.7l-0.9-0.2l0,0.8c0,0,0,0,0,0c-0.3,0.2-1,0.6-0.8,1.7l0.1,0.2l0.2,0.2c0.3,0.3,0.6,0.5,1,0.5
		c0.3,0,0.4-0.1,0.6-0.2l-1.7,4c-0.1,0-0.3,0-0.4,0c-0.3,0-0.7,0.1-1,0.3l-0.1,0.1l-0.1,0.1c-1.2,1.3-1.7,4-1.1,6l-13.7,32.3
		c-0.1,0-0.2,0-0.2,0c-0.5,0-1,0-1.4,0.1l4.4-11c0.6-0.2,1.6-0.8,1.6-2.2l0-0.8l-0.4,0l10.7-26.8l-1.5-0.6l-7.4,16.1
		c0,0-0.6-0.1-0.6-0.1l-1.4,3.1l0.6,0.1l-2.9,6.3l-0.5-0.4l-2.8,6.1l0.6,0.2l-5.8,12.7l-0.2-1.2l-7.1,15.5c-0.2-0.2-0.6-0.4-1.1-0.4
		l19.3-44.6l0.1,0.1l0.6-1.3l1.7-3.9l-0.2,0.2l1.9-4.5l-1.5-0.7l-12,24.3c-0.1,0-0.3,0-0.4,0c-0.6,0-1.2,0.3-1.6,0.7
		c-0.4,0.4-0.6,1-0.6,1.6l0,0.3l0.2,0.2c0.2,0.2,0.4,0.4,0.7,0.5l-3.4,7c-0.4-0.4-0.9-0.8-1.8-0.8c-0.2,0-0.5,0-0.8,0.1l-0.3,0.1
		l-0.2,0.2l6-12.9c0.3,0.3,0.7,0.5,1.3,0.5c0.1,0,0.4,0,0.4,0l0.2-0.1c0.8-0.5,2-2,1.9-3.3c-0.1-0.7-0.5-1.3-1.2-1.6l-0.3-0.1
		l30.5-65l-1.4-0.7l-8.3,14.7c0-0.4-0.2-0.8-0.4-1.1c-0.2-0.2-0.6-0.5-1.3-0.5l-0.2,0l-0.6,0l0,0.2l-0.4-0.1l-0.1,0.9
		c-0.1,0.6,0,1.1,0.3,1.5c0.3,0.4,0.9,0.6,1.6,0.6c0.1,0,0.1,0,0.2,0L202,439.5c-0.1,0-0.3,0-0.4,0c-0.6,0-1.1,0.2-1.5,0.6
		c-0.4,0.4-0.6,0.9-0.6,1.5l0,0.3l0.2,0.2c0.2,0.2,0.4,0.3,0.6,0.5l-3.4,6.1c-0.3-0.4-0.8-0.8-1.8-0.8c-0.2,0-0.4,0-0.6,0.1l-0.2,0
		l6-11.2c0.3,0.3,0.7,0.5,1.3,0.5h0.2l0.2-0.1c0.8-0.4,2-1.8,1.9-3c0-0.7-0.4-1.3-1.1-1.6l-0.2-0.1l2.8-5.1l-1.4-0.8l-5.3,8.8l0-0.2
		l-1.2,2c-0.2,0-0.3-0.1-0.5-0.1h-0.5l-0.2,0.5l-0.1,0.3c-0.2,0.4-0.4,0.9-0.6,1.3l-0.3,0.8l0.4,0.1l-0.4,0.7l0.1,0.2l-21.2,35.4
		c-0.4,0.4-0.6,0.8-0.8,1.3l-1.9,3.2c-0.1,0.1-0.2,0.2-0.3,0.2l-0.3,0.1l-9.7,16c-0.1-0.6-0.4-1.1-0.7-1.5l10.3-18l0,0l0.7,0.8
		l0.5-1l4.1-7.1l-0.8-0.6l0.3-0.5l0.9,0.4l0.9-1.6l-1.2,0.1l1.2-2.1l0.5,1l3.3-5.8l-1.2,0.1l15.7-27.3l0.6,0.7l3.2-5.6l-1.4,0.7
		l1.9-3.3l-1.4-0.8l-13.3,20.7c-0.2-0.2-0.5-0.3-0.8-0.3h-0.1l-0.1,0l-0.5,0.1l-0.1,0.5c-0.1,0.3-0.3,0.8-0.6,1.3
		c-0.5,1-1.1,2.2-0.9,3.3l-24.3,37.8c-0.4,0.4-0.7,0.8-0.9,1.4l-2.2,3.4c-0.1,0.2-0.3,0.3-0.5,0.3c-0.1,0-0.2,0-0.3-0.1
		c-0.3-0.2-0.4-0.6-0.2-0.8l75.5-123.2l-1.3-0.9l-42.5,58.9c-0.2-0.2-0.5-0.3-0.8-0.3l-0.1,0l-0.6,0l-0.2,0.5
		c-0.1,0.3-0.3,0.7-0.6,1.1c-0.5,0.9-1.2,2-1,3l-24.2,33.5c-0.4,0.3-0.7,0.7-0.9,1.3l-2.2,3c-0.1,0.1-0.2,0.2-0.4,0.2
		c-0.1,0-0.2,0-0.3-0.1c-0.2-0.2-0.3-0.5-0.1-0.7l39-56.5l-1.3-0.9l-21.3,27.8l-0.1-0.9l-3.5,4.5l0.6,0.3l-4.9,6.4l-0.3-0.6
		l-8.4,10.9l0.2,0.3c0,0.2,0,0.4,0,0.6l-10,13.1c0-0.1-0.1-0.2-0.2-0.4c0.1-0.7,0.2-1.4,0.2-2.3l8.5-11.6l0.4-0.4l8.6-11.7l-0.1,0
		l24.2-33l-1.3-1l-29.2,35.9c-0.3-0.5-0.8-0.9-1.7-1l-0.3,0l-0.2,0.2c-0.6,0.5-1.7,2-1.5,3.3c0.1,0.5,0.3,0.9,0.7,1.2l-5.7,7
		c-0.3-0.6-0.6-1.2-0.7-1.8l-0.1-0.5c0,0-0.5-0.2-0.5-0.2l17.4-22.3c0.1,0.1,0.1,0.2,0.2,0.3c0.3,0.4,0.8,0.6,1.3,0.6
		c0.8,0,1.5-0.6,1.6-1.5l0-0.7l-0.7-0.2c-0.1,0-0.1-0.1-0.3-0.1c-0.2-0.1-0.4-0.2-0.8-0.3l49.3-63.1c0,0.3,0,0.7,0,1l0.1,0.5l1,0.2
		c0.3,0.1,0.5,0.1,0.7,0.1s0.4,0,0.7-0.1l1-0.2l0.1-0.5c0.1-1,0-1.8-0.5-2.5l-0.2-0.3h-2l-0.2,0.3c-0.3,0.4-0.5,0.9-0.5,1.4l-1.2-1
		L195,389.4c-0.5,0-0.9-0.1-1.3-0.1c-0.1,0-0.3,0-0.4,0l-0.6,0l-0.2,0.6c-0.2,0.9-0.1,1.5,0.1,2c0,0,0,0,0,0l-34.7,38.1
		c-0.2-0.5-0.7-0.8-1.5-0.9l-0.3,0l-0.2,0.2c-0.6,0.4-1.7,1.8-1.6,3c0,0.5,0.2,0.9,0.6,1.2l-5.5,6c-0.2-0.5-0.4-1.1-0.5-1.6l0-0.5
		l-0.4-0.2l17-19.5c0,0.1,0.1,0.2,0.2,0.3c0.3,0.4,0.7,0.6,1.2,0.6c0.8,0,1.4-0.5,1.5-1.3l0.1-0.7l-0.7-0.2c-0.1,0-0.1-0.1-0.2-0.1
		c-0.1-0.1-0.3-0.2-0.6-0.3l8.9-10.2l-1.2-1.1l-21.2,22.1c-0.4-0.3-0.7-0.6-0.9-0.9l-0.5-0.9l-0.8,0.7c-0.5,0.5-1.4,1.7-1.2,2.8
		c0.1,0.4,0.2,0.7,0.5,1l-0.8,0.9l0.2,0.1l-7,7.3c-0.2-0.1-0.5-0.2-0.8-0.2c-0.1,0-0.2,0-0.3,0l-0.5,0.1l-0.1,0.5
		c-0.1,0.2-0.1,0.4-0.2,0.6c-0.1,0.3-0.2,0.6-0.3,1l0,0l0,0l0,0.1l0,0.3l-3,3.1l-0.1,0l-0.3,0.3c-0.1,0.1-0.1,0.2-0.1,0.2l-6.4,6.6
		c0,0-0.1,0.1-0.3,0.1l-0.3,0l-6.5,6.8c0-0.1-0.1-0.2-0.1-0.4c0.2-0.7,0.3-1.4,0.5-2.3l9.8-10.6c0.1,0,1,0.4,1,0.4l10.2-11.1
		l-0.9-0.4l17.4-18.9l0,1.3l2.8-3l-1.1-0.1l7.7-8.4l-1.1-1.1l-32.5,31.9c0,0,0,0-0.1,0c-0.4-0.3-0.7-0.6-0.9-1c0-0.3,0-0.5,0-0.8
		l57.9-59.2c0,0.1,0,0.1,0,0.2l-0.2,1l1.1-0.1c0.2,0,0.4,0,0.6,0c0.5,0,1,0.1,1.6,0.2l0.4,0.1l12.6-13.6l-1.3-0.3
		c-0.6-0.1-1.1-0.2-1.7-0.2c-0.2,0-0.4,0-0.6,0l8.7-8.9l0.9-0.2v-0.7c0,0,0-0.1,0-0.1l2.6-2.7l-1.7-0.1c-0.2,0-0.3,0-0.5,0l-0.4-0.1
		l-0.3,0.3c-1.4,1.2-2.6,2.3-4.5,2.7l-0.4-0.1l-0.4,0.3l-14.1,11.7l1.9,0.2c0.7,0.1,1.3,0.2,1.9,0.4l-58.6,51.5c0,0,0,0,0,0
		c-0.3-0.3-0.6-0.6-0.8-0.9c0-0.2,0.1-0.5,0.1-0.7l26.1-23.9l-1.1-1.2l-8.4,7l-0.1-0.6l-1.1,0.8l-7.9,6.5c0,0,0.2,0.6,0.2,0.6
		l-1.5,1.3l-0.3-0.5l-4.1,3.4c0,0,0.2,0.6,0.3,0.6l-1.6,1.3c0,0-0.1,0-0.1,0c-0.1,0-0.3,0-0.4,0.1l-0.5,0.1l-0.1,0.3
		c0,0-0.1,0-0.1,0c-0.2,0.1-0.5,0.2-0.8,0.5l-0.2,0.3l0,0.3c0,0,0,0.1,0,0.1L86,455.1c-0.1,0.1-0.2,0.1-0.3,0.1h0
		c-0.2,0-0.3-0.1-0.4-0.2c-0.2-0.2-0.2-0.5,0.1-0.7l65.5-56.8l0.1,0.1l6.3-5.4l0-0.2l2.3-2l-1-1.2L143,400.9c-0.1-1-0.4-2-0.6-2.9
		c0-0.3,0.1-0.7,0.2-1l0-0.1l21.7-17.7c0.2,0.3,0.4,0.7,0.7,1c0.3,0.4,0.5,0.7,0.7,1.1l0.2,0.4h3.2l8.1-7l0.1-0.2
		c0.1-0.2,0.2-0.5,0.2-0.7l0-0.1l0-0.1c-0.1-1.4-0.8-2.3-1.4-3c-0.1-0.1-0.2-0.3-0.3-0.4l-0.1-0.2l20.7-16.9l-1-1.3l-13.5,9.4
		c0,0,0-0.1,0-0.1l0-0.1c0-1.2-0.5-2-1-2.7l-0.4-0.6l-1.7,1.1l-9.6,6.3l0.4,0.7c0.1,0.2,0.3,0.5,0.4,0.7c0.2,0.4,0.4,0.7,0.6,1.1
		l0.2,0.4l1.4,0.1l-23.3,16.2c-0.1-0.9-0.2-1.8-0.4-2.5c0.1-0.3,0.1-0.6,0.2-0.9l0-0.1l3-2.2l-0.9-1.3l-53,34.8
		c-0.1,0-0.2,0.1-0.3,0.1l-0.3,0l-0.3,0.1l-29.1,19c-0.1,0.1-0.2,0.1-0.3,0.1c-0.2,0-0.3-0.1-0.4-0.2c-0.2-0.2-0.1-0.5,0.1-0.7
		l68.6-46.9l0.1,0.9l1.1-0.7l8.5-5.8l0.1-0.3c0.1-0.3,0.2-0.6,0.2-1l1.4-1l-0.9-1.3l-69.1,42.5c-0.1,0.1-0.2,0.1-0.3,0.1
		c-0.2,0-0.4-0.1-0.5-0.3c-0.2-0.3-0.1-0.7,0.2-0.8l121.5-78.3l-0.8-1.4L87.8,395.6c-0.1,0-0.1,0.1-0.2,0.1c-0.2,0-0.4-0.1-0.4-0.3
		c-0.1-0.2,0-0.5,0.2-0.7l59.7-34l-0.8-1.4l-93,47.1c-0.1,0-0.1,0.1-0.2,0.1c-0.2,0-0.4-0.1-0.5-0.3c-0.1-0.2,0-0.5,0.2-0.7
		l86.8-46.3l-0.7-1.4L29.1,409.3c-0.1,0-0.2,0.1-0.3,0.1c-0.2,0-0.4-0.1-0.5-0.3c-0.1-0.3,0-0.7,0.3-0.8l155-76.7l-0.7-1.5
		L43.8,386.3c-0.1,0-0.1,0-0.2,0c-0.2,0-0.4-0.1-0.5-0.3c-0.1-0.2,0-0.5,0.3-0.6l91-39l-0.6-1.5l-59.4,22.2c0,0-0.1,0-0.2,0
		c0,0,0,0,0,0c-0.1,0-0.1,0-0.2,0l-0.3-0.1l-32.9,12.2c-0.1,0-0.1,0-0.2,0c-0.2,0-0.4-0.1-0.5-0.3c-0.1-0.3,0-0.5,0.3-0.6l90.1-35.5
		l-0.6-1.5l-76.8,26c-0.1,0-0.1,0-0.2,0c-0.3,0-0.5-0.2-0.6-0.4c-0.1-0.3,0.1-0.7,0.4-0.8l135.9-49.3l-0.5-1.5L68.2,348.9
		c0,0-0.1,0-0.1,0c-0.2,0-0.4-0.2-0.5-0.4c-0.1-0.3,0.1-0.5,0.3-0.6l65.8-19.9l-0.4-1.5L32.1,351.8l-0.1,0c-0.2,0-0.4-0.2-0.5-0.4
		c-0.1-0.3,0.1-0.5,0.4-0.6l94.8-25.8l-0.4-1.6L7.9,349.2c0,0-0.1,0-0.1,0c-0.3,0-0.5-0.2-0.6-0.5c-0.1-0.3,0.1-0.7,0.5-0.7
		l168.1-40.2l-0.3-1.6L27.3,330l-0.1,0c-0.2,0-0.4-0.2-0.5-0.4c0-0.3,0.1-0.5,0.4-0.6l97.4-17.8l-0.2-1.6c-26.9,3.6-62.6,8.4-63,8.4
		c0,0-0.1,0-0.2-0.1l-0.2-0.1l-34.8,4.6l-0.1,0c-0.2,0-0.4-0.2-0.4-0.4c0-0.3,0.1-0.5,0.4-0.6l95.8-14.6l-0.2-1.6
		c-38.7,4-80.5,8.3-80.8,8.3c-0.2,0-0.5-0.2-0.5-0.5c0-0.3,0.2-0.6,0.5-0.7l143.4-17.8l-0.1-1.6c-48.8,2.3-124.3,6-124.7,6
		c-0.2,0-0.4-0.2-0.4-0.5c0-0.3,0.2-0.5,0.5-0.5l68.5-4.7l-0.1-1.6l-104.2,2.1c-0.3,0-0.5-0.2-0.5-0.5c0-0.3,0.2-0.5,0.5-0.5l98.2-4
		l0-1.6L0.6,285.9c-0.3,0-0.6-0.3-0.6-0.6c0-0.3,0.3-0.6,0.6-0.6l172.9-1.8l0-1.6l-149.7-9.7c-0.3,0-0.5-0.3-0.5-0.5
		c0-0.3,0.2-0.5,0.5-0.5l98.9,4.3l0.1-1.6l-63.1-5.8c0,0-0.1,0-0.3-0.1l-0.2-0.2l-34.9-3.3c-0.3,0-0.5-0.3-0.4-0.5
		c0-0.3,0.2-0.5,0.5-0.5l96.7,7.1l0.2-1.6l-80.5-9.9c-0.3,0-0.6-0.3-0.5-0.7c0-0.3,0.3-0.5,0.6-0.5c0.4,0,143.9,14.6,143.9,14.6
		l0.2-1.6L62.1,248.4c-0.3,0-0.4-0.3-0.4-0.6c0-0.2,0.2-0.4,0.5-0.4c0.2,0,68,10.6,68,10.6l0.3-1.6l-3.7-0.8c0,0,0-0.1-0.1-0.2
		l-0.1-0.5l-33.2-6.9l-0.2,0.6l-64.9-13.4c-0.3-0.1-0.4-0.3-0.4-0.6c0-0.2,0.2-0.4,0.5-0.4l0.1,0l66.1,12.3l0,0.1l0.5,0.1l27.7,5.2
		l0.1-0.2l2.3,0.4l0.3-1.6l-9.6-2.3l3.3,0c1,0,2,0,3.1,0l0.2,0l0.5-0.3c0.7-0.5,1.4-0.9,2.2-1.3l0.6,0.1l0.1,0.1
		c0.3,0.4,0.5,0.8,0.8,1.2l0.3,0.4l0.5-0.1c0.1,0,0.1,0,0.2,0c0.7,0,1.4,0.5,2.1,0.9c0.7,0.5,1.4,0.9,2.2,0.9c0.3,0,0.7-0.1,1-0.3
		l0.4-0.2v-0.5c0-0.3,0-0.6-0.1-0.9l43.7,9.5l0.4-1.5l-45.2-13.4c1.8,0.1,3.6,0.2,5.3,0.3l0.2,0l0.4-0.3c0.6-0.3,1.1-0.6,1.7-0.9
		l0.8-0.3l0.6,1c0.1,0.2,0.2,0.3,0.3,0.5l0.2,0.4l0.6,0c0.7,0,1.3,0.4,1.9,0.9c0.7,0.5,1.3,1,2.2,1c0.3,0,0.6-0.1,0.8-0.2l0.4-0.2
		l0-0.5c0-0.6-0.1-1.1-0.4-1.4l-0.1-0.2l-5.4-1.8l-5.8-1.9l0,0l-0.4-0.2l-2-0.7l1.9,0.2l-0.1-0.9c0-0.1,0-0.2,0-0.3l0-0.8l5.1,1.6
		l0.5-0.3l0.9-0.4l0.7,1.3l0.3,0.1l1.2,0.4l0.5-1.5l-3.2-1.2l-9-3.2l-0.5,0c-0.7-0.1-1.4-0.1-2.1-0.2c0,0-0.5-0.4-0.8-0.5l0.1-0.4
		l-4.8-1.7c-0.1-0.3-0.2-0.6-0.3-0.8c-0.2-0.4-0.4-0.8-0.3-1.4l0.1-0.9l-0.9,0c-1.4,0.1-2.4,0.5-3.1,1.4l-16.4-5.9
		c-0.1-0.8-0.2-1.7-0.5-2.7l12.7,4.3c0,0,0,0,0,0c-0.2,0.3-0.5,0.8-0.2,1.6l0.1,0.2l0.2,0.2c0.3,0.3,0.8,0.4,1.3,0.4
		c0.6,0,1.1-0.2,1.4-0.6c0.2-0.2,0.3-0.5,0.4-0.9l37.4,12.6l-0.8,0.1l0.3,2.3l2.3-0.3l-0.2-1.6l32.4,10.9l0.6-1.5L140.3,227
		c-0.1-0.3-0.2-0.5-0.2-0.7c-0.2-0.4-0.3-0.7-0.2-1.3l0.1-0.8l0.2,0.1l0.6-1.5l-30.6-14c0.4-0.3,0.6-0.7,0.8-1
		c0.3-0.4,0.4-0.6,0.7-0.8c0.2,0,0.3,0,0.5-0.1l15.1,6.5l0.1,0.2l0.3,0.2l1.1,0.5l0.2-0.1l7.6,3.3l0.7-1.5l-39.9-19.7
		c0.4-0.3,0.7-0.7,1-1.1c0.3-0.4,0.5-0.7,0.8-0.8c0.2,0,0.4,0,0.6-0.1L116,202c0.1,0.2,0.2,0.4,0.2,0.5l0.3,0.6l0.6-0.1
		c0.2,0,0.4-0.1,0.6-0.2l68,31.9l0.7-1.4l-0.6-0.3c0.1-0.4,0-0.7,0-1.2l0-0.2l-0.1-0.1c-0.4-0.6-1-0.9-1.6-0.9c-0.5,0-1,0.2-1.4,0.6
		l-65.4-36.9c0.4-0.3,0.7-0.6,0.9-0.9c0.3-0.4,0.5-0.6,0.8-0.7c0.2,0,0.3,0,0.5,0l14.5,7.8c0.1,0.2,0.1,0.3,0.2,0.5l0.2,0.6l0.6-0.1
		c0.2,0,0.4-0.1,0.5-0.1l7.9,4.2l0.8-1.4l-28.9-17.3c0.3-0.3,0.5-0.5,0.8-0.6l0.4-0.2l0-0.3l4.7,2.7l0.4-0.3
		c0.1-0.1,0.2-0.1,0.2-0.1c0.2,0,0.3,0,0.5,0l14.3,8.2c0.1,0.2,0.1,0.3,0.2,0.5l0.2,0.6l0.6-0.1c0.2,0,0.4-0.1,0.5-0.1l6,3.4
		l0.8-1.4l-41.2-26.4c0.3-0.3,0.6-0.5,1-0.7l0.4-0.2l0-0.4l95.5,58.5l0.9-1.3l-77.1-55.7c0.3-0.2,0.5-0.4,0.8-0.6l0.4-0.2l0-0.3
		l31.8,22l0.9-1.3l-43.2-33c0,0,0.2-0.7,0.2-0.7l-1.2-0.9c-0.1-0.5,0.1-0.8,0.4-1.2c0,0,0-0.1,0.1-0.1l2.3,1.7c0,0,0,0.9,0,1.2
		l0,0.6l0.6,0.2c0.4,0.1,0.8,0.2,1.2,0.2c0.2,0,0.5,0,0.7-0.1c0.2,0,0.3-0.1,0.5-0.1l1.7,1.2c-0.2,0.6-0.1,1.4,0,2l0.1,0.6l0.6,0.1
		c0.2,0,0.3,0,0.5,0c0.7,0,1.2-0.3,1.4-0.6c0,0,0.1-0.1,0.1-0.2l31.3,22.9l1-1.3l-51.9-42.3c0-0.1,0.1-0.2,0.1-0.2
		c0.4,0.1,0.8,0.3,1.2,0.5c0.7,0.4,1.4,0.8,2.5,0.8c0.2,0,0.4,0,0.7,0c0.2,0,0.4-0.1,0.5-0.1l1.8,1.4c-0.3,0.7-0.1,1.5-0.1,2.2
		l0.1,0.6l0.6,0.1c0.2,0,0.4,0.1,0.6,0.1c0.7,0,1.3-0.3,1.6-0.7l85.4,66.6l1-1.2l-74-67.3c0,0,0-0.1,0-0.1c0.3,0.1,0.6,0.3,1,0.5
		c0.6,0.4,1.4,0.9,2.5,0.9c0.1,0,0.3,0,0.4,0c0.2,0,0.3,0,0.5-0.1l1.6,1.4c-0.3,0.6-0.2,1.4-0.1,2l0,0.6l0.6,0.1
		c0.2,0.1,0.5,0.1,0.7,0.1c0.6,0,1.1-0.2,1.4-0.6l29.7,25.9l1.1-1.2L120,130.8c0,0,0,0-0.1-0.1c0.3-0.2,0.6-0.3,1-0.4l12.6,11.6
		l0.3,0c0.2,0,0.3,0,0.5,0c0.1,0,0.1,0,0.2,0c0.2,0,0.3,0,0.5-0.1l1.5,1.4c-0.1,0.2-0.2,0.4-0.2,0.7l-0.1,0.4l2,1.8l0.5-0.4
		c0.1-0.1,0.2-0.1,0.3-0.2l27.4,25.4l0.4-0.5c0,0.1,0,0.2,0,0.3l0,0.4l0.4,0.3c0.9,0.6,2,1.3,3.6,1.3c0.3,0,0.6,0,0.9-0.1l0.3,2.1
		l0.7,0c0.1,0,0.2,0,0.3,0c1.1,0,1.8-0.4,2.3-0.8c0.2-0.1,0.3-0.2,0.5-0.3l39.2,38.4l1.2-1.1l-28.8-32.7c0.2,0,0.4,0,0.5,0
		c0.9,0,1.5-0.3,2-0.6c0.1-0.1,0.2-0.1,0.4-0.2l0.9-0.4l-23.2-27.9l0.5-0.4l-2.9-3.5c0,0-0.6,0.2-0.6,0.2l-8.4-10.2l0.5-0.4
		l-6.8-8.2l-0.3,0.6l-6.2-7.4l0.4-0.5l-3.5-4.2l0,1l-0.2-0.2c0-0.4-0.1-0.8-0.2-1.1l0-0.2l-1.4-1.7c0,0,0,0,0-0.1l0.3-0.2l-0.3-0.8
		c-0.2-0.4-0.4-0.7-0.4-1.1l2.2,2.6l-0.1,0l0.7,0.8l5.4,6.2l0.1-0.1l4.2,4.8l-0.1,0l0.7,0.8l6.3,7.3l0.1,0l1.7,2l0,0.2l0.2,0.2
		l1.5,1.8l0.2,0l9.5,11l-0.1,0.1l0.5,0.6l2.8,3.2l0-0.2l3.5,4.1l0.1,0.3l4.1,4.7l1.4-0.8l-0.1-0.3l-21-26.9c0,0,0,0,0,0
		c0.6-0.5,1.4-1.2,1.6-2.3l0-0.1l-0.1-0.5l2,2.4c-0.6,0.8-0.9,2-0.6,3.1c0.3,1,1,1.7,2,1.8l0.2,0l0.2-0.1c0.5-0.2,1-0.6,1.3-1.1
		l4,4.9c0,0.2,0.1,0.3,0.1,0.5l0,0.4l0.3,0.2c0.3,0.2,0.6,0.7,0.9,1.2c0.2,0.3,0.4,0.6,0.6,0.9c0.1,0.8,0.4,1.3,0.7,1.8
		c0.3,0.4,0.4,0.7,0.5,1.3l0,0.4l0.4,0.2c0.2,0.1,0.3,0.5,0.4,0.8c0.3,0.7,0.8,1.8,2.1,1.8c0.1,0,0.1,0,0.2,0l0.8-0.1
		c0,0,0-0.8,0-0.8l37.8,46.4l1.3-1l-38.8-55.8c0.6-0.4,1.3-1,1.6-2l0-0.1l0-0.3l1.5,2.1c-0.6,0.7-0.9,1.8-0.7,2.8
		c0.2,1,0.9,1.6,1.8,1.8l0.2,0l0.2,0c0.5-0.1,0.9-0.4,1.2-0.9l3.4,4.6c0,0.1,0,0.3,0,0.4l0,0.4l0.3,0.2c0.3,0.2,0.5,0.6,0.7,1.1
		c0.1,0.3,0.3,0.6,0.5,0.9c0.1,0.8,0.3,1.3,0.6,1.7c0.2,0.4,0.4,0.7,0.4,1.2l0,0.4l0.3,0.2c0.1,0.1,0.2,0.4,0.3,0.7
		c0.2,0.7,0.7,1.8,2,1.8h0.8l0.1-0.8c0-1.1-0.3-1.9-0.6-2.6c-0.2-0.4-0.3-0.7-0.4-1.2l0-0.1l-10.7-16.2c1-0.2,1.7-0.7,2.2-1.6l0-0.1
		l1.7,2.4c-0.1,0.1-0.2,0.2-0.2,0.3l-0.3,0.4l2.6,3.8l0.5-0.8l3.2,4.7c0,0.1,0,0.3,0,0.4l0,0.4l0.3,0.2c0.3,0.2,0.5,0.6,0.7,1.1
		c0.1,0.3,0.3,0.6,0.5,0.9c0,0.3,0.1,0.5,0.1,0.8l0,0.1l2.6,3.7l1.4-0.6c-0.1-0.5-0.3-0.9-0.4-1.4c-0.1-0.3-0.2-0.6-0.3-0.9l0-0.1
		l-18.6-30.3c0.9-0.2,1.6-0.6,2-1l51.5,80l1.4-0.8l-37.9-69.8c0.8-0.1,1.4-0.4,1.8-0.8l11.5,20.2l1.1-0.6l1-0.1l-4.4-8.7l-0.4,0.4
		l-3.9-7.8l0.6,0l-0.5-1.1l-1.9-3.9l0.4,0l-1.2-1.4c-0.2-0.3-0.4-0.5-0.7-0.8c-0.4-0.5-0.8-0.9-1.1-1.4l-16.3-32.1
		c0.6-0.3,1.1-0.7,1.5-1l19.1,35.8l0.2,0.7l2.8,5.3l0.1-0.1l1.4,2.7l-0.1,0.1l4.5,8.4l0.2-2.4l0.4-0.2l-3.3-7.1
		c0.1,0,0.3-0.1,0.5-0.1l0.2-0.1l0.1-0.1c0.9-0.8,1.4-1.8,1.6-3l27.3,55.2l1.5-0.7l-17.1-42.3c0.1,0,0.2,0,0.3-0.1l0.2,0l0.1-0.1
		c1.2-1,1.8-2.4,1.8-4.2l0-0.2l-0.3-0.6c-0.2-0.5-0.4-0.9-0.5-1.4l0.6-0.2l-2.2-5.9l0.1-0.1l-0.3-0.6l-1.9-5.2
		c0.2,0,0.5,0.1,0.7,0.1c0.6,0.1,1.2,0.2,1.8,0.2c0.2,0,0.4,0,0.6,0l1.1,2.9c0,0-0.8,0.4-0.8,0.4l3.8,9.5l1.5-0.2c0-0.2,0-0.2,0-0.3
		l0-0.2l-0.2-0.6c-0.3-0.8-0.7-1.7-0.4-2.5l0.1-0.2l-6.4-18.9c0.8-0.5,1.4-1.1,2.1-1.7l5.6,15.5l0,0l0.3,2.7l0.6-0.1l16.2,44.8
		l-0.4,0l0,0.7c-0.1,1.5,0.8,2,1.4,2.4c0.1,0,0.1,0.1,0.2,0.1l4.5,12.3l1.5-0.5L237,123.1c0.7-0.4,1.3-0.9,1.9-1.3l3.6,11.9l1.5-0.4
		l-3-12c0.1,0.1,0.3,0.1,0.4,0.2l0.4,0.2l0.4-0.2c0.5-0.3,1-0.7,1.4-1l0.6,2.1l0.2,0l1.1,4l1.6-0.4l-4.5-20.8
		c0.7,0.3,1.3,0.8,1.8,1.4l0.3,0.5l0.6-0.2c0.3-0.1,0.5-0.1,0.7-0.1c0.1,0,0.2,0,0.4,0l16.4,68.7l1.6-0.3l-2-12.2
		c0.9-0.5,1.2-1.3,1.2-2c-0.1-1-0.9-1.8-1.8-2l-6.6-41c0.6,0.3,1.1,0.8,1.4,1.3l0.3,0.5l0.6-0.2c0.2-0.1,0.4-0.1,0.6-0.1
		c0.1,0,0.2,0,0.4,0l0.9,4.7l1.6-0.3l-1.2-8.7c0,0,0.9,0,0.9,0l0.1-0.8c0-1.2-0.5-2-1.4-2.4l-6.8-50.9c0-0.1,0-0.2,0.1-0.3l0.1-0.2
		l-1.2-9.2l0.4,0c0.4,0,0.8,0,1.1-0.1l2.1,13.6c-0.3,0.3-0.5,0.8-0.4,1.5l0,0.2l0.1,0.2c0.2,0.3,0.4,0.5,0.7,0.7l3.1,20.3l-1-0.1
		l0.7,4.7l3,19.3l0.8-0.1c0,0,0.1,0,0.1,0l0.1,0.7c-0.1,0.1-0.1,0.1-0.2,0.1l-0.7,0.2l1,6.2l0.6,0.1c0.1,0,0.2,0,0.3,0l0.4,2.7
		l1.6-0.2L263,99.9c0,0,0.2,0,0.2,0l0.8,0l0-0.8c0-1.3-0.5-2.2-1.4-2.6l-5.7-55.6c0-0.3,0.2-0.6,0.5-0.7c0,0,0,0,0,0
		c0.4,0,0.6,0.2,0.7,0.5l17.8,143.4l1.6-0.1l-3.4-70.1c0,0,1,0.1,1,0.1l0.1-0.8c0.1-1.2-0.3-2.1-1.2-2.5l-2.5-51.3
		c0-0.3,0.2-0.5,0.5-0.5c0.3,0,0.5,0.2,0.5,0.5l4.7,68.5l1.6-0.1l-0.4-20.5l0.6,0.2l-0.1-4.1l-0.6,0.1l-0.4-20l0.6,0.3l-0.1-4.3
		l-0.6,0l-0.3-15c0.4-0.6,0.3-1.5,0-2.2l-0.8-38.8c0-0.3,0.2-0.5,0.5-0.5h0c0.3,0,0.5,0.2,0.5,0.5l4,98.2l1.6,0l0.3-30.2
		c0,0,0,0,0,0c0.2,0,0.5,0,0.7-0.2l0.2-0.1l0.1-0.2c0.4-0.4,0.5-1.1,0.4-1.8c-0.1-0.7-0.4-1.3-0.9-1.6l-0.2-0.1l-0.2,0
		c-0.1,0-0.1,0-0.2,0l0.2-22c0.2,0,0.4,0.1,0.6,0.1c0.2,0,0.5,0,0.8-0.1l0.3-0.1l0.2-0.3c0.5-0.8,0.5-1.7,0.1-2.5
		c-0.4-0.7-1.1-1.1-1.9-1.2l0.2-16.4c0.4-0.7,0.4-1.6,0-2.3l0.4-42.2c0-0.3,0.3-0.6,0.6-0.6c0.3,0,0.6,0.3,0.6,0.6l1.8,172.9l1.6,0
		l4.3-66.1c0,0,0,0,0.1,0c0.2,0,0.4,0,0.6-0.1l0.2-0.1l0.1-0.1c0.4-0.4,0.5-1,0.5-1.7c0-0.7-0.3-1.3-0.7-1.6l-0.2-0.1
		c0,0-0.3,0-0.3,0l1.3-20.1c0.2,0.1,0.4,0.1,0.6,0.1c0.2,0,0.4,0,0.6,0l0.3-0.1l0.2-0.3c0.5-0.7,0.6-1.7,0.1-2.4
		c-0.3-0.6-0.9-1-1.6-1.2l1-14.9c0.4-0.6,0.4-1.5,0.1-2.2l2.5-38.7c0-0.3,0.2-0.5,0.5-0.5c0.3,0,0.5,0.2,0.5,0.5l-4.3,98.8l1.6,0.1
		l5.8-63.1c0-0.1,0.1-0.2,0.1-0.3l0.2-0.2l3.3-34.9c0-0.3,0.2-0.5,0.5-0.5c0.3,0,0.5,0.3,0.5,0.5l-7.1,96.6l1.6,0.2l9.9-80.5
		c0-0.3,0.3-0.5,0.6-0.5c0.4,0,0.6,0.3,0.6,0.7l-11.3,111.7c0-0.1-1-1.3-1-1.3l-0.5,1.3c-0.1,0.2-0.3,0.3-0.8,0.5
		c-0.4,0.2-0.9,0.3-1.3,0.7l-0.2,0.2l-0.2,2.7l0,0.1c0,0.1,0,0.2,0,0.3l0,0.1l-0.6,8.5l0.5,0.2c0.3,0.1,0.5,0.2,0.8,0.3l0.5,0.1
		l0.3-0.4c0.4-0.6,0.9-1.2,1.3-1.8l-2.1,20.7l1.6,0.2l1.7-9.3c0.3,0.5,0.8,0.8,1.6,1l0.5,0.1l0.3-0.4l0.3-0.4l2.6-12.6l-1.6,1.1
		c-0.1,0.1-0.3,0.2-0.6,0.2c-0.4,0.1-0.9,0.3-1.3,0.7l18.4-103.2c0-0.2,0.2-0.4,0.5-0.4c0.4,0.1,0.5,0.3,0.5,0.6l-10.6,67.9l1.6,0.3
		l1.3-6.1l0.5,0.2l0.2-1l0.4-1.9c0,0-0.5-0.3-0.5-0.3l9-43.4l0.6,0.1l0.9-4.3l-0.3-0.3c-0.1-0.1-0.2-0.2-0.3-0.3l4.7-22.8
		c0.3-0.3,0.5-0.5,0.8-0.5l0.5-0.1l0.1-0.5c0.1-0.5,0.3-0.9,0.6-1.1l-0.8,4.1c-0.5,0.6-0.8,1.5-0.9,2.5l0,0.4c0,0,0.3,0.3,0.3,0.3
		l-12.9,69.6l1.6,0.3l3.4-14.3c0.1,0,0.2,0,0.3,0c0.6,0,1-0.2,1.3-0.3l0.5-0.2l0-0.5c0-0.6-0.3-1.3-1.3-1.9l11.2-47
		c0.2,0,0.3,0,0.5,0c0.1,0,0.2,0,0.4,0l0.3,0l0.2-0.2c0.7-0.8,1-2.2,0.7-3.3c-0.2-0.6-0.5-1.1-0.9-1.4l5.9-24.6
		c0.3-0.3,0.6-0.5,0.9-0.6l0.5-0.1l0.1-0.5c0.2-0.6,0.4-1,0.8-1.3l-1,4.6c-0.6,0.7-0.9,1.5-1,2.6l0,0.4c0,0,0.3,0.3,0.4,0.3
		l-30.4,139.8l1.5,0.4l14.8-49.8c0.1,0,0.2,0,0.4,0c0.5,0,0.8-0.2,1.1-0.3l0.5-0.2l0-0.5c0-0.7-0.4-1.3-1.1-1.8l12.6-42.5
		c0.2,0,0.4,0.1,0.6,0.1l0.5,0l0.2-0.2c0.7-0.7,1.1-2,0.8-3.1c-0.1-0.6-0.4-1-0.7-1.4l6.6-22.3c0.3-0.3,0.6-0.4,0.8-0.5l0.5-0.1
		l0.1-0.5c0.2-0.5,0.4-0.8,0.6-1l-1.1,4c-0.6,0.6-0.9,1.4-1.1,2.4l-0.1,0.4c0,0,0.3,0.3,0.3,0.3l-18.9,68.9l1.5,0.5l19.7-60.2
		c0-0.1,0.1-0.2,0.2-0.3l0.2-0.2l3.9-11.8c0.3-0.3,0.6-0.4,0.8-0.5l0.5-0.1l0.2-0.5c0.2-0.5,0.4-0.8,0.7-1l-1.2,3.9
		c-0.6,0.6-1,1.3-1.2,2.3l-0.1,0.4c0,0,0.3,0.3,0.3,0.3l-20.4,66.4l1.5,0.5l27.5-76.3c0.1-0.2,0.3-0.4,0.6-0.4c0.1,0,0.1,0,0.2,0
		c0.3,0.1,0.5,0.5,0.4,0.8l-46.2,136.9l1.5,0.6l48.7-114.9c0.1-0.2,0.3-0.3,0.5-0.3c0.1,0,0.1,0,0.2,0c0.3,0.1,0.4,0.4,0.3,0.6
		l-25.5,63.8l1.5,0.6l43.3-94.9c0.1-0.2,0.2-0.3,0.4-0.3c0,0,0,0,0,0c0.1,0,0.2,0,0.2,0c0.2,0.1,0.4,0.4,0.2,0.6l-39,90.3l1.5,0.7
		l53.7-108.6c0.1-0.2,0.3-0.3,0.5-0.3c0.1,0,0.2,0,0.3,0.1c0.3,0.1,0.4,0.5,0.3,0.8l-73.4,156.6l1.4,0.7l73.7-130.7
		c0.1-0.2,0.3-0.3,0.4-0.3c0.1,0,0.2,0,0.3,0.1c0.2,0.1,0.3,0.4,0.2,0.7l-46.8,87.2l1.4,0.8l21.1-35.1l0.1,0.1l0.4-0.6l5-8.3l-0.3,0
		l6.2-10.4c0.1-0.1,0.1-0.2,0.3-0.2l0.3-0.1l18.1-30c0.1-0.1,0.3-0.2,0.4-0.2c0.1,0,0.2,0,0.3,0.1c0.2,0.1,0.3,0.4,0.2,0.7l-48.3,84
		l1.4,0.8L402.3,97c0.5,0.2,1,0.5,1.6,0.7L341,200.4l1.3,0.9l59.9-83c0.4,0.2,0.8,0.5,1.3,0.7l-26.4,38.3l1.3,0.9l32.7-42.8l0.1,0
		l0.3-0.2c0.3-0.2,0.6-0.3,0.8-0.5l2.1-1.1l-1.1-0.2l2.4-3.1l-1.2,0.5l7.1-9.3c0.1,0,0.3,0.1,0.4,0.1c0.4,0.1,0.9,0.2,1.2,0.3
		c0,0,0.1,0.1,0.1,0.1l-2.3,3.2h-0.1l-0.2,0.3l-1.5,2l0.1,0.1l-2.4,3.2l-0.3,0.3l-1.8,2.4l0.1,0l-30.5,41.6l1.3,1l41.9-51.4l0.1,0
		l0.3-0.2c1.1-0.6,2.4-1.1,3.8-1.4l-43.7,56c-1.2,0.4-2.1,1.1-2.5,1.9c-0.3,0.5-0.4,1.1-0.3,1.7l-3.9,5c0.1-0.4,0.2-0.7,0.2-1.1
		c0.1-0.4,0.2-0.9,0.3-1.3l0.2-0.7l-0.7-0.2c-0.3-0.1-0.6-0.1-0.8-0.1c-0.9,0-1.4,0.5-1.8,0.9c-0.3,0.3-0.4,0.4-0.6,0.4l-0.2,0
		l-0.2,0.1c-0.1,0.1-0.3,0.2-0.4,0.2c-0.9,0.5-2,1.2-1.9,3.3l0,0.1l0,0.1c0.3,0.9,1,1.9,2.7,2.3l-21.5,27.5l1.2,1L374,183
		c0,0.1,0,0.3,0,0.4l0,0.1l0,0.1c0.3,1,1,1.8,2.1,2.2l0.5,0.2l2.7-2.9l0.1-0.2c0.1-0.5,0.3-1.1,0.4-1.6c0.1-0.4,0.2-0.8,0.3-1.2
		l0.2-0.7l-0.7-0.3c-0.3-0.1-0.6-0.2-0.9-0.2c-0.8,0-1.3,0.4-1.6,0.7c-0.2,0.2-0.3,0.3-0.5,0.3l48.4-53.2l0.1,0l0.3-0.2
		c1-0.5,2.1-0.9,3.4-1.1l-35.3,40.5l0.4,1.9l1.1-1.1l5.3-5.5l0-0.2l3.8-3.9l0.2,0l0.3-0.2l0.2-0.2l0-0.2l16.8-17.5l0.1,0.1l0.5-0.4
		l3-3.1l-0.3,0L435,125l0.1,0.1l0.6-0.5l6-6.2c0.1,0,0.3,0.1,0.4,0.1c0.4,0.1,0.9,0.3,1.1,0.5c0,0,0.1,0.1,0.1,0.1l-2.7,2.9
		c0,0,0,0,0,0c-0.9,0-1.6,0.4-2,1.2l-0.1,0.2l0,0.2c0,0.2,0,0.4,0.1,0.6l-2.7,3c-0.3,0-0.6,0-0.9,0l-0.4,0l-2.7,3l1.5-0.2
		l-33.9,36.6l0.7,0.7c0,0.1,0,0.1,0.1,0.2c0.2,0.3,0.5,0.7,1,0.7c0.3,0,0.6-0.1,0.7-0.4c0.2-0.3,0.2-0.7,0.1-1
		c-0.1-0.1-0.1-0.2-0.2-0.3l1.7-1.6c0.4,0.8,1.1,1.2,2,1.2c0.2,0,0.5,0,0.8-0.1l0.2,0l-6.4,6.6c0,0-0.1,0-0.1,0l-0.5,0.1l-0.1,0.5
		c0,0.1,0,0.1,0,0.2L358.5,215l1.1,1.2l18-15.8c0.1,0.2,0.2,0.4,0.3,0.6c0.3,0.4,0.9,0.7,1.5,0.7c0.9,0,1.5-0.6,1.6-1.5l0-0.7
		l-0.7-0.1c0,0-0.1-0.1-0.2-0.1c-0.2-0.1-0.4-0.3-0.7-0.5l17.7-15.5c0.2,0.2,0.4,0.3,0.7,0.3c0.3,0,0.5-0.1,0.7-0.3
		c0.2-0.3,0.3-0.7,0.1-1c0-0.1-0.1-0.2-0.1-0.2l1.5-1.3c0.4,0.7,1,1.1,2,1.1c0.2,0,0.4,0,0.5,0l0.3,0l0.2-0.2c0.4-0.4,0.5-1,0.5-1.7
		c0-0.7-0.3-1.3-0.7-1.6l0,0l0.8-0.7l0,0.2l0.6,0c0.2,0,0.4,0,0.6,0c1.1,0,2-0.2,2.7-0.6l-4.1,3.8l1.1,1.2l26-21.6l0.4,0.5l0.7-0.6
		c-0.2,0.4-0.4,0.9-0.4,1.6l0,0.2l0.1,0.2c0.1,0.1,0.1,0.3,0.2,0.4l-0.2,0.2l0.1,0.1l-12.7,11l0-0.1l-1,0.8l-3,2.6l0.1,0.1l-3.6,3.1
		l1,1.2l35.1-27.4c0.1,0.1,0.1,0.3,0.1,0.5c0.1,1,0.4,1.8,0.7,2.5l-14.4,11.8l-0.1-0.2l-0.9-0.1c-0.4,0-0.9-0.1-1.3-0.1
		c-1.5,0-2.4,0.6-2.7,1.8l-0.1,0.3l0.1,0.2c0.2,0.4,0.5,0.8,0.9,1.1l-55.4,45.1l1,1.3l65.2-45.4c0,0.1,0.1,0.2,0.1,0.3
		c0,0.9,0.2,1.6,0.5,2.3l-13.7,10l-0.1-0.1l-0.8-0.1c-0.5-0.1-1-0.1-1.5-0.1c-1.6,0-2.1,0.9-2.3,1.6l-0.1,0.3l0.1,0.3
		c0.2,0.4,0.4,0.7,0.8,1.1l-5.3,3.8l-0.3,2.1l1.5-0.9l3.4-2.2l-0.1-0.1l8.5-5.6l0.1,0.1l12.5-8.1c0,0.1,0,0.2,0.1,0.3
		c0,0.9,0.2,1.6,0.4,2.3l-14,9.6l-0.1-0.1l-0.6-0.1l-0.3-0.1l-0.4,0.2l-3.2,2.2l0.6,0.6l-2.9,2l0.9,1.3l9-5.5c0.7,0.6,1.9,1.1,3,1.1
		c0.1,0,0.1,0,0.2,0l-64,41.2l0.8,1.4l52.6-28.5c0.6,0.6,1.7,1.1,2.7,1.2l-4.9,2.8l0.8,1.4l76.7-38.8l0.6,0.1c0.2,0,0.4,0.1,0.6,0.1
		c1.2,0,2-0.7,2.2-1.9l12.9-6.6c0.1,0,0.1-0.1,0.2-0.1c0.2,0,0.4,0.1,0.5,0.3c0.1,0.2,0,0.5-0.2,0.7l-33.7,18l-0.1,0l-0.4,0.2
		l-1.6,0.9c0,0-0.1,0.2-0.1,0.2l-50.9,27.1l0.7,1.4l91.7-43l0.7,0.1c0.3,0.1,0.5,0.1,0.8,0.1c1.2,0,2-0.7,2.3-2l14.3-6.7
		c0.1,0,0.2-0.1,0.3-0.1c0.2,0,0.4,0.1,0.5,0.3c0.1,0.3,0,0.7-0.3,0.8l-37.2,18.4c-0.2-0.1-0.4-0.1-0.6-0.1l-0.2,0l-0.2,0.1
		c-0.6,0.2-1.1,0.8-1.5,1.2L387,239l0.7,1.5l122.1-49.3l0.6,0.2c0.3,0.1,0.6,0.1,0.9,0.1c1,0,1.8-0.6,2.1-1.7l13.5-5.4
		c0.1,0,0.1,0,0.2,0c0.2,0,0.4,0.1,0.5,0.3c0.1,0.3,0,0.5-0.3,0.6l-35.1,15c-0.2-0.1-0.3-0.1-0.5-0.1l-0.2,0l-0.2,0.1
		c-0.5,0.2-1.1,0.6-1.5,1.1l-53.6,23l0.6,1.5l59.4-22.2c0,0,0.1,0,0.2,0c0,0,0,0,0,0c0.1,0,0.1,0,0.2,0l0.3,0.1l15.7-5.8l0.6,0.2
		c0.3,0.1,0.7,0.2,0.9,0.2c0.6,0,1.6-0.2,2.1-1.7l13.6-5c0.1,0,0.1,0,0.2,0c0.2,0,0.4,0.1,0.5,0.3c0.1,0.3,0,0.5-0.3,0.6l-35.5,14
		c-0.2-0.1-0.3-0.1-0.5-0.1l-0.2,0l-0.2,0.1c-0.5,0.2-1.1,0.6-1.5,1l-52.3,20.6l0.6,1.5l76.8-26c0.1,0,0.1,0,0.2,0
		c0.3,0,0.5,0.2,0.6,0.4c0.1,0.3-0.1,0.7-0.4,0.8l-39.7,14.4c-0.3-0.1-0.6-0.2-1-0.2l-0.6,0l-0.2,0.6c0,0.1,0,0.2-0.1,0.2
		l-94.3,34.2l0.5,1.5l120.1-33.6c0,0,0.1,0,0.1,0c0.2,0,0.4,0.2,0.5,0.4c0.1,0.3-0.1,0.5-0.3,0.6l-37.1,11.2
		c-0.3-0.1-0.6-0.2-0.9-0.2l-0.6-0.1l-0.2,0.6c0,0.1,0,0.1-0.1,0.2l-26.9,8.1l0.4,1.5l52.4-13.1c0.1,0,0.1,0,0.2,0l0.6,0l0.1-0.2
		l48-12l0.1,0c0.2,0,0.4,0.2,0.5,0.4c0.1,0.3-0.1,0.5-0.3,0.6l-94.9,25.8l0.4,1.6l65-14.1c0.1,0,0.2,0,0.2,0l0.6,0l0.1-0.2
		l52.6-11.4c0,0,0.1,0,0.1,0c0.3,0,0.5,0.2,0.6,0.5c0.1,0.3-0.1,0.7-0.5,0.7L514.8,234c0.1-0.1,0.2-0.2,0.3-0.3
		c0.2-0.3,0.1-0.7-0.1-1l-0.2-0.3l-0.5,0c-0.4,0-0.9,0.2-1.1,0.6c-0.2,0.3-0.1,0.7,0.1,1l0.2,0.3l0.1,0l-113.1,27.1
		c-0.1-0.1-0.1-0.2-0.2-0.3l-0.3-0.5l-0.5,0.2c-0.5,0.1-1,0.5-1.3,1.2l-3.4,0.8l0.3,1.6l98.5-15.8c0.1,0,0.1,0,0.2,0l0.6,0.1
		l0.1-0.2l48.8-7.8l0.1,0c0.2,0,0.4,0.2,0.5,0.4c0,0.3-0.1,0.5-0.4,0.6l-44.6,8.1c0-0.1,0.1-0.1,0.1-0.2c0.2-0.3,0.1-0.7-0.1-1
		l-0.2-0.3l-0.5,0c-0.3,0-0.8,0.2-1,0.6c-0.2,0.3-0.1,0.7,0.1,1l0.2,0.2l-51.3,9.4l0.2,1.6l17-2.3l0,0.1l1-0.1l30.3-4
		c0.1,0,0.1,0,0.2,0l0.6,0.1l0.1-0.2l10.9-1.4l-0.4-0.2c2-0.3,3.2-0.4,3.3-0.4c0,0,0.1,0,0.2,0.1l0.2,0.1l34.8-4.6l0.1,0
		c0.2,0,0.4,0.2,0.4,0.4c0,0.3-0.1,0.5-0.4,0.6l-44.8,6.8c0.1-0.1,0.1-0.1,0.1-0.2c0.2-0.3,0.2-0.7,0-1c-0.2-0.3-0.4-0.4-0.8-0.4
		c-0.4,0-0.8,0.2-1,0.6c-0.2,0.3-0.2,0.7,0,1c0.1,0.1,0.1,0.2,0.2,0.2l-49.6,7.6l0.2,1.6l30.8-3.2c0,0.5,0.1,1,0.3,1.4l0.2,0.4
		l1.9,0.2l-2.3,0.3c-0.7-1.2-1.8-1.8-3.2-1.8c-0.4,0-0.8,0-1.2,0.1l-0.4,0.1l-0.2,0.3c-0.3,0.6-0.3,1.2-0.1,1.7
		c0,0.1,0.1,0.1,0.1,0.2l-21.3,2.6l-0.1-0.9l-2.3,0.4l0.1,0.8l-46,5.7l0-0.1l-0.8-0.1c-0.9-0.1-1.4-0.4-2.1-0.8
		c-0.6-0.3-1.3-0.7-2.3-0.9l-0.5-0.1l-0.3,0.4c-0.2,0.2-0.3,0.4-0.5,0.6c-0.5,0.8-0.9,1.1-1.5,1.1c-0.2,0-0.5-0.1-0.9-0.2l-0.8-0.3
		l-0.2,0.8c-0.1,0.3-0.1,0.5-0.2,0.8l-8.8,1.1l0.1,1.6l74.3-3.6l-0.2,0l-0.2,0.3c-0.3,0.5-0.4,1.1-0.2,1.6c0,0,0,0.1,0,0.1
		l-17.6,1.2l0.1,1.6l21.6-0.4l0.1,0.6l0.8,0c0,0.2,0,0.4,0,0.6l0.1,0.5l0.4,0.2c0.3,0.1,0.5,0.2,0.8,0.2c0.3,0,0.6-0.1,0.8-0.2
		l0.2-0.1l0.1-0.2c0.3-0.4,0.4-0.9,0.3-1.5l20.6-0.4c0.1,0.5,0.3,1.1,0.6,1.6c0.1,0.2,0.1,0.4,0.1,0.6l-9.9,0.4l0-0.1l-0.2,0
		l-0.2-0.8c0-0.1,0-0.2-0.1-0.2l-0.1-0.2l-0.2-0.1c-0.5-0.3-1.1-0.5-1.6-0.5c-0.6,0-1.2,0.2-1.7,0.7l-1.4,1.3l0.6,0
		c0,0.1,0,0.1,0,0.2l-25.7,1.1l0,1.6l31.4,0.3c0.1,0.5,0.3,1,0.7,1.4c0.5,0.5,1.1,0.8,1.7,0.8c0.3,0,0.6-0.1,0.8-0.2l0.2-0.1
		l0.1-0.2c0.3-0.5,0.4-1,0.3-1.7l22.5,0.2c0.1,0.6,0.3,1.2,0.6,1.8c0.1,0.3,0.1,0.5,0.1,0.7l-11.1,0.1c0-0.4-0.1-0.8-0.2-1.3
		l-0.1-0.3l-0.2-0.1c-0.6-0.4-1.2-0.6-1.8-0.6c-0.8,0-1.5,0.3-2,0.9c-0.4,0.4-0.6,0.9-0.7,1.4l-94.1,1l0,1.6l28.2,1.8
		c1,0.8,2.6,1.2,4,1.4c-0.6,0.4-0.7,1-0.7,1.3l0,0.7l0.7,0.1c0.1,0,0.1,0,0.2,0.1c0.2,0.1,0.5,0.2,0.9,0.2c0.2,0,0.4,0,0.7-0.1
		l0.6-0.2l-0.3-2.4l-0.8,0c-0.1,0-0.2,0-0.3,0c0.3-0.2,0.6-0.5,0.9-0.7l33,2.1c0.1,0.5,0.3,1,0.6,1.3c0.4,0.5,1,0.8,1.7,0.8
		c0.2,0,0.5,0,0.7-0.1l0.3-0.1l0.2-0.2c0.3-0.4,0.4-0.9,0.4-1.5l20.6,1.3c0.1,0.5,0.2,1.1,0.4,1.6c0.1,0.3,0.1,0.4,0,0.6l-10.1-0.4
		c0-0.3,0-0.7-0.1-1.1l-0.1-0.3l-0.2-0.2c-0.6-0.4-1.2-0.6-1.8-0.6c-0.7,0-1.4,0.3-1.9,0.8c-0.3,0.3-0.5,0.7-0.7,1.2l-26.4-1.2
		l-0.1,1.6l27.7,2.5l0.1,0.1l0.3,0.1l0.8,1.6l-2.4-0.2l-0.2,0.5c-0.1,0.1-0.1,0.3-0.2,0.4l-24.3-1.8l-0.2,1.6l42.2,5.2
		c0.2,0.3,0.3,0.6,0.5,0.9c0.3,0.4,0.5,0.9,0.7,1.3l-106.9-10.8l-0.2,1.6l87.8,15.6c0.1,0.3,0.3,0.5,0.4,0.8
		c0.2,0.4,0.4,0.7,0.6,1.1l-34-5.3l-0.3,1.6l50.1,10.4l0,0.7l1.2,0.3c-0.2,0.3-0.4,0.5-0.7,0.6c-0.1,0-0.7,0.1-0.7,0.1
		s-0.2,0.5-0.2,0.5l-44.5-8.2l-0.3,1.6l61.7,14.8c0,0.8-0.2,1.6-0.5,2.4l-112.7-24.5l-0.4,1.5l92.9,27.6c-0.1,0.7-0.2,1.4-0.5,2
		l-44.2-12.2l-0.5,1.5l41.7,13.6l-0.3,0.1l2.1,0.7c0,0.4-0.1,0.8-0.2,1.2l-0.1,0.3c0,0-0.2,0.5-0.2,0.6l-48.9-15l0,1.1
		c0,0.7-0.1,1.3-0.2,1.9c-0.1,0.5-0.1,0.9-0.2,1.4l-54.3-18.3l-0.6,1.5l40.4,17.1c0,0.5-0.1,1-0.2,1.5c-0.1,0.6-0.2,1.1-0.3,1.8
		l0,0.5l74.2,33.9c-0.2,0-0.4-0.1-0.6-0.1c-0.1,0-0.3,0-0.5,0c-0.8,0.1-1.4,0.3-1.9,0.6L445.4,358c-0.1-0.1-0.2-0.2-0.3-0.3
		l-0.1-0.1l-1.2-0.5l-0.1,0c-0.1,0-0.3,0-0.4,0l-9.3-4l-0.7,1.5l77.6,38.4c-0.3-0.1-0.6-0.2-0.9-0.4c-0.5-0.3-1.1-0.6-1.9-0.6
		c-0.1,0-0.3,0-0.4,0c-0.9,0.1-1.5,0.3-2.1,0.6l-48.8-22.9c-0.7-0.7-1.4-1-2.2-1l-17.7-8.3l0-0.2l-0.4-0.1c-0.2-0.1-0.3-0.4-0.5-0.8
		c-0.3-0.7-0.8-1.7-2-1.7c-0.1,0-0.2,0-0.3,0l-0.8,0.1c0,0,0.1,0.8,0.1,0.9l-8.9-4.2c0.5-0.5,0.9-1,1-1.6l0.1-0.8l-0.8-0.1
		c-0.5-0.1-1-0.1-1.5-0.1c-1.2,0-2.1,0.3-2.6,0.9L390,338.3c0-0.7-0.2-1.3-0.6-1.8c-0.7-0.9-2.1-1.4-3.6-1.4c-0.4,0-0.7,0-1.1,0.1
		l-0.5,0.1l-0.1,0.5c-0.1,0.5,0,1,0.2,1.3l0.3-0.3l-0.3,0.5l101.1,57c-0.3-0.1-0.6-0.1-0.9-0.1c-0.1,0-0.1,0-0.2,0
		c-0.8,0-1.4,0.2-1.9,0.5l-43.6-23.4c-0.6-0.7-1.3-1-2-1.1l-9.4-5.1l-0.8,1.4l2.6,1.6l0.4,0.3l2.7,1.6l0-0.1l7.7,4.6l0,0.1l0.5,0.4
		l3.6,2.2l0.2-0.1l1.3,0.8l-0.3,0l13.2,8l0.1-0.2l11.7,7l-0.3,0.1l6,3.6l0.3-0.1l1.8,1.1l-0.3,0.1l4.4,2.6c-0.3-0.1-0.6-0.2-1-0.2
		c-0.9,0-1.5,0.2-2,0.4l-42.9-24.7c-0.6-0.7-1.2-1.1-2-1.1l-7.5-4.3l-0.8,1.4l13.1,8.4c0,1.1-0.1,2.1-0.3,2.9L370.1,341l-0.9,1.3
		l52.3,37.7c-0.1,1-0.2,1.8-0.4,2.5l-7.3-5l-0.1-0.1l0,0l-0.5-0.3l-0.3,0.5c-0.2,0.1-0.4,0.1-0.5,0.3l-1,0.6l7.2,5.5
		c-0.1,1-0.2,1.8-0.5,2.5l-5.4-4l-1,1.3l1.6,1.3c0.2,0.8,0.3,1.6,0.2,2.4l-0.1,0.9l0.9,0c0.1,0,0.3,0.1,0.5,0.2
		c0.3,0.1,0.7,0.3,1.2,0.3c0.2,0,0.4,0,0.6-0.1c0.4-0.1,0.6-0.3,0.8-0.5l2.6,2.1c-0.2,0.2-0.3,0.4-0.5,0.5c-0.3,0.4-0.4,0.5-0.9,0.5
		l-0.1,0l-0.1,0c0,0-0.1,0-0.1,0c-0.1,0-0.2,0-0.4-0.2c-0.3-0.2-0.7-0.4-1.2-0.4c-0.4,0-0.7,0.1-1.2,0.3l-0.2,0.1l-6.2-4.8
		c0.4-0.3,0.7-0.9,0.6-1.6l0-0.1l-0.1-0.1c-0.7-1.4-0.9-2.8-0.4-3.9l0.4-0.9l-0.9-0.2c0,0-0.1,0-0.1,0l-0.1,0
		c-0.3-0.1-0.6-0.4-0.9-0.6c-0.6-0.5-1.3-1.1-2.5-1.1c-0.4,0-0.9,0.1-1.4,0.3l-0.2,0.1l-0.1,0.1c-0.7,0.7-1.1,1.6-1.3,2.7l-3.9-3.1
		c-0.3-0.4-0.7-0.9-1.4-1.1l-25.6-20l-1,1.2l20,18.1c-0.2,0-0.4,0.1-0.7,0.2l-0.2,0.1l-0.1,0.1c-0.7,0.6-1.1,1.4-1.4,2.4l-0.1,0.4
		l2.4,2.3c-1.2,0.5-1.7,1.4-2,2.2c-0.1,0.2-0.2,0.3-0.2,0.5l-0.3,0.5l3,3.1l0.6-0.5c0.4-0.4,0.6-0.9,0.6-1.5l0-0.1l0-0.1
		c-0.4-1-0.5-2-0.3-2.8l0.3,0.3l0,0l1.7,1.6l0.5-0.4c0.5-0.4,0.8-1,0.7-1.6l0-0.1l-0.1-0.1c-0.4-1-0.6-2-0.4-2.8l3.7,3.4
		c0.1,0.7,0.2,1.5,0.1,2.2l-0.2,0.8l0.9,0.1c0.1,0,0.2,0.1,0.4,0.2c0.3,0.2,0.7,0.4,1.2,0.4c0.1,0,0.3,0,0.4,0
		c0.3-0.1,0.6-0.2,0.7-0.4l2.2,2c-0.2,0.1-0.3,0.3-0.4,0.4c-0.3,0.3-0.4,0.4-0.8,0.4c0,0-0.2,0-0.2,0c-0.2,0-0.2,0-0.4-0.2
		c-0.3-0.2-0.7-0.4-1.2-0.4c-0.3,0-0.6,0.1-1,0.2l-0.4,0.2l-0.1,0.4c0,0.1,0,0.3-0.1,0.4l0,0.4l0.3,0.4l1.3,1.2
		c-0.2,0.1-0.3,0.3-0.4,0.4c-0.3,0.3-0.4,0.4-0.7,0.4l-0.1,0c0,0-0.2,0-0.2,0c-0.2,0-0.2,0-0.4-0.2c-0.3-0.2-0.7-0.5-1.3-0.5
		c-0.3,0-0.6,0.1-0.9,0.2l-0.4,0.1l-0.1,0.5l-0.1,0.5l0.2,0.2c-1.3,0.4-1.9,1.4-2.3,2.2l-11.3-11l0.4-0.1l-0.5-2.7l-2.4,0.4
		l-24.5-24l-1.2,1.1l27,30.7c-1.2,0.3-1.8,1.3-2.2,2L379,393l0.8,0.9H379l0.3,0.3c-0.7,0.4-1.1,0.9-1.6,1.4
		c-0.1,0.2-0.3,0.4-0.5,0.5l-0.5,0.5l7.8,9.9c-1.1,0.2-1.8,1-2.4,1.7c-0.2,0.2-0.4,0.5-0.6,0.7l-28.4-34.9l-1.3,1l6.4,9.2
		c0,0.1,0,0.2,0,0.3l0,0.3l0.2,0.2c0.1,0.1,0.3,0.2,0.4,0.2l11.4,16.3c-1,0.2-1.7,0.9-2.3,1.5c-0.2,0.2-0.4,0.4-0.6,0.6L367,404
		l-0.9,0l0.1,0.2c-0.7,0.3-1.2,0.8-1.7,1.3c-0.2,0.2-0.3,0.3-0.5,0.5l-0.5,0.4l0.3,0.4c-1.3,0.2-1.8,0.9-2.2,1.4
		c-0.1,0.1-0.2,0.2-0.3,0.3c-0.1-0.1-0.1-0.2-0.2-0.2c-0.3-0.4-0.6-0.9-1.2-1.2l-22.5-34.9l-1.4,0.8l8.2,15.1c-0.1,0-0.3,0-0.4,0
		l-0.4,0l-0.2,0.3c-0.4,0.7-0.7,1.8-0.6,2.8l0,0.2l1,2l1-0.4c0.6-0.2,1.3-0.5,1.8-0.9l4.6,8.5c-1.1,0.1-1.7,0.7-2,1.2
		c-0.1,0.1-0.2,0.2-0.3,0.3l-0.4,0.4l3.2,6.2l0.2,0.1c0.3,0.1,0.6,0.2,0.9,0.2c0.1,0,0.2,0,0.3,0c0.2,0,0.4-0.1,0.6-0.1
		c-0.3,0.3-0.7,0.6-1,1l-0.3,0.4l6.9,13.6l0.8-0.9c0.1-0.1,0.2-0.2,0.4-0.3c0.3,0.1,0.6,0.4,0.8,1c0,0.1-0.1,0.1-0.1,0.2l-0.3-0.6
		l-1.4,0.8l18,35.6c-0.1,0.1-0.2,0.2-0.3,0.4c-0.2,0.3-0.2,0.6-0.1,1l0.2,0.5l0.6,0c0.2,0,0.4,0.1,0.7,0.1l9.4,18.6l-0.3,0.2
		l0.1,0.5c0.1,0.4,0.4,1,1.3,1.5l1.5,3l0.2,1.1l0.4,0.1l3.9,7.7l0,0.1c-0.2,0.7-0.3,1.5,0,2.7c0.3,0.8,0.8,1.2,1.2,1.4
		c0.3,0.2,0.5,0.3,0.6,0.5c-0.1,0.1-0.2,0.3-0.4,0.5c-0.1,0.1-0.2,0.2-0.2,0.2l-6.2-11.6c0-0.1,0.1-0.2,0.1-0.3l0-0.2l-0.1-0.2
		c-0.2-0.5-0.6-0.8-1-1l-17.5-32.8l0-0.1l-0.1-0.3l-1.9-3.6l-0.1,0.1l-10.1-18.9l-1.4,0.7l21.7,46.4c-0.2,0.1-0.3,0.2-0.4,0.4
		c-0.2,0.3-0.2,0.6-0.1,1l0.2,0.5l0.6,0c0.2,0,0.5,0.1,0.8,0.2l9.7,20.6l-0.4,0.2l0.1,0.5c0.1,0.5,0.4,1.1,1.4,1.6l1.6,3.3l0.2,1.2
		l0.4,0.1l4,8.5l0,0.1c-0.2,0.8-0.4,1.6-0.1,2.9c0.3,0.9,0.8,1.3,1.3,1.6c0.3,0.2,0.5,0.4,0.6,0.6c-0.1,0.2-0.2,0.3-0.5,0.6
		c-0.1,0.1-0.2,0.2-0.3,0.3l-6.4-12.9c0-0.1,0.1-0.2,0.1-0.3l0-0.2l-0.1-0.2c-0.2-0.5-0.6-0.9-1-1.1l-17.9-36.3c0.1-1,0-2.2-0.6-3.1
		c-0.3-0.4-0.8-0.7-1.3-0.7l-39.9-80.6l-1.5,0.7l32.1,79.4c-0.1,0.1-0.3,0.2-0.4,0.4c-0.2,0.3-0.2,0.6-0.2,0.9l0.1,0.5l0.5,0.1
		c0.2,0,0.4,0.1,0.7,0.2l7.8,19.4l-0.3,0.2l0.1,0.5c0.1,0.5,0.3,1.1,1.2,1.6l1.3,3.1l0.1,1.1l0.4,0.1l3.2,8l0,0.1
		c-0.2,0.7-0.5,1.5-0.2,2.7c0.2,0.8,0.7,1.2,1.1,1.5c0.3,0.2,0.4,0.4,0.5,0.6c-0.1,0.1-0.2,0.2-0.4,0.4c-0.1,0.1-0.2,0.1-0.3,0.2
		l-5.2-12.1c0-0.1,0.1-0.2,0.1-0.3l0-0.2l-0.1-0.2c-0.1-0.5-0.5-0.9-0.9-1.1l-14.6-34.2c0.2-0.9,0.1-2.1-0.4-2.9
		c-0.3-0.4-0.7-0.7-1.1-0.8l-8.9-20.8l-1.5,0.6l22.2,59.3c0.1,0.2,0,0.3,0,0.4l-0.4,0.8l0.7,0.3l3,8.1l0,0.1
		c-0.2,0.7-0.5,1.5-0.3,2.7c0.2,0.8,0.7,1.3,1.1,1.6c0.3,0.2,0.4,0.4,0.5,0.6c-0.1,0.1-0.2,0.2-0.4,0.4c-0.1,0.1-0.2,0.1-0.3,0.2
		l-4.8-12.2c0-0.1,0.1-0.2,0.1-0.3l0.1-0.2l0-0.2c-0.1-0.5-0.5-0.9-0.8-1.1l-13.6-34.6c0.2-0.9,0.2-2.1-0.4-2.9
		c-0.3-0.4-0.7-0.7-1.1-0.8l-7.5-19.1l-1.5,0.5l26,76.8c0.1,0.3-0.1,0.7-0.4,0.8c-0.1,0-0.1,0-0.2,0c-0.3,0-0.5-0.2-0.6-0.4
		l-25.8-71.2c0.2-0.4,0.3-1,0.1-1.9l-0.2-0.6c0,0-0.8,0-0.8,0l-6.9-18.9c0.2-0.1,0.4-0.2,0.5-0.4c0.6-0.6,0.5-1.4,0.5-2l0-0.9
		l-0.8,0.1c0,0,0,0,0,0c-0.2-0.2-0.5-0.6-1.1-0.6c-0.1,0-0.3,0-0.4,0.1l-14.3-39.5l-1.5,0.5l33.6,120.1c0.1,0.3-0.1,0.5-0.3,0.6
		c0,0-0.1,0-0.1,0c-0.2,0-0.4-0.2-0.5-0.4l-19.9-65.7l-1.5,0.4l17.3,69.5c-0.6,0.2-1.1,0.4-1.6,0.6l-2.7-9.8l0.1,0l-1.1-4.2l-0.1,0
		l-13.5-49.5l-1.6,0.4l18.2,83.8c-0.7,0.2-1.3,0.4-1.9,0.7l-2.7-11.3c0.3-0.2,0.5-0.5,0.6-0.9c0.2-1-0.3-2.4-1-2.9l-0.3-0.2l-0.3,0
		l-28.4-118.6l-1.6,0.3L324.9,511c-0.6,0.1-1.1,0.3-1.6,0.5l-1.9-10.4c0.3-0.2,0.4-0.5,0.5-0.8c0.3-0.9-0.1-2.3-0.8-2.8l-0.3-0.2
		l-0.2,0l-9.3-51.2l-1.6,0.3l4.6,34.5l-0.2-0.1l0.2,1.6l1,7.8l0.2,0.1l1.8,13.7l-0.2,0l0.1,1.1l0.9,7.1c-0.6,0.1-1.1,0.3-1.6,0.4
		L315,502c0.3-0.2,0.5-0.5,0.6-0.8c0.3-0.9,0-2.3-0.7-2.8l-0.3-0.2l-0.2,0l-8-52.6l-0.9,0.3c-0.9,0.3-1.6,1-1.7,1.8
		c-0.1,0.5-0.1,1.5,1,2.6l0.2,0.2l0.2,0c0.1,0,0.2,0,0.2,0l5,48.5c-0.4-0.2-0.9-0.3-1.5-0.3l-0.1,0c0,0-0.3,0.1-0.3,0.1l-13.9-112.3
		l-1.6,0.1l2.3,47.3c-0.6,0.3-1,0.8-1.2,1.4c-0.2,0.5-0.3,1.5,0.8,2.6l0.2,0.2c0,0,0.4,0.1,0.4,0.1l2.1,44.6
		c-0.4-0.2-0.8-0.3-1.3-0.3l-0.1,0c0,0-0.2,0-0.2,0l-2.7-39.7l-0.2,0c-0.1-0.8-0.2-1.7-0.1-2.7l0.1-0.6l-0.5-0.2
		c-0.1-0.1-0.3-0.1-0.4-0.1l-1-0.3l-0.1,1l0.2,8.2l0.2,0.3c0.2,0.3,0.3,0.6,0.4,1l1.1,53.5c0,0-0.6,0.3-0.6,0.3l0.1,3.8l0.6-0.6
		l0.8,40.8C293.8,547.2,293.6,547.4,293.3,547.4L293.3,547.4z M269.1,442.5c-0.4,0.4-0.7,0.8-0.8,1.2l-0.1,0.5l0.4,0.3
		c0.2,0.2,0.5,0.3,0.8,0.4l1,0.3l0.3-4.1L269.1,442.5z M270,435.1c-0.7,0-1.4,0.2-1.8,0.6l-0.4,0.3l0.2,0.9c0.2,1,0.5,2.2,1.5,2.8
		l1.1,0.8l0.4-5.3l-0.8,0L270,435.1z M327.2,433.6c-0.2,0-0.5,0-0.7,0.1l-0.8,0.2l0.8,3.2l1-0.7c0.6-0.4,0.7-1.1,0.5-2.1l-0.1-0.6
		L327.2,433.6z M254.4,429.3c-0.7,0-1.3,0.2-1.8,0.7c-0.7,0.8-0.8,2-0.8,2.8l0,0.4l0.3,0.2c0.4,0.3,0.8,0.6,1.3,0.9l0.9,0.5l1-5.5
		L254.4,429.3z M259.4,422.8c0.1,0.1,0.2,0.1,0.3,0.2l1,0.6l0.3-2l-0.8-0.1c-0.1,0-0.2,0-0.3-0.1L259.4,422.8z M320.6,413.6l0.8,3.3
		l1-1.4c0.3-0.5,0.4-1.1,0.4-1.6l0-0.9l-0.8,0.1c0,0,0,0,0,0l0,0l-0.1,0c0,0,0,0,0,0L320.6,413.6z M223.2,411.7
		c-0.1,0.6,0.1,1.1,0.4,1.5c0.3,0.4,0.9,0.6,1.5,0.6c0.2,0,0.3,0,0.5,0l0.6-0.1l0.1-0.6c0.1-0.9,0-1.5-0.4-1.9
		c-0.2-0.2-0.6-0.5-1.3-0.5c-0.1,0-0.2,0-0.3,0l-0.6,0.1l0,0.2l-0.4-0.1L223.2,411.7z M192.9,403.7c-0.5,0-1,0-1.4,0.1l-0.6,0.1
		l-0.1,0.6c-0.2,0.9,0,1.5,0.1,2l0.5,1.5l3.1-4.2L192.9,403.7z M354.4,394.2c-0.6,1.2-0.8,3.6,0.5,4.7l0.4,0.3l0.9-0.4
		c0.5-0.2,1-0.4,1.4-0.7l0.7-0.4L355,393L354.4,394.2z M262.8,382.8c-2,0.3-2.5,1.7-2.9,2.7c-0.2,0.5-0.4,0.9-0.6,1.2L259,387l0,0.3
		c0.1,1,0.5,1.5,0.8,2c0.2,0.3,0.4,0.6,0.5,1l0.1,0.6l0.6,0.1c0.2,0,0.3,0,0.5,0.1l0.8,0.2l1.6-8.6L262.8,382.8z M395,387.1
		c0.1,0.7,0.1,1.2-0.1,1.7l-0.2,0.8l0.9,0.1c0.1,0,0.2,0.1,0.4,0.2c0.3,0.2,0.7,0.4,1.3,0.4c0.1,0,0.2,0,0.4,0
		c0.7-0.2,1-0.6,1.1-0.8l0.4-0.6l-4.4-3.8L395,387.1z M258.6,376.1l-1.6,5l0.9,0.2c0.5,0.1,0.9,0.3,1.4,0.6l1.2,0.6l1.4-6.3
		l-0.3-0.3c-0.2-0.2-0.4-0.5-0.4-1.3l0.1-0.8l-0.8,0h-0.8l-0.5,1.6l0,0L258.6,376.1z M405.9,373.7l0.1,0.6l3.3,2.6l0.5-0.7
		c0.1-0.1,0.2-0.3,0.2-0.4l0.3-0.6l-4.9-3.4L405.9,373.7z M415.1,364.3c0,0.1,0,0.2,0,0.2l0.1,0.3l3.9,2.5L418,365
		c-0.1-0.1-0.1-0.3-0.2-0.4l-0.1-0.3l-2.9-1.6L415.1,364.3z M418,359l-0.8,0.1l0,0.8c0,0.4,0.1,0.7,0.1,1l0.1,0.3l4.4,2.6l-1.5-2.7
		c-0.1-0.2-0.2-0.3-0.2-0.5c-0.3-0.6-0.7-1.7-2-1.7C418.1,359,418.1,359,418,359z M214.9,362.9l2.9-0.5l0.5-0.1l0.1-0.5
		c0-0.2,0.1-0.4,0.1-0.6l0.1-2.2L214.9,362.9z M358.4,359.1c-0.1,0.7,0.2,1.3,0.6,1.9c0.5,0.5,1.1,0.8,1.8,0.8c0.2,0,0.3,0,0.5,0
		l1.5-0.3l-4.3-3.9L358.4,359.1z M221.2,360.5l1.6,0.1c0.8,0.1,1.5,0.2,2.3,0.4l0.5,0.2l1-1.4l0-0.2c0.2-0.9-0.1-1.9-0.9-2.9
		l-0.6-0.7L221.2,360.5z M213.9,358.2c-0.2,0.2-0.5,0.4-0.7,0.7l-1,0.9l1.6,0.5c0.3,0.1,0.5,0.2,0.8,0.2c0.1,0,0.3,0,0.5-0.1l0.3,0
		l0.2-0.2l0.6-0.7l0-0.3c0-0.1,0-0.3,0-0.4l0-0.8l-0.8,0.1c-0.1,0-0.2,0-0.4,0c-0.2,0-0.3,0-0.5,0l-0.4,0L213.9,358.2z M351.5,354.9
		c-1.5,0-2.2,0.6-2.6,1.1l-0.3,0.5l2.5,3l0.5-0.2c0.6-0.2,1.1-0.6,1.5-1.1l0.1-0.2l0-0.2c0-1-0.4-1.5-0.7-1.9
		c-0.1-0.2-0.2-0.3-0.3-0.4l-0.2-0.5L351.5,354.9z M408.1,353.1c-0.5,0-0.9,0.1-1.3,0.2l-1.6,0.6l3.7,2.2l0.4-0.3
		c0.5-0.4,0.9-1,1-1.5l0.2-0.8l-0.8-0.2C409.2,353.1,408.6,353.1,408.1,353.1z M424.1,347.4c-0.1,0-0.2,0-0.3,0l-0.8,0.1l0.1,0.8
		c0,0.3,0.1,0.6,0.2,0.9l0.1,0.3l4.3,2.1l-1.5-2.4c-0.1-0.1-0.1-0.3-0.2-0.4C425.7,348.4,425.3,347.4,424.1,347.4z M364.3,338.8
		l-0.2-1.6c0.9,0.1,1.8,0.2,2.6,0.6l0.9,0.5l0.4-1.6l-0.5-0.4l-6-3.4l0,1.2c0,0-0.1,0-0.1-0.1c-0.5-0.5-1.2-1.1-2.3-1.1
		c-0.4,0-0.9,0.1-1.4,0.3l-0.1,0c0,0-0.1,0.1-0.1,0.1l-7.8-4.8l-0.9,1.3l1.1,0.8l0.1,0c0.9,0.5,1.8,1,2.4,1.8l0.1,0.1l6.1,4.7
		l0.4-0.9c0.2-0.4,0.4-0.7,0.5-1L364.3,338.8z M356.6,329.9l1.9,0.9h1.3l-0.4-1.1c-0.4-1-0.8-1.8-1.3-2.5l-1.3,0.6c0,0,0,0,0,0
		c-0.5-0.4-1-0.9-2-1l-2.1-0.1l1.4,1.5C355,329,355.9,329.5,356.6,329.9L356.6,329.9z M362.7,322.8c-0.2,0.4-0.4,0.8-0.6,1.4
		l-0.2,0.6l9.1,5.1l-0.8-2.1c-0.5-1.2-1-2.1-1.5-2.9l-0.1-0.2l-3.4-1.5l-0.1-0.3l-1.8-0.8L362.7,322.8z M351.3,320.4
		c0.1,0.1,0.3,0.3,0.6,0.4l1,0.3l0-1.3c0-0.4,0-1-0.4-1.4c-0.2-0.2-0.4-0.4-0.9-0.4c-0.1,0-0.2,0-0.3,0l-0.6,0.1l-0.1,2.1
		L351.3,320.4z M317.2,285.5c-0.5,1-0.9,2-1.2,3.3L316,289l0.5,1.1c0.7,1.4,1.4,2.8,2.5,4l0.1,0.2l0.2,0.1c0.7,0.2,1.4,0.3,2.2,0.3
		l0.5,0l0.2-0.5c0.3-0.6,0.4-1.3,0.6-2c0.1-0.7,0.2-1.3,0.5-1.7l0.3-0.6l-0.6-0.4c-1.1-0.8-1.5-1.7-1.3-3.2l0-0.1l0-0.1
		c0-0.1,0-0.3,0-0.5l0-0.6l-0.6-0.2c-0.6-0.2-1.2-0.2-1.9-0.2c-0.3,0-0.7,0-1.1-0.1l-0.6-0.1L317.2,285.5z M442.2,284.6
		c-0.7,0.4-0.8,1.1-0.8,1.5l0,0.7l0.7,0c0.1,0,0.1,0,0.3,0.1c0.2,0.1,0.5,0.2,0.8,0.2c0.3,0,0.5-0.1,0.8-0.2l0.6-0.2l-0.4-2.5
		l-0.7,0c-0.3,0-0.5,0-0.7,0.1c0.3-0.3,0.7-0.6,1.1-1l1.6-1.5l-6.9,0.3l-0.3,1.5C439.5,284.2,440.9,284.4,442.2,284.6L442.2,284.6z
		 M319,282.6c0.3,0.6,0.9,1.1,1.7,1.3l1.2,0.4l-0.2-1.3c0-0.2-0.1-0.4-0.1-0.7l0-0.7l-0.7,0c-0.4,0-0.7-0.1-1-0.1l-1.7-0.4
		L319,282.6z M438.3,276.9l0.2,2.1l2.3,0l-0.3-2.3L438.3,276.9z M367.8,269.2l0.5,0.9c0.2,0.3,0.4,0.6,0.6,0.8l0.3,0.2l6.4-0.9
		l-0.2-0.1l4-0.5l0.1-0.6c0.1-0.6,0-1.2-0.2-1.9l-0.2-0.7L367.8,269.2z M381.1,262.6l0.3,1.6c0.6,0,1.3-0.1,1.9-0.1
		c0.7,0,1.4-0.1,2.1-0.1l0.3,0l0.2-0.2c0.4-0.4,0.6-0.9,0.7-1.5l0.2-1.2L381.1,262.6z M261.5,253.7l-0.4,0.4
		c-0.1,0.1-0.2,0.2-0.3,0.4l-0.9,1.1l1.4,0.3c0.2,0,0.3,0.2,0.5,0.6c0.3,0.6,0.8,1.4,2,1.4c0.1,0,0.1,0,0.2,0h0.6l0.1-0.5
		c0.1-0.4,0.8-0.5,1.8-0.5c0.2,0,0.5,0,0.7-0.1l3-0.4l-2.8-1.2c-1.7-0.7-3.4-1.4-5.6-1.4h0L261.5,253.7z M127.3,251.3l-0.1,1.6
		l1.1,0.2l0.3-1.6l-1-0.2L127.3,251.3z M229.1,247.8c-0.1,0.3-0.1,0.6-0.1,1l0,0.5l3.8,2.2l0.5-0.1l1.6-0.4l-5.4-4.2L229.1,247.8z
		 M207.5,246.6c0.1,0.5,0.2,1,0.4,1.5l0.1,0.3l1.4,0.6l0.4-0.3c0.4-0.3,0.6-0.7,0.8-1.2l0.1-0.6l-3.4-1.9L207.5,246.6z M168.4,238
		l2.3-0.2l-0.1-1.4l-2.4-1.1L168.4,238z M380.4,187.2l0.2,0.5c0.3,0.6,1,1.1,1.8,1.1c0.5,0,0.9-0.2,1.2-0.5c0.3-0.3,0.4-0.7,0.4-1.1
		l0-0.7l-0.7-0.1c0,0-0.1-0.1-0.2-0.2c-0.2-0.1-0.4-0.3-0.8-0.4l-0.5-0.1L380.4,187.2z M384.5,175.4c-0.4,0.3-0.7,0.6-0.9,1l1.3,1
		l0.7-0.7L384.5,175.4z M253.3,155.2l0.9-2.3c0.3-0.8,0.1-1.8-0.6-2.4l-2.1-2.1L253.3,155.2z M243.2,136.1l0.2,2.7l2-0.1l-0.7-2.6
		L243.2,136.1z M271,547.2c-0.3,0-0.5-0.2-0.5-0.5l1.8-40.9c0.4,0,0.8-0.1,1.2-0.1c0.2,0,0.4,0,0.6,0l0,0l-2.7,41
		C271.5,547,271.3,547.2,271,547.2L271,547.2z M263.4,546.6c-0.3,0-0.5-0.3-0.5-0.5l3-40.8c0.3,0,0.6,0,0.9,0c0.3,0,0.6,0,0.9,0l0,0
		l0,0.3l0.3-0.1l-0.5,5.2c0,0.1-0.1,0.2-0.1,0.3l-0.2,0.2l-3.3,34.9C263.9,546.5,263.7,546.6,263.4,546.6L263.4,546.6z M322,545
		c-0.2,0-0.4-0.2-0.4-0.4l-3.8-25c0,0,0,0,0,0c0.6,0,1.1,0.1,1.6,0.3l3.2,24.6c0,0.3-0.2,0.5-0.4,0.6L322,545L322,545z M329.5,543.8
		c-0.2,0-0.4-0.2-0.5-0.4l-4.5-24.8c0.1,0,0.1,0,0.2,0c0.5,0,1,0.1,1.4,0.2l3.9,24.5c0,0.3-0.1,0.5-0.4,0.6L329.5,543.8L329.5,543.8
		z M408.8,542.4c-0.2,0-0.4-0.1-0.5-0.3l-1.2-2.4c0.3,0.2,0.7,0.3,0.9,0.5c0.3,0.1,0.5,0.2,0.7,0.3
		C408.6,541.1,408.7,541.7,408.8,542.4C408.8,542.4,408.8,542.4,408.8,542.4z M351.3,539.1c-0.2,0-0.4-0.2-0.5-0.4l-6.6-24.4
		c0.2,0,0.4,0,0.6,0c0.3,0,0.7,0,1,0.1l6,24c0.1,0.3-0.1,0.5-0.4,0.6L351.3,539.1z M406,537.2c-0.1,0-0.1-0.1-0.2-0.1l-2.1-4.3
		c0.1-0.1,0.2-0.2,0.3-0.3c0.3-0.2,0.5-0.4,0.8-0.6l2.3,5c-0.1,0.2-0.2,0.2-0.4,0.3L406,537.2z M257.9,530.4c-0.3,0-0.6-0.3-0.6-0.7
		l0.6-5.5c0.1,0,0.2,0,0.3,0c0.4,0,0.7,0,1.1-0.1l-0.7,5.7C258.5,530.1,258.2,530.4,257.9,530.4L257.9,530.4z M378.7,530.3
		c-0.2,0-0.3-0.1-0.4-0.3l-0.8-2.1c0.2,0.2,0.5,0.3,0.7,0.4c0.2,0.1,0.4,0.2,0.6,0.3C378.6,529.2,378.6,529.7,378.7,530.3z
		 M238.9,517.8c0.1,0,0.2,0,0.3,0c0.5,0,1.2-0.3,1.4-0.8l-2.6,12.6c0,0,0,0,0,0c-0.5,0-0.9,0.1-1.3,0.3L238.9,517.8z M385.8,527.5
		c-0.2,0-0.3-0.1-0.4-0.3l-0.9-2c0.2,0.1,0.5,0.3,0.7,0.3c0.2,0.1,0.4,0.2,0.6,0.3C385.7,526.3,385.7,526.9,385.8,527.5z
		 M170.1,526.3c-0.2-0.7-0.6-1.3-1-1.7l9.6-20.5l0.1,0.1c0.5,0.3,1.1,0.7,1.7,0.9L170.1,526.3z M229.7,524c0.2,0,0.4,0,0.6,0.1
		l0.7,0.1l0.2-0.7c0.1-0.3,0.3-0.6,0.5-1c0.5-1,1.3-2.4,0.2-3.9l-0.1-0.1l-0.1-0.1c-0.2-0.1-0.5-0.2-0.7-0.3l6.4-29.6
		c0.9-0.4,1.8-0.6,2.8-0.7c0.1,0,0.1,0.1,0.2,0.1l-8.7,36.4c-0.8,0.2-1.5,0.6-2.1,0.9c-0.1,0-0.1,0.1-0.2,0.1L229.7,524z
		 M376.4,525.2l-1.6-4c0.1-0.1,0.2-0.1,0.3-0.2c0.2-0.2,0.5-0.3,0.7-0.5l1.7,4.7c-0.1,0.1-0.2,0.1-0.3,0.1l-0.7,0
		C376.5,525.3,376.5,525.3,376.4,525.2z M219.3,513.1c0.1,0,0.3,0.1,0.4,0.1c0.5,0,1.1-0.3,1.3-0.7l-3.7,12.3c-0.1,0-0.2,0-0.3,0
		c-0.4,0-0.8,0.1-1.1,0.2L219.3,513.1z M309.8,508.9l0.7-0.1c0.1,0,0.2,0,0.2,0c0.3,0,0.5,0,0.8,0.1l1.6,15.1c-0.3,0-0.5,0-0.8,0
		h-0.1l-0.1,0c-0.1,0-0.2,0.1-0.3,0.1L309.8,508.9z M212.7,511c0.1,0.1,0.3,0.1,0.5,0.1c0.5,0,1.1-0.2,1.3-0.7l-4,12.2
		c-0.1,0-0.2,0-0.3,0c-0.4,0-0.7,0.1-1,0.2L212.7,511z M383.4,522.5l-1.7-4c0.1-0.1,0.2-0.2,0.3-0.2c0.2-0.2,0.5-0.4,0.7-0.5
		l1.9,4.6c-0.1,0.1-0.2,0.2-0.3,0.2l-0.7,0C383.5,522.5,383.4,522.5,383.4,522.5z M284.7,522.5c-0.2,0-0.3,0-0.5,0l-0.7-66.1
		l0.4,2.4l0.4,0.2c0.1,0.1,0.3,0.1,0.5,0.2c0.6,0.2,1,0.4,1.2,0.8c-0.1,1.1,0.2,1.9,0.6,2.6c0.2,0.4,0.3,0.7,0.5,1.1l-0.6,58.2
		C285.8,522.1,285.3,522.3,284.7,522.5z M406,518.1c-0.2,0-0.3-0.1-0.4-0.3l-1-2c0.2,0.1,0.5,0.2,0.7,0.3c0.3,0.1,0.5,0.2,0.6,0.2
		C405.8,516.9,405.8,517.5,406,518.1z M240.7,516.6c0-0.3-0.2-1-1.3-1.2l0.5-2.9c0.2,0.1,0.4,0.1,0.6,0.2c0.2,0.2,0.5,0.4,0.7,0.6
		c0.1,0.1,0.1,0.1,0.2,0.2L240.7,516.6z M206.3,513.7c-0.3-0.2-0.6-0.4-1.1-0.4c-0.1,0-0.1,0-0.2,0l5.8-17.3
		c0.2,0.3,0.5,0.6,0.8,0.8c0.1,0.2,0.3,0.4,0.4,0.7L206.3,513.7z M403.2,513.3l-2-3.8c0.1-0.1,0.2-0.2,0.3-0.2
		c0.2-0.2,0.4-0.4,0.7-0.5l2.2,4.4c-0.1,0.1-0.2,0.2-0.3,0.2l-0.7,0.1C403.3,513.3,403.2,513.3,403.2,513.3z M221.2,512
		c0-0.4-0.1-1-1.2-1.3l0.8-2.9c0.2,0.1,0.4,0.2,0.6,0.2c0.2,0.2,0.4,0.4,0.6,0.6c0.1,0.1,0.1,0.1,0.2,0.2L221.2,512z M260.8,511.4
		c-0.2-0.3-0.4-0.6-0.4-1c0,0,0.2,0,0.5,0c0,0,0.1,0,0.1,0L260.8,511.4z M214.6,510c0-0.4-0.1-1-1.2-1.3l0.9-2.9
		c0.2,0.1,0.4,0.2,0.5,0.3c0.2,0.2,0.4,0.4,0.6,0.6c0.1,0.1,0.1,0.1,0.2,0.2L214.6,510z M186.2,509.8c-0.2-0.6-0.5-1-0.9-1.4l8.2-19
		l0.1,0.1c0.3,0.2,0.6,0.3,0.9,0.5l0,0l0.5,0.2l0.1,0L186.2,509.8z M247.9,508.9c-0.3,0-0.5-0.3-0.5-0.6l0.8-5c0.2,0,0.4,0,0.6,0
		c0.2,0,0.3,0,0.5,0l-0.9,5.1C248.4,508.7,248.2,508.9,247.9,508.9L247.9,508.9z M107.8,508.5c-0.1,0-0.3,0-0.4-0.1
		c-0.3-0.2-0.3-0.6-0.1-0.8l11-14.1c-0.1,0.3-0.1,0.6,0,1c0,0.5,0.1,1,0.2,1.4l-2.9,3.5l-0.3,0c-0.1,0-0.1,0-0.2,0
		c-0.7,0-1.3,0.4-1.7,1c-0.4,0.7-0.6,1.5-0.4,2.2l-4.7,5.8C108.1,508.4,108,508.5,107.8,508.5z M241.4,507.7c-0.1,0-0.2,0-0.2-0.1
		l-0.4-0.2l-0.1,0l0.2-1.2l0.2-0.6l1-5.2l-0.1,0l5-27c0.3-0.1,0.6-0.2,0.9-0.4l0.4-0.1l0.1-0.4c0.2-0.6,0.3-1.5,0-2.4l-0.2-0.5
		l-0.4,0l0.4-1.9l-0.1,0l0.1-0.5l0.4,0c0.1,0,0.2,0,0.3,0c0.3,0,0.7,0,1-0.1l0.3-0.1l-1.1,5.4c0,0,0.5,0.3,0.6,0.4l-7,33.7
		c-0.1,0-0.7,0.3-0.7,0.3l-0.1,0.4C241.9,507.5,241.7,507.7,241.4,507.7z M298.8,505.9c-0.2,0-0.4-0.1-0.7-0.1l-0.1,0
		c0,0-0.2,0.1-0.3,0.1l-1-13.9c0,0,0.6,0,0.6,0c0.3,0,0.6,0,0.8,0.1L298.8,505.9z M460.2,503.5c-0.6-0.2-1.3-0.3-2-0.3l-6.8-8.3
		c0.3,0,0.6-0.1,1-0.3c0.2-0.1,0.4-0.2,0.6-0.4L460.2,503.5z M222.4,501.8c0.2,0,0.3,0.1,0.5,0.1l0.7,0.2l0.2-0.7
		c0.1-0.2,0.3-0.5,0.5-0.9c0.5-0.9,1.4-2.2,0.4-3.6l-0.1-0.1l-0.1-0.1c-0.2-0.1-0.4-0.2-0.6-0.3l7.4-26.7c0.8-0.3,1.6-0.5,2.6-0.5
		c0,0,0.1,0.1,0.1,0.1l-9.8,33c-0.7,0.2-1.4,0.5-2,0.7c0,0,0,0-0.1,0L222.4,501.8z M167.5,500.6c-0.2-0.6-0.5-1.1-0.7-1.4l9.8-18.3
		l0,0c0.4,0.3,0.9,0.7,1.5,0.9L167.5,500.6z M428.6,498.6c-0.5-0.2-1.1-0.3-1.6-0.4l-5.5-8c0.3,0,0.5-0.1,0.8-0.2
		c0.2-0.1,0.4-0.2,0.5-0.3L428.6,498.6z M262.7,495.6c-0.6-0.2-0.8-0.5-0.9-1c0-0.5,0.2-1.1,0.3-1.8c0.3-1.3,0.6-2.6,0-3.9l-0.2-0.5
		h-0.5l0.3-2.8c0,0,0,0,0,0c0.7,0,1.3-0.1,1.8-0.2l0.3-0.1l0.1-0.2L262.7,495.6z M128.4,495.3c-0.1,0-0.2,0-0.3-0.1
		c-0.2-0.2-0.3-0.5-0.1-0.7l9.6-13c0,0.2,0,0.4,0,0.7c0,0.5,0.1,0.9,0.2,1.2l-2.5,3.3l-0.3,0c-0.6,0-1.2,0.4-1.6,1
		c-0.4,0.6-0.5,1.4-0.4,2l-4.2,5.5C128.7,495.3,128.6,495.3,128.4,495.3L128.4,495.3z M434.8,494.3c-0.5-0.2-1.1-0.3-1.6-0.4
		l-5.7-7.9c0.3,0,0.5-0.1,0.8-0.2c0.2-0.1,0.4-0.2,0.5-0.3L434.8,494.3z M416.3,494.1c-0.2,0-0.4-0.1-0.5-0.3l-13.5-20.9
		c0.5-0.5,0.7-1.2,0.8-2l13.7,22.3c0.2,0.3,0.1,0.7-0.2,0.8C416.5,494.1,416.4,494.1,416.3,494.1z M185,490.9
		C185,490.9,185,490.9,185,490.9c0.3,0.5,0.5,0.7,0.5,1.2l-0.1,0.1c-0.5,0.6-0.9,1.1-1.6,1.3L185,490.9z M448.9,491.6
		c-0.2-0.2-0.4-0.5-0.7-0.7l-8.7-10.7c0.2,0,0.5-0.1,0.8-0.3l0.1-0.1l0.1-0.1c0.2-0.3,0.4-0.6,0.4-0.9l9,11.5
		c-0.4,0.3-0.6,0.7-0.9,1C449,491.5,449,491.6,448.9,491.6z M251.5,491.5c-0.1-0.2-0.2-0.4-0.3-0.7c0,0,0.1,0,0.2,0
		c0.1,0,0.1,0,0.2,0L251.5,491.5z M201.3,491c-0.2-0.2-0.6-0.3-1-0.3l6.1-15.4c0.2,0.3,0.4,0.5,0.7,0.7c0.1,0.2,0.2,0.4,0.3,0.6
		L201.3,491z M189,488c0-0.5-0.1-0.9-0.1-1.4l0-0.6l-0.6-0.1c-0.3-0.1-0.5-0.1-0.8-0.1c-0.1,0-0.2,0-0.2,0l7.5-16
		c-0.2,0.9-0.3,1.9-0.2,3.1l0,0.3l0.3,0.2c0.3,0.3,0.7,0.5,1,0.6L189,488z M419.4,486.8c-0.1-0.2-0.3-0.4-0.5-0.6l-7.1-10.4
		c0.2,0,0.4-0.1,0.6-0.2l0.1-0.1l0.1-0.1c0.2-0.2,0.3-0.4,0.4-0.7l7.2,11c-0.3,0.3-0.6,0.6-0.8,0.8
		C419.4,486.8,419.4,486.8,419.4,486.8z M125.8,486.7c-0.1-0.2-0.1-0.3-0.2-0.5c0.1-0.7,0.2-1.6,0.3-2.5l9.7-12.4
		c0.1,0,0.2,0,0.2,0.1c0.6,0.2,1.2,0.4,1.5,0.7c0,0.2,0,0.4,0,0.6L125.8,486.7z M395.2,483.5c-0.2,0-0.3-0.1-0.4-0.3l-11.3-19.8
		c0.4-0.4,0.6-1,0.8-1.6l11.4,21c0.1,0.2,0,0.5-0.2,0.7C395.4,483.5,395.3,483.5,395.2,483.5L395.2,483.5z M425.2,482.8
		c-0.1-0.2-0.3-0.4-0.6-0.6l-7.4-10.2c0.2,0,0.4-0.1,0.6-0.2l0.1-0.1l0.1-0.1c0.2-0.2,0.3-0.4,0.4-0.7l7.5,10.8
		c-0.3,0.3-0.6,0.6-0.8,0.9C425.3,482.8,425.2,482.8,425.2,482.8z M111.1,481.3c-0.1,0-0.2,0-0.3-0.1c-0.2-0.2-0.2-0.5,0-0.7
		l10.6-12.2c0,0.2,0,0.4,0,0.7c0,0.5,0,0.9,0.1,1.3l-2.8,3l-0.2,0c-0.1,0-0.2,0-0.3,0c-0.6,0-1.2,0.4-1.6,1
		c-0.3,0.5-0.6,1.2-0.5,1.9l-4.6,5.1C111.4,481.2,111.2,481.3,111.1,481.3L111.1,481.3z M452,480.9c-0.5-0.1-1.1-0.2-1.6-0.2
		l-6.4-7.3c0.2,0,0.5-0.1,0.8-0.2c0.2-0.1,0.3-0.2,0.5-0.3L452,480.9z M264.2,480.4c-0.1-0.1-0.2-0.2-0.3-0.3c0.1,0,0.3-0.1,0.5-0.1
		C264.3,480.2,264.3,480.4,264.2,480.4z M436.1,476.1c0.2,0,0.4,0,0.6-0.1l0.4-0.1l0.2-0.4c0.1-0.3,0.3-0.6,0.4-0.9l1.4,1.7
		c-0.1,0-0.2,0-0.3,0c-0.7,0-1.2,0.3-1.6,0.9L436.1,476.1z M254,477.2c-0.5-0.2-0.6-0.5-0.6-0.8c0.1-0.5,0.2-1,0.4-1.6
		c0.3-1.2,0.7-2.4,0.2-3.6l-0.2-0.5l-0.4,0l0.4-2.4c0.1,0,0.3,0,0.4,0c0.4,0,0.8,0,1.2-0.1l0.3-0.1L254,477.2z M105.5,476.1
		c-0.1,0-0.2,0-0.3-0.1c-0.2-0.2-0.2-0.5,0-0.7l11-11.9c0,0.2-0.1,0.4-0.1,0.7c0,0.5,0,0.9,0.1,1.3l-2.9,3l-0.2,0
		c-0.1,0-0.2,0-0.3,0c-0.6,0-1.2,0.3-1.6,0.9c-0.4,0.6-0.6,1.3-0.5,1.9l-4.8,4.9C105.8,476.1,105.6,476.1,105.5,476.1L105.5,476.1z
		 M411.6,473.4c-0.2,0-0.3-0.1-0.4-0.2l-0.9-1.3l-0.7,0.8l-0.7-1l1.3,0l-7.8-11.4l-0.9,0.4l-12.6-18.4c0.1-0.5,0.1-1,0-1.4l0-0.2
		l-1-1.4l-0.2-0.1c-0.3-0.1-0.6-0.2-0.9-0.3l-0.3,0l-10.1-14.7l0.7-0.4l-0.5-0.7l-0.8-1.2c0.8-0.2,1.6-0.4,2.2-0.8l15.6,23.7
		l-0.1,0.1l0.2,0.5l1.4,2.1l0,0l0,0l3.7,5.7l0-0.4l13,19.8c0,0,0.1,0.1,0.1,0.3l0,0.2l-0.2,0.2C411.7,473.4,411.7,473.4,411.6,473.4
		z M182.9,469.2c0.2,0.3,0.3,0.6,0.3,1l-0.1,0.1c-0.5,0.5-0.8,0.8-1.4,1L182.9,469.2z M441.5,470.2c-0.1-0.2-0.3-0.4-0.6-0.5
		l-8.2-9.5c0.2-0.1,0.4-0.1,0.6-0.3l0.1-0.1l0.1-0.1c0.2-0.2,0.3-0.5,0.4-0.7l8.4,10.1c-0.3,0.3-0.5,0.6-0.7,0.9
		C441.5,470.1,441.5,470.2,441.5,470.2z M414.3,468.1c0.1,0,0.3,0,0.4,0l0.4,0l0.2-0.3c0.1-0.2,0.3-0.5,0.4-0.7l1,1.4
		c-0.1,0-0.2,0-0.3,0c-0.6,0-1.1,0.3-1.4,0.7L414.3,468.1z M432.6,468.5c-0.1,0-0.2,0-0.2-0.1c0-0.1,0.1-0.2,0.2-0.3l0.3,0.4
		C432.7,468.5,432.6,468.5,432.6,468.5z M379.1,436.8c1-0.1,1.9-0.4,2.6-0.9l16.2,26.4c-0.3,0.5-0.4,1.2,0,2.2l0.1,0.3l0.2,0.1
		c0.5,0.3,1,0.4,1.5,0.5l0,0l-0.1,0.5c-0.2,0.7-0.2,1.6-0.3,2.4L379.1,436.8z M186.8,466.4c0-0.4,0-0.7,0-1l0-0.6l-0.6-0.2
		c-0.3-0.1-0.6-0.1-0.8-0.1l7.4-13.8c-0.2,0.7-0.2,1.5-0.2,2.4l0,0.3l0.2,0.2c0.3,0.2,0.6,0.4,0.8,0.6L186.8,466.4z M411.8,446.2
		c0-1.3,0-3.3-2.5-3.5l-0.3,0l-12.3-15.1c0.2-0.1,0.4-0.3,0.6-0.4c0.7-0.5,1.4-1,2.2-1.4l7.3,9.3c-0.6,0-1.3,0.1-2,0.7l-0.4,0.3
		l0.1,0.5c0.5,1.9,2,2.9,4.4,2.9c0.4,0,0.8,0,1.3-0.1l16.7,21.4c-0.2,0.1-0.4,0.2-0.5,0.2l-0.6,0.2l0.1,0.7c0.1,0.8,0.3,1.5,0.5,2.1
		c0,0,0,0.1,0,0.1L411.8,446.2z M62.7,463.4c-0.2,0-0.4-0.1-0.5-0.2c-0.2-0.3-0.2-0.6,0.1-0.9l66.4-54.1l-0.1,0.3
		c-0.1,0.4-0.4,0.6-0.8,0.9c-0.6,0.5-1.4,1.1-1.5,2.3l0,0.3l0.2,0.2c0.2,0.3,0.4,0.7,0.6,1.1l-1.8,1.4c-0.1,0-0.1,0-0.2,0
		c-0.1,0-0.3,0-0.4,0.1l-0.5,0.1l-0.1,0.4c0,0-0.1,0-0.1,0c-0.2,0.1-0.6,0.2-0.8,0.5l-0.2,0.3l0,0.3c0,0.1,0,0.1,0,0.2l-59.7,46.6
		C63,463.4,62.8,463.4,62.7,463.4z M128.8,462.1c0-0.1-0.1-0.2-0.1-0.4c0.2-0.7,0.3-1.4,0.4-2.3l9.5-10.8c0.1,0,0.1,0,0.2,0.1
		c0.5,0.2,1,0.4,1.3,0.6c0,0.2,0,0.4-0.1,0.5L128.8,462.1z M111.5,460c-0.2,0-0.3-0.1-0.4-0.2c-0.2-0.2-0.2-0.6,0-0.9l17.3-17.7l0,0
		c1.3-0.2,2-0.9,2.7-1.5c0.7-0.6,1.3-1.2,2.4-1.2c0,0,0,0,0.1,0l-8,7.8c-0.3-0.2-0.6-0.3-1-0.3c-0.1,0-0.2,0-0.3,0l-0.5,0.1
		l-0.1,0.5c-0.1,0.2-0.1,0.5-0.2,0.7c-0.2,0.5-0.3,1-0.4,1.5l-3.4,3.4l-0.1,0l-0.3,0.3c-0.1,0.1-0.1,0.2-0.2,0.3l-7.1,7
		C111.7,460,111.6,460,111.5,460z M459.4,459.7c-0.2,0-0.3-0.1-0.4-0.2l-6.8-6.6c0.2-0.3,0.4-0.4,0.8-0.5c0,0,0.1,0,0.2,0
		c0.2,0,0.3,0.1,0.6,0.2c0.1,0,0.1,0.1,0.2,0.1l5.9,6.1c0.2,0.2,0.2,0.6,0,0.9C459.7,459.6,459.5,459.7,459.4,459.7z M363.9,429.1
		c0.9-0.1,1.6-0.3,2.3-0.6l13.5,25c-0.3,0.5-0.4,1.1-0.1,2l0.1,0.3l0.2,0.1c0.4,0.3,0.9,0.4,1.3,0.5l-0.1,0.4
		c-0.2,0.6-0.3,1.3-0.3,2L363.9,429.1z M429.6,456.7l-1.2-1.6l-3-3.4c0.2-0.2,0.4-0.3,0.7-0.4c0,0,0,0,0.1,0c0.2,0,0.3,0.1,0.5,0.2
		c0.1,0,0.1,0.1,0.2,0.1l3.7,4.4l0.2-0.8l1,1.3l0.2,1.4c0,0.1,0,0.3-0.1,0.4c0,0-0.1,0.1-0.2,0.1l-0.4,0.1L429.6,456.7z
		 M393.4,439.3c0.1-1.2,0.1-3.1-2.2-3.4l-0.3,0l-2.8-3.8c1.1,0.9,2.7,0.9,3.3,0.9c0.2,0,0.4,0,0.6,0l14.2,20.4
		c-0.1,0.1-0.3,0.1-0.4,0.2l-0.6,0.2l0,0.7c0,0.6,0.2,1.2,0.3,1.7L393.4,439.3z M436.4,454.1c-0.1,0-0.3-0.1-0.3-0.2l-5.9-6.4
		c0.2-0.2,0.4-0.3,0.7-0.4c0,0,0.1,0,0.1,0c0.2,0,0.3,0.1,0.5,0.2c0.1,0,0.1,0.1,0.2,0.1l5.1,5.8c0.2,0.2,0.2,0.5,0,0.7
		C436.7,454,436.6,454.1,436.4,454.1L436.4,454.1z M458.5,449.9c0.1,0,0.2-0.1,0.3-0.1c0.1,0,0.1,0.1,0.2,0.1
		c0.5,0.4,1.1,0.8,1.8,1.1c0,0.2-0.2,0.4-0.4,0.6L458.5,449.9z M487.8,447.9c0.1-0.1,0.3-0.2,0.4-0.2c0.1,0.1,0.2,0.1,0.3,0.2
		c0.6,0.4,1.3,0.8,2,1c0,0.3-0.2,0.5-0.5,0.8L487.8,447.9z M463.2,444.7c0.1,0,0.2-0.1,0.3-0.1c0.1,0,0.1,0.1,0.2,0.1
		c0.5,0.4,1.1,0.8,1.8,1c0,0.2-0.2,0.4-0.4,0.6L463.2,444.7z M406.1,429.6l0-0.1l-0.2-0.3l-2.6-3l-0.1,0.1L391.7,413
		c0.2-0.1,1-0.7,1.2-0.9l0.7-0.5l0,0l0.5-0.3l6.8,8.2l-0.7,0.1l3.3,4c0,0,0.6-0.1,0.7-0.1l15.9,19.1c-0.1,0.1-0.3,0.1-0.4,0.2
		l-0.6,0.2l0.1,0.6c0.1,0.6,0.3,1.2,0.5,1.6L406.1,429.6z M443.5,436.1c0.1-0.1,0.1-0.3,0.2-0.4l0.1-0.3l-0.1-0.3
		c0-0.1-0.1-0.1-0.1-0.2l-0.1-0.1l-0.1-0.1l0-0.1l-0.2-0.4c-0.6-1.1-1.5-1.9-2.3-2.6c-0.3-0.3-0.7-0.6-1-1l-0.3-0.3l-0.5,0
		c-1.6,0-2.2-1-3.1-2.7c-0.2-0.4-0.4-0.7-0.6-1.1l-0.1-0.2l-0.2-0.1c-0.7-0.4-1.9-0.8-3.3-0.8l-1.4-1.3c0.1-0.2,0.1-0.4,0.2-0.6
		c0.2-0.3,0.3-0.5,0.5-0.7l-1-1.2c0,0-0.5,0.3-0.7,0.4l-9.5-8.7l0.2,1.5l-4.6-4.3l1-0.3l-9.3-8.5c0.8-0.2,1.7-0.4,2.3-0.8L431,421
		l-0.2,0.1l2.8,2.7c0,0.1-0.1,0.3-0.1,0.5l-0.1,0.5l0.4,0.3c0.4,0.3,0.7,0.4,1,0.4c0.1,0,0.3,0,0.4-0.1l9,8.7l0.2,0.1
		c0.1,0,0.2,0.1,0.2,0.1c0.1,0,0.1,0,0.2,0.1l5.6,5.4c0.2,0.2,0.2,0.4,0,0.7l-0.8,1.1l1.4,0.2c0.3,0,0.5,0,0.8,0c0.1,0,0.2,0,0.3,0
		l0.5,0.4l0,0c0.4,0.9,0.4,1.8,0.4,2.7L443.5,436.1z M470.4,434.3c0.1-0.2,0.1-0.3,0.2-0.5l0.1-0.3l-0.1-0.3c-0.8-1.6-2-2.6-3.2-3.5
		c-0.4-0.3-0.8-0.6-1.2-1l-0.3-0.3l-0.4,0c-0.2,0-0.3,0-0.5,0c-1.6,0-2.4-1.3-3.4-2.7c-0.2-0.4-0.5-0.8-0.7-1.1l-0.1-0.2l-0.2-0.1
		c-0.9-0.4-2.2-0.6-3.3-0.6c-0.1,0-0.2,0-0.3,0l-1.7-1.4c0.1-0.2,0.1-0.5,0.1-0.7c0.2-0.3,0.3-0.6,0.5-0.8c0.2-0.3,0.3-0.5,0.5-0.8
		l2.4,1.9c0,0.2-0.1,0.4-0.1,0.6l0,0.5l0.5,0.2c0.4,0.2,0.7,0.3,1,0.3c0.2,0,0.4,0,0.5-0.1l14.7,12l-0.1,0.4c-0.2,0.8,0,1.6,0.5,2.3
		c0.7,0.9,2.1,1.5,3.7,1.5c0.3,0,0.6,0,0.9-0.1l0.6,0.5l0,0.1c0.5,1,0.7,2,0.7,3L470.4,434.3z M447.9,431.4c0.1-0.1,0.1-0.3,0.2-0.5
		l0.1-0.3l-0.1-0.3c-0.7-1.5-1.8-2.5-2.8-3.4c-0.3-0.3-0.7-0.6-1-1l-0.3-0.3l-0.4,0c-0.1,0-0.2,0-0.3,0c-1.5,0-2.2-1-3.1-2.6
		c-0.2-0.4-0.4-0.7-0.6-1.1l-0.1-0.2l-0.2-0.1c-0.7-0.3-1.9-0.7-3.3-0.7l-1.5-1.3c0.1-0.2,0.1-0.4,0.2-0.6c0.2-0.3,0.3-0.5,0.5-0.7
		c0.2-0.2,0.3-0.4,0.5-0.7l2,1.8c0,0.1-0.1,0.3-0.1,0.5l-0.1,0.5l0.4,0.3c0.4,0.2,0.7,0.3,1,0.3c0.1,0,0.3,0,0.4-0.1l12.9,11.7
		l-0.1,0.3c-0.2,0.8-0.1,1.6,0.4,2.2c0.7,1,2.1,1.5,3.7,1.5c0.2,0,0.3,0,0.5,0l0.5,0.4l0,0c0.4,0.9,0.5,1.7,0.5,2.6L447.9,431.4z
		 M414,415.6c1-0.2,2-0.3,2.7-0.9l22.5,23c-0.4,0.2-0.8,0.5-1.2,0.7c-0.1,0.1-0.3,0.2-0.4,0.2L414,415.6z M72,437.6
		c-0.2,0-0.3-0.1-0.4-0.2c-0.2-0.2-0.1-0.5,0.1-0.7l63.5-46.2l0,0c-0.1,0.3-0.4,0.5-0.8,0.8c-0.6,0.4-1.3,1-1.5,2.1l0,0.3l0.2,0.3
		c0.2,0.3,0.3,0.6,0.4,1l-1.7,1.2c-0.1,0-0.1,0-0.2,0c-0.1,0-0.2,0-0.3,0l-0.5,0.1l-0.1,0.3c0,0-0.1,0-0.1,0
		c-0.2,0.1-0.6,0.1-0.8,0.4l-0.3,0.2l0,0.3c0,0,0,0.1,0,0.1l-57.2,39.8C72.2,437.6,72.1,437.6,72,437.6L72,437.6z M116.9,436.9
		c-0.1,0-0.3-0.1-0.3-0.2c-0.2-0.2-0.2-0.5,0-0.7l16.7-15.4c1.2-0.1,1.9-0.7,2.6-1.3c0.6-0.5,1.2-0.9,2.1-0.9c0,0,0.1,0,0.1,0
		l-7.6,6.6c-0.3-0.2-0.6-0.3-1-0.3l-0.7,0l-0.2,0.5c-0.1,0.2-0.2,0.4-0.2,0.6c-0.2,0.4-0.4,0.9-0.4,1.3l-3.3,2.9l-0.1,0l-0.3,0.3
		c-0.1,0.1-0.1,0.2-0.2,0.2l-6.9,6.1C117.2,436.9,117.1,436.9,116.9,436.9L116.9,436.9z M397.1,411.4c0.8-0.1,1.7-0.2,2.4-0.6
		l19.5,22.1c-0.4,0.2-0.7,0.4-1.1,0.5l-0.4,0.2L397.1,411.4z M374.9,430.3C375,430.3,375,430.3,374.9,430.3c0.5,0.1,0.9,0.5,1.1,1
		c-0.1,0.1-0.1,0.2-0.2,0.3L374.9,430.3z M380.5,421.6c0.2-0.1,0.4-0.2,0.5-0.3c0.7-0.4,1.3-0.8,2-1.2l6.1,8.8
		c-0.6,0-1.2,0.1-1.8,0.6l-0.4,0.3l0.1,0.5c0.1,0.3,0.1,0.5,0.2,0.7L380.5,421.6z M476.1,429c0.1-0.1,0.2-0.1,0.3-0.2
		c0.1,0,0.1,0.1,0.2,0.1c0.5,0.3,1.2,0.7,1.9,0.9c0,0.2-0.1,0.4-0.3,0.6L476.1,429z M459.7,417c0.1-0.1,0.1-0.3,0.1-0.5l0.1-0.3
		l-0.1-0.3c-0.7-1.2-1.5-1.9-2.3-2.6l-0.4-0.4l-0.5,0.3c-0.2,0.1-0.5,0.3-0.7,0.6l0,0l-0.3-0.2c0-0.4,0.1-0.8,0.1-1.1l0.1-0.9
		l-0.9,0.1c-0.1,0-0.2,0-0.3,0c-1.3,0-2-0.9-2.9-2.2l-0.5-0.7l-0.7,0.5c-0.2,0.1-0.3,0.2-0.4,0.3l-2.8-2l-0.2,0l-1.6-1.2l0-0.1
		l-0.4-0.4l-0.9-0.7c0.4-0.2,0.9-0.4,1.4-0.5l0.2-0.1l0.1-0.1l0.3,0.2l0.3-0.6l2.1,1.6c0,0.1,0,0.2,0,0.3l0,0.4l0.9,0.7l0.2,0
		c0.1,0,0.2,0,0.3,0c0.2,0,0.4,0,0.5-0.1l13.5,10.3l-1,0.1l1.1,0.8l0.2,0.9c0.4,1.3,1.9,2.3,3.9,2.3c0.3,0,0.7,0,1-0.1l0.5,0.4l0,0
		c0.5,0.8,0.6,1.7,0.7,2.6L459.7,417z M510.8,418.7c-0.1,0-0.1,0-0.2-0.1l-5.8-3.3c0.4-0.2,0.8-0.4,1-0.7l5.3,3.2
		c0.2,0.1,0.3,0.4,0.2,0.7C511.2,418.6,511,418.7,510.8,418.7L510.8,418.7z M371.9,416.1c0.3,0.1,0.6,0.4,0.9,0.9
		c0,0.1-0.1,0.1-0.1,0.2L371.9,416.1z M365.6,415.9C365.7,415.9,365.7,415.9,365.6,415.9c0.2,0,0.3,0,0.5-0.1
		c1.5-0.2,1.7-1.5,1.8-2.2c0,0,0.4,0.7,0.4,0.7c-0.2,0.2-0.4,0.4-0.6,0.5c-0.6,0.5-1.2,1.1-1.7,1.7L365.6,415.9z M494.3,409.3
		c0.4-0.3,0.8-0.6,1.1-1l6.7,4l-0.3,0l0.2,0.9c0,0.1,0,0.1-0.1,0.3c0,0,0,0,0,0.1L494.3,409.3z M490.6,413.6c-0.7,0-1.6-0.1-2.1-0.8
		c0.1-0.2,0.3-0.3,0.6-0.5l1.9,1.2C490.9,413.6,490.7,413.6,490.6,413.6z M467.6,413.3c-0.7,0-1.5-0.2-2-0.8
		c0.1-0.1,0.3-0.2,0.5-0.3L467.6,413.3z M437.8,408.9c1-0.5,1.7-1.2,2.3-2l2.7,2.2c-0.2,0.4-0.4,0.9-0.6,1.4l-0.1,0.3l0.1,0.3
		c0.1,0.2,0.2,0.5,0.4,0.7c0.3,0.5,0.5,1,0.7,1.6L437.8,408.9z M514.6,412c-0.1,0-0.1,0-0.2-0.1l-5.9-3.2c0.4-0.2,0.8-0.4,1-0.7
		l5.4,3c0.2,0.1,0.3,0.4,0.2,0.7C515,411.9,514.8,412,514.6,412L514.6,412z M411.1,411c-1.1-1.4-2.4-3-2.5-4.6l4.8,4.9
		c-0.1,0-0.3,0.1-0.4,0.1c-0.5,0.1-0.9,0.2-1.3,0.2C411.4,411.4,411.3,411.2,411.1,411z M391,410.1c-0.9-1.3-1.9-2.7-1.9-4.2
		l3.8,4.6l-0.5,0.1c-0.3,0-0.7,0.1-1,0.1C391.2,410.5,391.1,410.3,391,410.1z M419.2,406.4c0.9-0.4,1.5-1,2.1-1.7l2.3,2.1
		c-0.2,0.4-0.4,0.8-0.6,1.2l-0.1,0.3l0.1,0.3c0.1,0.2,0.2,0.5,0.3,0.7c0.2,0.4,0.4,0.8,0.5,1.2L419.2,406.4z M131.5,409.9
		c-0.4-0.7-0.9-1.3-1.8-1.8l-0.5-0.3l3.2-2.6c0.2,1.3,0.5,2.4,0.9,3.3L131.5,409.9z M541.8,409.4c-0.1,0-0.2,0-0.3-0.1l-6.7-3.2
		c0.5-0.2,0.9-0.5,1.2-0.9l6,3c0.3,0.1,0.4,0.5,0.3,0.8C542.2,409.3,542,409.4,541.8,409.4z M481.3,409.1l0-0.1c0-0.5,0-1.1,0-1.6
		l0-0.1l1.6,1c-0.4,0.2-0.8,0.6-1.1,0.9l-0.1,0.1L481.3,409.1z M459.1,408.8L459.1,408.8c0-0.5,0-1,0.1-1.5l0,0l1.3,0.9
		c-0.4,0.2-0.7,0.5-1,0.8l0,0L459.1,408.8z M354.4,408.5c0.2-0.3,0.3-0.7,0.4-1l0.3,0.5C354.9,408.1,354.5,408.5,354.4,408.5z
		 M394.6,407c-0.9-1.3-1.9-2.7-2.1-4.1l4,4.5c-0.1,0-0.2,0-0.3,0c-0.4,0.1-0.8,0.1-1.2,0.1C394.9,407.4,394.7,407.2,394.6,407z
		 M497.9,403.1c0.4-0.3,0.7-0.7,1.1-1l6.8,3.8l-0.3,0l0.2,0.9c0,0.1,0,0.1-0.1,0.3c0,0,0,0,0,0.1L497.9,403.1z M468.2,401.1
		c0.5-0.3,1-0.5,1.6-0.7l0.2-0.1l0.1-0.1l6.3,4l-0.2,0.2c-0.4,0.3-0.8,0.6-1.1,1L468.2,401.1z M447.6,400.8c0.4-0.2,0.9-0.4,1.4-0.6
		l0.2-0.1l0.1-0.1l5.4,3.9l-0.1,0.1c-0.4,0.2-0.7,0.5-1,0.8L447.6,400.8z M523,400.7c0.5-0.4,0.8-0.8,1.2-1.2l7.9,3.9l-0.5,0.1
		l0.3,0.9c0,0.1,0,0.1,0,0.3c0,0,0,0.1,0,0.1L523,400.7z M435.1,403.5c0-0.2-0.1-0.5,0-0.8l0.4,0.3
		C435.3,403.2,435.2,403.4,435.1,403.5z M417,401.2c0-0.1,0-0.3,0-0.4l0.2,0.2C417.1,401,417,401.1,417,401.2z M434.4,398.3l0,0.2
		l-5.2-3.8l0.1,0l-1.4-1.1l-6.1-4.5l-0.1,0.1l-0.2-0.1l0-0.1c0-0.8-0.1-1.5-0.2-2.4c0-0.1,0.1-0.3,0.1-0.4l4.7,3.6l0.1-0.7l0.3,0.2
		l-0.3,0.5l2.4,1.9c-0.1,0.4-0.1,0.8,0.1,1.4l0.2,0.5l0.5,0c0,0,0.1,0,0.2,0l0.5,0.1l0.3-0.4c0.2-0.2,0.4-0.4,0.6-0.7l2.5,1.9
		l-0.3,0.5l0.5,0.4l0.9,0.7c-0.5,0.9-0.3,1.7,0,2.3L434.4,398.3z M404.5,397.3c-1-1.2-2.2-2.5-2.4-3.9l4.3,4.2c-0.1,0-0.2,0-0.3,0.1
		c-0.4,0.1-0.8,0.2-1.2,0.2C404.8,397.6,404.7,397.5,404.5,397.3z M442.3,385.2c-0.1-0.8-0.2-1.7-0.4-2.6c0-0.2,0.1-0.4,0.1-0.6
		l8.4,5.4c-0.1,0.4,0,0.9,0.2,1.5l0.2,0.5l0.5,0c0.3,0,0.5,0.1,0.9,0.4c0.4,0.3,1,0.7,1.8,0.7c0.1,0,0.2,0,0.3,0l0.1,0l0.1,0
		c0.1,0,0.2-0.1,0.3-0.1l2.5,1.6c-0.6,1.2,0,2.1,0.4,2.7L442.3,385.2z M424.5,384.9c-0.1-0.7-0.1-1.5-0.2-2.3c0-0.1,0.1-0.3,0.1-0.4
		l7.4,5.3c-0.1,0.4-0.1,0.8,0.1,1.4l0.2,0.5l0.5,0c0.3,0,0.4,0.1,0.7,0.4c0.4,0.3,0.9,0.7,1.8,0.7l0.3,0l0.1,0
		c0.1,0,0.2-0.1,0.3-0.1l2.1,1.5c-0.5,0.9-0.2,1.7,0.1,2.3L424.5,384.9z M524.5,392.1c-0.1,0-0.1,0-0.2,0l-6.2-2.7
		c0.4-0.2,0.7-0.5,1-0.8l5.6,2.6c0.2,0.1,0.4,0.4,0.2,0.6C524.9,392,524.7,392.1,524.5,392.1L524.5,392.1z M137.9,391.9
		c-0.3-0.6-0.8-1.3-1.5-1.7L136,390l2.9-2.1c0.1,1.1,0.4,2.1,0.6,2.9L137.9,391.9z M507.1,384.6c0.4-0.3,0.7-0.7,1-1.1l7.1,3.3
		l-0.3,0l0.3,0.9c0,0.1,0,0.1,0,0.3c0,0,0,0,0,0.1L507.1,384.6z M486.4,367.8c-0.3-0.1-0.7-0.3-1-0.5c-0.6-0.4-1.3-0.8-2.4-0.8
		c-0.2,0-0.4,0-0.6,0c-0.2,0-0.5,0.1-0.7,0.2l-1.8-0.7c0,0,0.1-0.1,0.1-0.1c0.3-0.3,0.4-0.7,0.5-1.1l6,2.6
		C486.4,367.5,486.4,367.7,486.4,367.8z M534.7,365.2c0,0-0.1,0-0.1,0l-32.6-10c-0.2-0.2-0.3-0.3-0.5-0.4c0.4-0.2,0.9-0.5,1.2-1.2
		l32.2,10.6c0.3,0.1,0.4,0.4,0.3,0.6C535.1,365,535,365.2,534.7,365.2L534.7,365.2z M477.2,364.3c-1-0.6-2.3-0.8-3.4-0.9l-0.2,0
		c0,0-0.2,0.1-0.2,0.1l-1.1-0.5l0,0c-0.4-0.8-0.9-1.8-1.8-2.4l7.1,3c-0.1,0.1-0.1,0.2-0.2,0.3C477.3,364,477.2,364.1,477.2,364.3z
		 M508.6,363c-0.4-0.1-0.8-0.3-1.2-0.5c-0.6-0.3-1.4-0.7-2.4-0.7c-0.3,0-0.5,0-0.8,0.1c-0.2,0.1-0.5,0.1-0.8,0.3l-2.1-0.7
		c0.1,0,0.1-0.1,0.2-0.2c0.3-0.4,0.4-0.8,0.4-1.3l6.8,2.5C508.6,362.7,508.6,362.9,508.6,363z M430.4,346.3l-0.3,0.6l-0.2-1
		c-0.1-0.9-0.3-1.8-0.4-2.6l39.5,16.7c-0.1,0-0.2,0-0.4-0.1l-0.3,0l-0.2,0.1c-0.4,0.2-0.6,0.6-0.8,1L430.4,346.3z M498.4,359.8
		c-1.1-0.7-2.6-0.8-3.9-0.8l-0.2,0c0,0-0.2,0.1-0.2,0.1l-1.3-0.4l0,0c-0.8-1.3-1.7-2.9-3.8-3l-0.3,0l-0.2,0.2
		c-0.4,0.3-0.6,0.7-0.8,1.1l-41.6-14l-0.1-0.3c-0.2-1-0.4-2-0.6-2.9l53.3,19.2c-0.1,0.1-0.1,0.3-0.2,0.4
		C498.5,359.5,498.4,359.6,498.4,359.8z M536.9,357.8c0,0-0.1,0-0.1,0l-32.8-9c-0.2-0.2-0.4-0.3-0.5-0.4c0.4-0.2,0.9-0.5,1.2-1.2
		l32.5,9.7c0.3,0.1,0.4,0.4,0.3,0.6C537.4,357.7,537.2,357.8,536.9,357.8L536.9,357.8z M499.2,354.2L499.2,354.2l-2.2-0.6
		c0-0.7,0.1-1.3,0.5-1.8l2.1,0.7c0.1,0.1,0.1,0.3,0.2,0.4c0.2,0.5,0.4,0.9,0.5,1.3l0,0.1L499.2,354.2z M492.6,350.4
		c-0.4-0.1-0.7-0.2-1.1-0.4c-0.6-0.3-1.2-0.6-2.1-0.6c-0.3,0-0.6,0-0.9,0.1c-0.2,0.1-0.4,0.1-0.7,0.3l-1.9-0.6
		c0.3-0.3,0.4-0.8,0.4-1.2l6.2,2C492.7,350.1,492.7,350.3,492.6,350.4z M562.8,349.2c0,0-0.1,0-0.1,0l-36.2-7.9
		c-0.2-0.2-0.5-0.3-0.7-0.4c0.5-0.2,1-0.6,1.3-1.5L563,348c0.3,0.1,0.5,0.4,0.5,0.7C563.3,349,563.1,349.2,562.8,349.2z
		 M501.1,347.9L501.1,347.9l-2.2-0.5c0-0.7,0.1-1.3,0.4-1.8l2.1,0.6c0.1,0.1,0.1,0.3,0.2,0.4c0.2,0.5,0.4,0.9,0.5,1.3l0,0.1
		L501.1,347.9z M520.9,340.1c0-0.8,0-1.5,0.4-2.1l2.4,0.6c0.1,0.2,0.2,0.3,0.3,0.5c0.3,0.5,0.5,1,0.6,1.4l0.1,0.2l-1.1-0.1l0,0.1
		L520.9,340.1z M542.2,336.2c0,0-0.1,0-0.1,0l-33.5-6.2c-0.2-0.2-0.4-0.3-0.7-0.4l-0.3-0.1l-0.3,0.1c-0.1,0-0.1,0-0.2,0l-1.3-0.2
		l0,0.1l-2.5-0.5c0-0.7,0-1.3,0.3-1.8l2.1,0.4c0.1,0.2,0.5,0.8,0.5,0.8l1,0.2c0.1,0,0.2,0.1,0.3,0.2l0.8,0.9l0.6-1.1
		c0.1-0.1,0.1-0.2,0.2-0.4l33.2,6.9c0.3,0.1,0.4,0.3,0.4,0.6C542.6,336,542.4,336.2,542.2,336.2L542.2,336.2z M501.1,327.8
		c-0.4-0.3-0.9-0.5-1.5-0.5c-0.2,0-0.4,0-0.6,0c-0.1-0.2-0.2-0.4-0.4-0.5l2.3,0.5C501,327.5,501.1,327.7,501.1,327.8L501.1,327.8z
		 M508.4,323.1c0,0-0.5-0.1-1.4-0.2c-0.1-0.4-0.1-0.7-0.2-1.1l1.6,0.3c0.3,0,0.4,0.3,0.4,0.6C508.8,322.9,508.6,323.1,508.4,323.1
		L508.4,323.1z M502.3,321.5c-0.4-0.3-0.8-0.4-1.4-0.4c-0.3,0-0.5,0-0.8,0.1c-0.1-0.2-0.2-0.4-0.4-0.5l2.3,0.4
		C502.1,321.2,502.2,321.3,502.3,321.5L502.3,321.5z M490.1,320.1c-0.3,0-0.4-0.1-0.4-0.1l-0.5-0.4l-0.5,0.4l-8.6-1.3
		c-0.3-0.2-0.6-0.4-0.9-0.5c-0.2-0.1-0.4-0.2-0.5-0.3c-0.2-0.6-0.7-1-1.1-1.3l14.9,2.7c-0.2,0.3-0.4,0.5-0.7,0.6
		c-0.2,0-0.5,0.1-0.7,0.1C490.8,320.1,490.4,320.1,490.1,320.1z M528.2,313.1c-0.1-0.4-0.2-0.9-0.3-1.3l1.9,0.2
		c0.3,0,0.6,0.3,0.5,0.7c0,0.3-0.3,0.5-0.6,0.5C529.6,313.2,529.1,313.2,528.2,313.1z M523.4,312.6c0-0.2-0.1-0.4-0.2-0.5l-0.1-0.2
		l-0.2-0.1c-0.3-0.2-0.8-0.4-1.3-0.4c-0.3,0-0.7,0-1.1,0.1c-0.2-0.3-0.4-0.5-0.6-0.7l2.7,0.3c0.5,0.5,0.8,1,0.9,1.5L523.4,312.6z
		 M498.8,310.1c-0.3-0.2-0.7-0.4-1-0.5c-0.2-0.1-0.4-0.2-0.6-0.3c-0.3-0.8-0.9-1.2-1.4-1.5c0,0,0,0-0.1,0l16.7,2
		c-0.3,0.4-0.5,0.7-0.8,0.8c-0.3,0-0.5,0.1-0.8,0.1c-0.4,0.1-0.9,0.2-1.2,0.2c-0.3,0-0.3-0.1-0.3-0.1l-0.5-0.4c0,0-0.5,0.5-0.5,0.5
		L498.8,310.1z M508.3,304.9c0-0.9-0.4-1.4-0.6-1.7c0,0-0.1-0.1-0.1-0.1l1.6,0.2l-0.1-0.3l1.7,0.2c0,0,0.1,0,0.3,0.1l0.2,0.2
		l34.9,3.3c0.3,0,0.5,0.3,0.4,0.5c0,0.3-0.2,0.5-0.5,0.5L508.3,304.9z M478.5,302.7c0,0,0-0.1,0-0.2l0-0.8l-0.1,0
		c0-0.1-0.1-0.4-0.1-0.4l-0.2-0.2c-0.1,0-0.1-0.1-0.2-0.1l-1.5-1l2.1,0.2l0-0.2l16.1,1.5c-0.2,0.3-0.4,0.5-0.6,0.7
		c-0.2,0-0.5,0.1-0.7,0.2c-0.4,0.1-0.8,0.2-1.2,0.2c-0.2,0-0.2,0-0.2,0l-0.5-0.4l-0.5,0.5l-2.3-0.2l-0.1,0.8c0,0.1,0,0.1,0,0.2
		L478.5,302.7z M504.6,302.9c-0.3-0.2-0.7-0.3-1.1-0.3c-0.3,0-0.7,0.1-1.1,0.1c-0.1-0.2-0.3-0.3-0.4-0.5l2.3,0.2
		C504.4,302.6,504.5,302.8,504.6,302.9L504.6,302.9z M508.8,298.4c0-0.9-0.4-1.3-0.7-1.7c0,0-0.1-0.1-0.1-0.1l38.7,2.5
		c0.3,0,0.5,0.3,0.5,0.5c0,0.3-0.2,0.5-0.5,0.5L508.8,298.4z M528.7,286.3c-0.1-0.9-0.5-1.5-0.8-1.8c-0.1-0.1-0.1-0.2-0.2-0.2
		l42.3,0.4c0.3,0,0.6,0.3,0.6,0.6c0,0.3-0.3,0.6-0.6,0.6L528.7,286.3z M509.1,279.3c-0.1-0.7-0.4-1.2-0.7-1.5l-0.2-0.2l38.8-0.8
		c0.3,0,0.5,0.2,0.5,0.5c0,0.3-0.2,0.5-0.5,0.5L509.1,279.3z M465,275.7c-0.6-1.1-1.5-1.7-2.8-1.8l2.7-0.1c0,0.4,0.1,0.9,0.3,1.2
		l0.2,0.4l1.3,0.2L465,275.7z M467.5,275.4c0.3-0.2,0.4-0.5,0.6-0.8c0,0,0.3,0.4,0.3,0.4l0.5,0c0.6,0,1.2,0,1.7,0c1.1,0,2.1,0,3.2,0
		c0,0,0,0.1,0,0.1l-6.3,0.4L467.5,275.4z M510.1,272.1c0-0.1,0-0.2,0-0.2c0-0.1,0-0.2-0.1-0.3c0.8,0,1.2-0.1,1.2-0.1
		c0.2,0,0.4,0.2,0.4,0.5c0,0.2-0.1,0.3-0.2,0.3L510.1,272.1z M482.5,263.8c0.3-0.3,0.5-0.6,0.6-1c0,0,0.1,0.1,0.1,0.1l0.3,0.4l0.5,0
		c1.8-0.1,3.7-0.2,5.5-0.3c0,0.1-0.1,0.2-0.1,0.2l-7.1,0.9L482.5,263.8z M528.6,257.7c0-0.1-0.1-0.2-0.1-0.3c0-0.1-0.1-0.2-0.1-0.4
		c0.9-0.1,1.4-0.1,1.4-0.1c0.2,0,0.5,0.2,0.5,0.5c0,0.2-0.1,0.4-0.3,0.5L528.6,257.7z M7.6,222.5c-0.3-0.1-0.5-0.4-0.5-0.7
		c0.1-0.3,0.3-0.5,0.6-0.5c0,0,0.1,0,0.1,0l71.4,15.5c0,0.5-0.2,0.8-0.7,1.2c-0.3,0.3-0.7,0.7-0.9,1.2L7.6,222.5z M129.5,237.9
		l0.1-0.4l-13.2-4.3c-0.1-0.7-0.3-1.5-0.5-2.3l11.6,3.5c-0.2,0.3-0.4,0.8-0.1,1.5l0.1,0.2l0.2,0.2c0.3,0.3,0.8,0.4,1.2,0.4
		c0.6,0,1.1-0.2,1.4-0.6c0.2-0.2,0.3-0.5,0.4-0.8l4.4,1.3l-0.6,0c-0.6,0-1.1,0.2-1.6,0.4l-2,0.9C130.8,238,129.8,237.9,129.5,237.9z
		 M33.5,213.7c-0.3-0.1-0.4-0.4-0.3-0.6c0.1-0.2,0.3-0.4,0.5-0.4c0.1,0,0.1,0,0.1,0l64.8,17.8c0,0.4-0.2,0.6-0.7,1
		c-0.3,0.3-0.6,0.6-0.9,1.1L33.5,213.7z M69.4,217.8c0,0-0.1,0-0.2-0.2l-0.2-0.2l-33.3-11c-0.3-0.1-0.4-0.4-0.3-0.6
		c0.1-0.2,0.3-0.3,0.5-0.3c0.1,0,0.1,0,0.1,0l64.2,19.7c0,0.1,0,0.1,0,0.2l-0.2,0.7l0,0c-0.3,0.2-0.7,0.4-1,0.6l-0.1,0l-0.2,0.2
		c-0.1,0.1-0.1,0.2-0.2,0.2l-0.3-0.1l-0.2,0.1L69.4,217.8z M121.5,219c0-0.7-0.1-1.5-0.3-2.3l11.2,4.5c-0.2,0.3-0.4,0.7-0.3,1.5
		l0.1,0.3l0.2,0.2c0.3,0.3,0.9,0.5,1.4,0.5c0.5,0,1-0.2,1.3-0.5c0.2-0.2,0.3-0.4,0.4-0.7l4.3,1.7l-0.7,0c-1.2,0-2.2,0.4-2.8,1.2
		L121.5,219z M52.8,204.8c-0.3-0.1-0.5-0.5-0.4-0.8c0.1-0.2,0.3-0.4,0.6-0.4c0.1,0,0.1,0,0.2,0L86,214.7c0,0,0,0-0.1,0
		c-0.4,0.2-0.8,0.4-1.2,0.7c-0.4,0.2-0.7,0.3-1.1,0.5L52.8,204.8z M75.9,199.7c-0.2-0.1-0.4-0.4-0.3-0.6c0.1-0.2,0.3-0.3,0.5-0.3
		c0.1,0,0.1,0,0.2,0l29.4,11.7c-0.4,0.2-0.7,0.3-1.1,0.5c-0.3,0.1-0.6,0.3-1,0.4L75.9,199.7z M102.7,205.4l0.2-0.6l-2.5-1.1
		l-4.5-2.1l0.1,0.8l-50.2-22.9c-0.2-0.1-0.4-0.4-0.2-0.7c0.1-0.2,0.2-0.3,0.4-0.3c0,0,0,0,0,0c0.1,0,0.1,0,0.2,0l49.5,21.4l0.4,0.3
		l11.8,5.1c-0.4,0.1-0.7,0.3-1.1,0.5c-0.3,0.1-0.7,0.2-1,0.4l-0.9-0.4l-0.4,0.5L102.7,205.4z M430.2,205.7c0-0.7-0.1-1.4-0.4-2.1
		l7.5-4.1l0,0.2l0.1,0.2c0.3,0.5,0.8,0.8,1.3,1c0.1,0,0.1,0.1,0.2,0.1l-8.7,5L430.2,205.7z M445.4,197.4c-0.2-0.2-0.2-0.2-0.2-0.3
		c0-0.2,0-0.3,0.1-0.3c0.1-0.1,0.4-0.2,0.9-0.3c-0.1,0.2-0.1,0.4-0.1,0.6L445.4,197.4z M87.1,191.3c0-0.3,0.1-0.6,0.3-0.9
		c0,0.2,0,0.4,0,0.5c0,0.2,0,0.3,0,0.5L87.1,191.3z M437.9,190.3c-0.1-0.7-0.2-1.6-0.5-2.2l8.1-5c0,0,0,0.3,0,0.3l0.2,0.2
		c0.4,0.5,0.9,0.8,1.4,1c0.1,0,0.2,0.1,0.3,0.1l-9.4,6.1L437.9,190.3z M108.1,189c0-0.2,0.1-0.3,0.1-0.5c0,0.1,0,0.5,0,0.6
		L108.1,189z M28.5,162.3c-0.3-0.1-0.4-0.5-0.3-0.8c0.1-0.2,0.3-0.3,0.5-0.3c0.1,0,0.2,0,0.3,0.1l53.1,24.9c0.1,0.9,0.1,1.8,0.3,2.9
		L28.5,162.3z M55.7,159.5c-0.2-0.1-0.3-0.4-0.2-0.7c0.1-0.2,0.3-0.3,0.4-0.3c0.1,0,0.2,0,0.2,0.1l47.5,25.5c0,0.7,0,1.6,0.1,2.5
		L55.7,159.5z M111,183.9c0-0.2,0.1-0.3,0.2-0.5c0,0.1,0,0.5,0,0.6L111,183.9z M470.3,182.5c-0.1,0-0.2,0-0.3,0
		c-0.2-0.1-0.4-0.2-0.6-0.3l13.3-7.2c0.1,0,0.2-0.1,0.2-0.1c0.2,0,0.4,0.1,0.4,0.3c0.1,0.2,0,0.5-0.2,0.7l-9.2,5.3
		c-0.3-0.1-0.6-0.1-0.8-0.1c-1,0-1.6,0.6-2,1C470.8,182.4,470.6,182.5,470.3,182.5z M103.5,179.4l0,0.3l-2.9-1.7l-0.1-0.3l-0.3-0.2
		l-2.1-1.3l-0.2,0.2l-8.2-4.9c0,0-0.1-0.1-0.2-0.3l-0.1-0.3l-30-18.1c-0.2-0.1-0.3-0.4-0.2-0.7c0.1-0.2,0.3-0.2,0.4-0.2
		c0.1,0,0.2,0,0.2,0.1l46.7,26.9c0,0.7,0,1.6,0,2.5L103.5,179.4z M453.9,180.4c-0.2-0.2-0.3-0.3-0.3-0.4c0-0.3,0-0.4,0.1-0.4
		c0.2-0.2,0.6-0.3,1.1-0.4c-0.1,0.2-0.1,0.5-0.1,0.7L453.9,180.4z M185.6,176.3c0.1,0,0.3,0,0.4,0c0.2,0,0.3,0,0.5,0l0.1,1.2
		L185.6,176.3z M408.8,175.9c0.8-1.1,1.1-2.5,1.4-3.7c0.1-0.2,0.1-0.5,0.2-0.7l4.1-3.6l0.6,0l0.1-0.4l0.2,0.2
		c0.5,0.3,1.1,0.6,1.7,0.6L408.8,175.9z M159.1,146.1c0,0,1.2,0,1.2,0l-0.4-1.1c0,0,0-0.1,0-0.1c-0.2-0.9-0.7-1.1-1.1-1.1l-1.1,0
		l0.3,0.9l-24.2-27.5c0,0,0,0,0-0.1c0.3-0.2,0.6-0.3,1-0.4l46.3,50.4l0.6-0.5l0.1,1.2c0.1,0.6,0.1,1.3,0.2,1.9
		c0.1,0.9,0.2,1.7,0.3,2.5L159.1,146.1z M139.8,141.5c0,0,0.2,0,0.2,0l1.2-0.1l-0.4-1c0,0,0-0.1,0-0.1c-0.2-0.7-0.6-1.1-1.1-1.1
		l-0.1,0l-1.1,0.1l0.4,1c0,0,0,0.1,0,0.1c0,0,0,0,0,0.1l-28.1-28.6c0,0-0.1-0.1-0.1-0.2c0.4-0.2,0.7-0.4,1.2-0.5l54.1,52.9
		c0.1,0.6,0.2,1.3,0.3,1.9c0.2,1,0.4,2,0.5,2.9L139.8,141.5z M303.2,168.3l0.1-0.5C303.3,168,303.3,168.1,303.2,168.3z M460.1,167.1
		l-0.2-0.2l12.7-8.4c0.1-0.1,0.2-0.1,0.3-0.1l0.3,0l0.3-0.1l17.7-11.6c0,0,0.1,0,0.1,0l0.2,0.1l0.2,0c0.7,0,1.1-0.4,1.5-0.7
		c0.3-0.2,0.4-0.3,0.5-0.3c0.1,0,0.2,0,0.2,0c0.1,0.1,0.2,0.2,0.3,0.3L466.8,165l0.3-1.4l-2.5,1.8c-0.2,0-0.4-0.1-0.6-0.1
		c-0.4,0-0.7,0.1-1,0.2l-0.4,0.2l-0.1,0.4c0,0.2-0.1,0.5-0.2,0.7c-0.2,0.1-0.5,0.2-0.8,0.2c-0.7,0.2-1.6,0.5-2.4,0.6L460.1,167.1z
		 M419.7,165.9c-0.1-0.6-0.3-1.1-0.7-1.5l-0.2-0.2l-0.2,0l9-7.9c-0.2,0.4-0.4,1-0.4,1.7l0,0.2l0.1,0.2c0.1,0.1,0.1,0.2,0.2,0.4
		L419.7,165.9z M407,165.3c0.2-0.4,0.3-1,0.3-1.6c-0.1-0.7-0.4-1.3-0.9-1.6l-0.1-0.1l1-0.9l0.1,0.3l0.8,0c4.8,0,5.5-3.5,6-6.3
		c0.1-0.3,0.1-0.5,0.2-0.8l4.3-4.2l0.6,0l0.1-0.5l0.4,0.2c0.6,0.4,1.3,0.6,2,0.6L407,165.3z M110.4,162.6c-0.1-0.5,0.1-0.8,0.3-1.2
		c0,0,0-0.1,0.1-0.1l2.3,1.6c0,0.1,0,0.3,0,0.4c0,0.4,0,0.9,0,1.2L110.4,162.6z M88,162.5c-0.2-0.6,0-0.9,0.3-1.4
		c0,0,0.1-0.1,0.1-0.2l2.7,1.7c0,0.1,0,0.3,0,0.4c0,0.5,0.1,1,0.1,1.5L88,162.5z M480.1,162.8c-0.1,0-0.2,0-0.3,0
		c-0.3-0.1-0.5-0.2-0.8-0.4l14.1-8.7c0.1-0.1,0.2-0.1,0.3-0.1c0.2,0,0.4,0.1,0.5,0.3c0.2,0.3,0.1,0.7-0.2,0.8l-9.7,6.3
		c-0.3-0.1-0.5-0.1-0.8-0.1c-1.1,0-1.8,0.7-2.2,1.2C480.6,162.6,480.4,162.8,480.1,162.8z M459,160.4c0,0.1,0,0.1,0,0.2
		c-0.1,0.4-0.1,0.8-0.2,1.2c-0.2,0.1-0.5,0.2-0.8,0.3c-0.7,0.3-1.5,0.5-2.3,0.7L459,160.4z M100.2,155.2c-0.2-0.2-0.3-0.5-0.1-0.7
		c0.1-0.1,0.2-0.2,0.4-0.2c0.1,0,0.2,0,0.3,0.1l3.5,2.4c0.2,1.1,1,1.2,1.3,1.2c0.1,0,0.3,0,0.4,0l1.3,0.9c-0.3,0.3-0.4,0.6-0.6,1
		L100.2,155.2z M76.6,155.1c-0.3-0.2-0.4-0.6-0.2-0.8c0.1-0.2,0.3-0.3,0.5-0.3c0.1,0,0.2,0,0.3,0.1l3.9,2.4c0.2,1.1,1,1.3,1.3,1.3
		c0.2,0,0.4,0,0.6-0.1l1.6,1c-0.3,0.4-0.5,0.8-0.6,1.3L76.6,155.1z M463.2,159.8c0.1-0.7,0-1.5-0.4-2.1l24.3-16.9c0,0,0.1,0,0.1,0
		l0.2,0.1l0.2,0c0.7-0.1,1.1-0.4,1.5-0.7c0.3-0.2,0.4-0.3,0.5-0.3c0.1,0,0.1,0,0.2,0c0.1,0.1,0.2,0.2,0.3,0.3L463.2,159.8z
		 M434.1,158.3l-0.1,0.1c-0.2,0.3-0.5,0.4-0.8,0.6L434.1,158.3z M435.9,158.8c-0.3-0.1-0.5-0.3-0.7-0.5l-0.5-0.5l2.6-2.1
		c0.5,0.3,1.1,0.4,1.7,0.5L435.9,158.8z M104.1,149.9c-0.2-0.2-0.3-0.5-0.1-0.7c0.1-0.1,0.2-0.2,0.4-0.2c0.1,0,0.2,0,0.3,0.1
		l3.4,2.5c0.2,1.2,1,1.3,1.3,1.3c0.1,0,0.3,0,0.4,0l1.3,1c-0.3,0.3-0.5,0.6-0.6,1L104.1,149.9z M430.3,154l-0.1,0.1
		c-0.2,0.3-0.5,0.4-0.8,0.6L430.3,154z M432.2,154.4c-0.3-0.1-0.6-0.3-0.8-0.5l-0.5-0.5l2.5-2.2c0.5,0.3,1.1,0.4,1.7,0.5
		L432.2,154.4z M443.3,152.4c-0.5-0.2-1.1-0.4-1.6-0.4c-0.1,0-0.1,0-0.2,0l3.8-3.2l-1.1,0l3.4-2.8l-0.1,0.9l4.2-3.5l-0.5-0.4
		l22.8-18.9c0,0,0.1,0,0.1,0l0.2,0l0.2,0c0.7-0.1,1.1-0.5,1.4-0.8c0.3-0.3,0.4-0.4,0.6-0.4c0.1,0,0.1,0,0.2,0
		c0.1,0.1,0.2,0.2,0.3,0.3l-25.2,21.8l-1.5,1.1L443.3,152.4z M94.7,143.6c0-0.3,0-0.5,0-0.8c-0.2-0.6-0.7-1.1-1.3-1.3l-0.9-0.3
		l0,0.5l-17-13c-0.2-0.2-0.3-0.5-0.1-0.7c0.1-0.1,0.2-0.2,0.4-0.2c0,0,0,0,0,0c0.1,0,0.2,0,0.3,0.1l26,19c-0.2,0.2-0.4,0.4-0.5,0.7
		l-0.1,0.2l0.1,0.2c0.1,0.3,0.2,0.6,0.3,0.8c0,0,0,0,0,0L94.7,143.6z M439.4,147.8c-0.5-0.2-1-0.3-1.5-0.3c-0.1,0-0.2,0-0.3,0
		l10.5-9.2c0,0,0.1,0.1,0.1,0.1c0.2,0.2,0.5,0.4,0.7,0.7L439.4,147.8z M424.1,147.8c-0.1-0.7-0.4-1.3-0.8-1.6l-0.2-0.2
		c0,0-0.3,0-0.4,0l9.8-9.6c-0.3,0.5-0.6,1.2-0.5,2.2l0,0.2l0.1,0.2c0.1,0.2,0.2,0.3,0.3,0.4L424.1,147.8z M466.6,139.2
		c0,0.1,0,0.2,0,0.3c0,0.5-0.1,0.9-0.2,1.3c-0.3,0.1-0.6,0.2-0.8,0.3c-0.9,0.4-1.9,0.8-2.8,1L466.6,139.2z M470.9,138.7
		c0-0.9,0-1.8-0.6-2.4l25.5-19.9c0.1,0,0.1,0,0.2,0l0.2,0.1l0.2,0c0.7-0.1,1.2-0.5,1.5-0.9c0.3-0.3,0.4-0.4,0.7-0.4
		c0.1,0,0.2,0,0.3,0c0.2,0.1,0.3,0.2,0.4,0.4L470.9,138.7z M169.6,124.9c0.8-0.3,1-0.9,1.2-1.4c0.2-0.4,0.2-0.4,0.4-0.4l1.5,2.1
		c0,1.2,0.6,2,1.7,2.4l5.9,8.1c-0.4-0.1-0.7-0.2-1.2-0.2c-0.6,0-1.1,0.1-1.7,0.2c-0.1,0-0.2,0-0.3,0.1L169.6,124.9z M435.3,133.7
		l-0.4,0.6c-0.2,0.4-0.6,0.6-1,0.8c-0.1,0.1-0.3,0.2-0.4,0.3L435.3,133.7z M437.1,134.6c-0.3-0.1-0.7-0.3-0.9-0.5l-0.7-0.6l2.7-2.6
		c0.6,0.3,1.3,0.4,2.1,0.5L437.1,134.6z M107.5,127.9c0.1-0.2,0.1-0.5,0-0.8c-0.1-0.6-0.6-1.2-1.2-1.4l-0.9-0.3l-0.1,0.5l-15.9-14.4
		c-0.2-0.2-0.2-0.5,0-0.7c0.1-0.1,0.3-0.2,0.4-0.2c0.1,0,0.2,0,0.3,0.1l24.3,21.2c-0.2,0.2-0.4,0.4-0.6,0.7l-0.1,0.2l0,0.2
		c0.1,0.3,0.2,0.6,0.3,0.8c0,0,0,0,0,0L107.5,127.9z M184.8,132.6c-0.4-0.2-0.8-0.2-1.3-0.2c-0.5,0-1.1,0.1-1.6,0.2
		c-0.1,0-0.2,0-0.2,0l-4-6.2l-0.1,0.2l-0.8-1.3l0.2-0.1l-2.5-3.8c0.1,0,0.1,0,0.1-0.1l1.4-0.6l-1.2-0.8c-0.1-0.1-0.2-0.1-0.2-0.2
		c0.1-0.1,0.1-0.2,0.2-0.4l0.6,0.8l0.7-0.5c0,0,0,0,0.1,0h0l1.5,2.1c0,1.2,0.6,2,1.7,2.5L184.8,132.6z M216.6,123.9
		c0.2,0,0.5,0.1,0.7,0.1c0.5,0.1,1.1,0.2,1.7,0.2c0.3,0,0.5,0,0.7-0.1l1.2,2.9c-0.2,0.1-0.4,0.2-0.6,0.4l-0.1,0.1l-0.1,0.1
		c-0.5,1.1-0.3,1.9-0.1,2.7c0.1,0.4,0.2,0.8,0.3,1.4c-0.1,0.1-0.2,0.2-0.4,0.3c0,0-0.1,0-0.1,0.1L216.6,123.9z M82.8,125
		c0.1-0.3,0.1-0.6,0-0.9c-0.2-0.7-0.7-1.2-1.3-1.4l-0.9-0.3l-0.1,0.6l-18.2-14.8c-0.3-0.2-0.3-0.6-0.1-0.9c0.1-0.1,0.3-0.2,0.5-0.2
		c0.1,0,0.2,0,0.4,0.1l27.7,21.6c-0.3,0.2-0.5,0.4-0.6,0.8l-0.1,0.2l0.1,0.2c0.1,0.3,0.2,0.6,0.3,0.8c0.1,0.1,0.1,0.2,0.1,0.3
		L82.8,125z M150.1,117.9c0.9-0.3,1.1-1.1,1.3-1.5c0.2-0.5,0.2-0.5,0.4-0.6l0,0l1.8,2.2c0.1,1.3,0.8,2.1,2,2.5l7,8.6
		c-0.4-0.2-0.8-0.2-1.3-0.2c-0.7,0-1.4,0.2-2.1,0.4c-0.1,0-0.2,0.1-0.3,0.1L150.1,117.9z M112.1,122.8c0.1-0.2,0.1-0.5,0-0.8
		c-0.1-0.6-0.5-1.2-1.1-1.4l-0.9-0.4l-0.1,0.5l-15.4-14.9c-0.2-0.2-0.2-0.5,0-0.7c0.1-0.1,0.3-0.2,0.4-0.2c0.1,0,0.2,0,0.3,0.1
		L119,127c-0.2,0.2-0.4,0.4-0.6,0.7l-0.1,0.2l0,0.2c0.1,0.3,0.2,0.6,0.2,0.8c0,0,0,0,0,0L112.1,122.8z M444.5,127
		c-0.5-0.2-1-0.3-1.4-0.3c-0.3,0-0.5,0-0.7,0.1l11-10.8c0.1,0.1,0.1,0.1,0.2,0.2c0.3,0.2,0.6,0.5,0.8,0.7L444.5,127L444.5,127z
		 M431,122.8c-0.7,0-1.4,0-2.1-0.2l7.9-8.7c0.1,0,0.3,0.1,0.4,0.1c0.4,0.1,0.9,0.3,1.1,0.4l0,0c0,0,0.1,0,0.1,0.1l-2.6,3
		c-0.9,0-1.6,0.5-2,1.3l-0.1,0.2v0.2c0,0.2,0,0.4,0.1,0.6l-2.6,3L431,122.8z M201,114c0.3,0,0.6,0,0.9,0.1c0.5,0,1,0.1,1.4,0.1
		c0.5,0,0.9,0,1.2-0.1l1.6,3.2c-0.2,0.1-0.5,0.3-0.7,0.5l-0.1,0.1l-0.1,0.1c-0.5,1.2-0.2,2.1,0.1,2.9c0.2,0.5,0.3,0.9,0.4,1.5
		c-0.1,0.1-0.2,0.2-0.4,0.3c-0.1,0-0.1,0.1-0.2,0.1L201,114z M215.5,118.6c-0.5-0.8-1-1.6-1.5-2.3c-0.3-0.5-0.7-1-1-1.5l-13.5-33.4
		c0.6-0.3,1.2-0.6,1.6-0.9l16,37.3C216.6,118.2,216.1,118.5,215.5,118.6z M190.7,116.8c0.1,0,0.3,0,0.4,0c0.4,0,0.7,0,1.1,0.1
		c-0.4,0.3-0.6,0.8-0.8,1.2L190.7,116.8z M220.4,116.7c-0.4-0.8-0.9-1.6-1.4-2.3c-0.3-0.5-0.6-1-0.9-1.5l-3.2-8.7l-0.1,0.2l-4-10.6
		l0.2,0l-0.3-1l-1-2.8l-0.3-0.1l-5.8-15.5c-0.1-0.2,0-0.4,0.1-0.5l0.5-0.5l2.2,5.4c0,0,0.9-0.5,0.9-0.5L222,116
		C221.6,116.3,221,116.5,220.4,116.7z M242.3,116.4c0,0-0.1,0-0.3-0.2c-0.2-0.2-0.3-0.4-0.4-0.6c0.3,0,0.6-0.1,0.9-0.1l0.2,0.7
		c-0.1,0.1-0.1,0.2-0.2,0.2C242.4,116.4,242.3,116.4,242.3,116.4z M159.5,110.3l0.3-0.2c0.5-0.3,0.9-0.6,1.3-0.9l3.8,5.2l0,0
		c-0.5,0.5-0.8,1.1-1,1.6c-0.1,0.1-0.1,0.2-0.2,0.4L159.5,110.3z M256.8,113.4c0,0-0.1,0-0.3-0.1c-0.2-0.2-0.3-0.4-0.4-0.7
		c0.1,0,0.1,0,0.2,0c0.2,0,0.4,0,0.7-0.1l0.1,0.7c-0.1,0.1-0.1,0.1-0.2,0.2C256.9,113.3,256.8,113.4,256.8,113.4z M164.7,106.7
		l1.2-0.8c0.1-0.1,0.3-0.2,0.4-0.3l3.6,5.3l0,0c-0.5,0.5-0.8,1-1.1,1.6c-0.1,0.1-0.1,0.2-0.2,0.4L164.7,106.7z M189.6,111.6
		c-0.5-0.2-0.7-0.3-0.8-0.5c0.1-0.1,0.2-0.2,0.3-0.3L189.6,111.6z M451.2,110.7c-0.3-0.4-0.7-0.7-1.1-0.9l14.6-15.1
		c0.1-0.1,0.3-0.2,0.4-0.2c0.1,0,0.2,0,0.3,0.1c0.2,0.2,0.2,0.5,0,0.7L451.2,110.7z M408.3,110l7.1-9.8c0.1-0.1,0.2-0.2,0.4-0.2
		c0.1,0,0.2,0,0.3,0.1c0.2,0.2,0.3,0.5,0.1,0.7l-6.5,9.4C409.2,110.1,408.7,110,408.3,110z M172.5,107.9c0.3,0,0.6-0.1,1-0.1
		c0.3,0,0.6,0,1,0c-0.5,0.4-0.8,1-1,1.5L172.5,107.9z M138.1,102.6l0.1,0.1l0.3-0.2c0.5-0.3,1-0.7,1.4-1.1l4.5,5.5l0,0.1
		c-0.5,0.5-0.7,1.2-1,1.8c-0.1,0.2-0.1,0.3-0.2,0.5L138.1,102.6z M199.6,108.6c-0.6-0.9-1.2-1.7-1.8-2.4c-0.4-0.5-0.8-1-1.2-1.5
		L180,69.1c0.7-0.4,1.3-0.8,1.8-1.1l19.6,39.7C200.9,108,200.3,108.4,199.6,108.6z M164.2,106l-0.1,0.3l-1.6-2.4l0.4,0.1l-0.2-0.3
		c0.1,0,0.2,0,0.4,0c0.2,0,0.5,0,0.7,0l0.9,1.3l-0.2,1.3L164.2,106z M446,105.9c-0.3-0.4-0.7-0.7-1.1-0.9L459,89.5
		c0.1-0.1,0.3-0.2,0.4-0.2c0.1,0,0.2,0,0.3,0.1c0.2,0.2,0.2,0.5,0,0.7L446,105.9z M155.3,104.3c0-1.6-0.5-2.7-1-3.7
		c-0.3-0.7-0.6-1.2-0.6-1.6l2.3,3.1c-0.3,0.7-0.4,1.6-0.5,2.4L155.3,104.3z M171.2,102.4c-0.6-0.2-0.8-0.3-1-0.6
		c0.1-0.2,0.2-0.3,0.3-0.5l0.8,1.2C171.3,102.4,171.2,102.4,171.2,102.4z M160.6,100.5c0.1-1.6-0.5-2.8-0.9-3.7
		c-0.3-0.7-0.5-1.2-0.6-1.6l2.2,3.2c-0.3,0.7-0.5,1.5-0.6,2.4L160.6,100.5z M244.2,100.4c0,0-0.2,0-0.3-0.2
		c-0.2-0.2-0.3-0.5-0.5-0.8c0,0,0.1,0,0.1,0c0.3,0,0.6,0,1-0.1l0.2,0.9c-0.1,0.2-0.1,0.2-0.2,0.2
		C244.3,100.3,244.2,100.4,244.2,100.4z M432.8,100.3c-0.5,0-1,0-1.4-0.1l8.2-10c0.2,0,0.3,0.1,0.5,0.1c0.5,0.1,1,0.2,1.3,0.4
		l0.1,0.1c0,0,0.1,0,0.1,0.1l-2.7,3.5c-1,0.1-1.7,0.6-2,1.5l-0.1,0.2l0,0.2c0,0.2,0.1,0.5,0.2,0.6l-2.7,3.5
		C433.7,100.3,433.3,100.3,432.8,100.3z M227.2,88c0.2-0.1,0.5-0.2,0.8-0.4l0.4-0.3l-0.1-0.5c0-0.1,0-0.1,0-0.2l3.2,10.7
		c-0.3,0.1-0.6,0.2-0.9,0.3l-0.6,0.2l0,0.3L227.2,88z M133.3,96.4c0-1.7-0.7-2.9-1.3-3.9c-0.5-0.8-0.8-1.4-0.8-2l2.8,3.5
		c-0.3,0.9-0.4,1.9-0.4,2.8L133.3,96.4z M178.2,93.9c0.4,0.1,0.8,0.1,1.2,0.1c0.1,0,0.1,0,0.2,0l0.8,1.4c-0.1,0.2-0.1,0.4-0.1,0.5
		c-0.2,0.2-0.3,0.5-0.5,0.7c0,0,0,0,0,0L178.2,93.9z M234.5,92.5l-0.6,0.2L225,57.1l0.1,0c0.3,0,0.9-0.1,1.4-0.3l3.6,13.3l0,0
		l0.1,0.4l0.5,1.9l0.1,0.1l5.4,19.7l-0.2,0l0.4,1.2l0.6,2.4c-0.3,0.1-0.6,0.2-0.9,0.3l-0.6,0.1l0,0.3L234.5,92.5z M430.2,92.9
		c-0.4-0.3-0.8-0.6-1.2-0.8l12.8-16.7c0.1-0.1,0.2-0.2,0.4-0.2c0,0,0,0,0,0c0.1,0,0.2,0,0.3,0.1c0.2,0.2,0.3,0.5,0.1,0.7L430.2,92.9
		z M244.6,52.8l0.2,0c0.3,0,0.9,0,1.4-0.2l2.5,13.5c-0.2,0.3-0.5,0.8-0.4,1.5l0,0.2l0.1,0.1c0.2,0.3,0.5,0.5,0.7,0.7l3.7,20.2
		c-0.2,0-0.5,0-0.7,0c-0.5,0-1.1,0.1-1.6,0.2L244.6,52.8z M410,87.8c-0.6,0-1.1-0.1-1.7-0.1l7.1-11.1c0.1-0.2,0.3-0.3,0.5-0.3
		c0.1,0,0.2,0,0.3,0.1c0.3,0.2,0.4,0.6,0.2,0.8L410,87.8z M157.6,83.7c0.3,0,0.7,0.1,1.1,0.1c0.2,0,0.4,0,0.6,0l1,1.5
		c0,0.2-0.1,0.4-0.1,0.6c-0.2,0.3-0.3,0.6-0.5,0.8c0,0,0,0.1-0.1,0.1L157.6,83.7z M228.1,86c-0.3-0.9-1-1.5-2-1.9l-1.8-6.4
		c0.2,0.2,0.4,0.5,0.6,0.7c0.4,0.4,0.7,0.7,0.9,1.2l0,0.1l0,0.1c0.1,0.2,0.2,0.4,0.3,0.7c0.1,0.2,0.2,0.5,0.3,0.7L228.1,86z
		 M210.4,74.5c0.3-0.1,0.6-0.2,0.9-0.5l0.4-0.3l-0.1-0.5c-0.3-1.4-1.2-2.3-2.5-2.8l-2.5-7.2c0.3,0.4,0.6,0.7,1,0.9
		c0.5,0.4,0.9,0.8,1.1,1.3l0,0.1l0,0.1c0.1,0.2,0.3,0.5,0.4,0.7c0.1,0.3,0.3,0.5,0.4,0.7l6.3,17.4c-0.4,0.2-0.7,0.3-1,0.4l-0.6,0.2
		c0,0,0,0.7,0,0.7L210.4,74.5z M181.5,83.7c-0.7-0.2-1.5-0.4-2.2-0.5l-15.2-30c-0.1-0.2,0-0.5,0.2-0.7c0.1,0,0.1-0.1,0.2-0.1
		c0.2,0,0.4,0.1,0.5,0.3L181.5,83.7z M449.2,81.1c-0.4-0.4-0.9-0.7-1.4-1l14.5-17.8c0.1-0.1,0.3-0.2,0.5-0.2c0.1,0,0.2,0,0.4,0.1
		c0.3,0.2,0.3,0.6,0.1,0.9L449.2,81.1z M199,75.6c-0.7-0.3-1.4-0.5-2.1-0.7l-12.6-31.2c-0.1-0.3,0-0.5,0.3-0.6c0.1,0,0.1,0,0.2,0
		c0.2,0,0.4,0.1,0.5,0.3L199,75.6z M221.6,68.2c-0.1-0.3,0.1-0.5,0.3-0.6c0,0,0.1,0,0.1,0c0.2,0,0.4,0.2,0.5,0.4l1.8,5.9
		c0,0,0,0,0,0c-0.2,0.1-0.3,0.2-0.5,0.3l-0.5,0.2l0,0.2L221.6,68.2z M227.3,35.2l0.2,0c0.4,0,1-0.1,1.5-0.3l3.5,14.6
		c-0.2,0.3-0.5,0.9-0.3,1.6l0,0.2l0.1,0.1c0.2,0.3,0.5,0.5,0.8,0.7l5.2,21.8c-0.2,0-0.3,0-0.5,0c-0.7,0-1.5,0.1-2.2,0.3L227.3,35.2z
		 M203.7,72.5l0.1,0.2l-0.8-0.2l-11.7-31.5c-0.1-0.3,0-0.5,0.3-0.6c0.1,0,0.1,0,0.2,0c0.2,0,0.4,0.1,0.5,0.3l12.8,32.6L203.7,72.5z
		 M179.3,62.8c-0.8-0.3-1.7-0.5-2.5-0.6l-15.5-33.1c-0.1-0.3,0-0.7,0.3-0.8c0.1,0,0.2-0.1,0.3-0.1c0.2,0,0.4,0.1,0.5,0.3L179.3,62.8
		z M203.3,53.4c-0.1-0.3,0.1-0.7,0.4-0.8c0.1,0,0.1,0,0.2,0c0.3,0,0.5,0.2,0.6,0.4l2.3,6.4c0,0,0,0,0,0c-0.2,0.1-0.3,0.3-0.5,0.3
		l-0.5,0.2c0,0,0,0.6,0,0.6L203.3,53.4z M218.8,32.1c-0.1-0.2,0-0.4,0.2-0.5c0,0,0.5,3.4,0.5,3.4l0.6,0.1c0.1,0,0.3,0,0.4,0
		c0,0,0.1,0,0.1,0l5.2,19.2c-0.5,0.1-1,0.3-1.2,0.7c0,0-0.1,0.1-0.1,0.1L218.8,32.1z M240.5,27.3c0-0.2,0.1-0.4,0.2-0.5
		c0,0,0.2,3.5,0.2,3.5l0.6,0.1c0.2,0,0.3,0.1,0.5,0.1l3.6,19.6c-0.5,0-1,0.2-1.3,0.6c0,0,0,0,0,0.1L240.5,27.3z M248.1,26.1
		c0-0.2,0.1-0.4,0.3-0.5c0,0,0.1,3.5,0.1,3.5l0.6,0.1c0.2,0,0.3,0.1,0.5,0.1l3,19.7c-0.5,0-1,0.2-1.4,0.6c0,0,0,0,0,0L248.1,26.1z
		 M221.3,7.9c-0.1-0.3,0.1-0.6,0.4-0.7c0,0,0,0.1,0,0.1l0.5,3.7l0.6,0.1c0.2,0,0.4,0,0.5,0c0,0,0,0,0,0l5.1,21.2
		c-0.6,0-1.1,0.3-1.4,0.7c-0.1,0.1-0.1,0.2-0.2,0.2L221.3,7.9z"/>
</g>
</svg>
