<?xml version="1.0" encoding="utf-8"?>
<!-- Generator: Adobe Illustrator 22.1.0, SVG Export Plug-In . SVG Version: 6.00 Build 0)  -->
<svg version="1.1" id="Layer_1" xmlns="http://www.w3.org/2000/svg" xmlns:xlink="http://www.w3.org/1999/xlink" x="0px" y="0px"
	 viewBox="0 0 1246.2 727.7" style="enable-background:new 0 0 1246.2 727.7;" xml:space="preserve">
<style type="text/css">
	.st0{fill:#818080;}
	.st1{fill:#FFFFFF;}
	.st2{fill:#EC2226;}
</style>
<g>
	<rect x="2" y="2" class="st0" width="275.8" height="597"/>
	<path d="M275.8,4v593H4V4H275.8 M279.8,0H0v601h279.8V0L279.8,0z"/>
</g>
<g>
	<rect x="287.1" y="2" class="st1" width="309.2" height="198.1"/>
	<path d="M594.3,4v194.1H289.1V4H594.3 M598.3,0H285.1v202.1h313.2V0L598.3,0z"/>
</g>
<g>
	<rect x="287.1" y="400.9" class="st1" width="309.2" height="198.1"/>
	<path d="M594.3,402.9V597H289.1V402.9H594.3 M598.3,398.9H285.1V601h313.2V398.9L598.3,398.9z"/>
</g>
<g>
	<polygon class="st2" points="313.9,205.6 475.3,299.2 313.9,395.4 	"/>
	<path d="M315.9,209.1l155.4,90.2l-155.4,92.6V209.1 M311.9,202.1v196.8l167.3-99.7L311.9,202.1L311.9,202.1z"/>
</g>
<rect x="645.2" y="0" width="601" height="281"/>
<g>
	<rect x="1046.1" y="288.4" class="st1" width="198.1" height="310.6"/>
	<path d="M1242.2,290.4V597h-194.1V290.4H1242.2 M1246.2,286.4h-202.1V601h202.1V286.4L1246.2,286.4z"/>
</g>
<g>
	<rect x="647.2" y="288.4" class="st1" width="198.1" height="310.6"/>
	<path d="M843.3,290.4V597H649.2V290.4H843.3 M847.3,286.4H645.2V601h202.1V286.4L847.3,286.4z"/>
</g>
<g>
	<polygon class="st2" points="850.8,315.3 1040.6,315.3 947,477.4 	"/>
	<path d="M1037.2,317.3L947,473.4l-92.6-156.2H1037.2 M1044.1,313.3H847.3L947,481.4L1044.1,313.3L1044.1,313.3z"/>
</g>
<g>
	<path d="M324.3,715.1v11.4h-48.5v-47.8h48.5v11h-29.1v6.9h23.5v10.6h-23.5v7.8H324.3z"/>
	<path d="M402.3,678.8v47.8h-18.4v-34.1L372,726.5h-12.6L347,692.4v34.1h-14.8v-47.8H358l9.4,25.4l8.9-25.4H402.3z"/>
</g>
<g>
	<path d="M471,707.6l9.3,0.7c-0.6,3.6-2.8,6.5-6.5,8.9s-8.6,3.5-14.6,3.5c-5.1,0-9.2-0.8-12.4-2.5s-5.6-3.9-7.3-6.7
		c-1.7-2.8-2.6-5.9-2.6-9.3c0-5.5,2-9.9,6-13.3c4-3.4,9.5-5.1,16.6-5.1c5.5,0,10.1,1.1,13.8,3.3c3.7,2.2,6,5.3,6.9,9.4l-9.3,0.6
		c-1.7-5.4-5.5-8.1-11.3-8.1c-3.7,0-6.7,1.1-8.7,3.4c-2.1,2.2-3.1,5.5-3.1,9.8c0,4.3,1.1,7.6,3.3,9.8s5.2,3.3,8.8,3.3
		c2.9,0,5.4-0.7,7.5-2.2S470.7,709.6,471,707.6z"/>
	<path d="M508.7,720.6c-7.4,0-13.1-1.8-17.3-5.4c-4.1-3.6-6.2-8-6.2-13.2c0-5.2,2.2-9.6,6.6-13.1c4.4-3.5,10.1-5.3,17.3-5.3
		c7.2,0,12.9,1.8,17.1,5.3c4.2,3.5,6.3,7.9,6.3,13.2c0,5.5-2.2,10-6.5,13.4C521.7,718.9,515.9,720.6,508.7,720.6z M508.8,715.4
		c3.6,0,6.7-1,9.2-2.9c2.5-1.9,3.7-5.4,3.7-10.5c0-4.1-1-7.3-3.1-9.7s-5.3-3.5-9.6-3.5c-8.6,0-12.9,4.5-12.9,13.4
		c0,4.3,1.1,7.6,3.3,9.8C501.6,714.2,504.7,715.4,508.8,715.4z"/>
	<path d="M596.4,720h-10.2v-31.4L570.8,720h-5.3l-15.5-31.4V720h-8.2v-35.8h15.7l11.7,23.1l11.4-23.1h15.8V720z"/>
	<path d="M618.7,720h-10v-35.8h22.8c6.5,0,11.3,1.1,14.4,3.2c3.1,2.1,4.7,4.6,4.7,7.5c0,3.3-1.7,5.9-5.1,7.9c-3.4,2-7.7,3-12.9,3
		h-13.9V720z M618.7,700.3h11.9c3.1,0,5.5-0.5,7.1-1.5s2.4-2.3,2.4-3.9c0-1.5-0.8-2.7-2.3-3.8c-1.5-1-4.2-1.6-8.2-1.6h-11V700.3z"/>
	<path d="M698.7,720h-10.7l-4.4-8.5h-21.4l-4.4,8.5h-8.6l18.5-35.8H680L698.7,720z M680.8,706.3l-8.1-16l-8.1,16H680.8z"/>
	<path d="M747.3,720h-9.7l-21.1-22.9c-0.3-0.3-0.9-0.9-1.6-1.7c-0.3-0.3-0.8-0.9-1.5-1.7V720h-8.1v-35.8h11.1l19.5,21.1
		c0.2,0.2,1.3,1.5,3.5,3.9v-25h7.9V720z"/>
	<path d="M781.9,720h-10.6v-15.1l-18.9-20.7h12.1l13.2,14.8l12.6-14.8h9.6l-18,20.7V720z"/>
	<path d="M808.9,713.3v6l-6.6,8.3h-3.6l4.8-7.7h-4.8v-6.7H808.9z"/>
	<path d="M875.1,720h-34.2v-35.8h10.6v30h23.7V720z"/>
	<path d="M916.7,720h-34.2v-35.8H893v30h23.7V720z"/>
	<path d="M953.9,707.6l9.3,0.7c-0.6,3.6-2.8,6.5-6.5,8.9s-8.6,3.5-14.6,3.5c-5.1,0-9.2-0.8-12.4-2.5s-5.6-3.9-7.3-6.7
		c-1.7-2.8-2.6-5.9-2.6-9.3c0-5.5,2-9.9,6-13.3c4-3.4,9.5-5.1,16.6-5.1c5.5,0,10.1,1.1,13.8,3.3s6,5.3,6.9,9.4l-9.3,0.6
		c-1.7-5.4-5.5-8.1-11.3-8.1c-3.7,0-6.7,1.1-8.7,3.4s-3.1,5.5-3.1,9.8c0,4.3,1.1,7.6,3.3,9.8c2.2,2.2,5.2,3.3,8.8,3.3
		c2.9,0,5.4-0.7,7.5-2.2C952.5,711.4,953.7,709.6,953.9,707.6z"/>
</g>
</svg>
