<?xml version="1.0" encoding="utf-8"?>
<!-- Generator: Adobe Illustrator 22.1.0, SVG Export Plug-In . SVG Version: 6.00 Build 0)  -->
<svg version="1.1" id="Layer_1" xmlns="http://www.w3.org/2000/svg" xmlns:xlink="http://www.w3.org/1999/xlink" x="0px" y="0px"
	 viewBox="0 0 598.3 601" style="enable-background:new 0 0 598.3 601;" xml:space="preserve">
<style type="text/css">
	.st0{fill:#818080;}
	.st1{fill:#FFFFFF;}
	.st2{fill:#EC2226;}
</style>
<g>
	<rect x="2" y="2" class="st0" width="275.8" height="597"/>
	<path d="M275.8,4v593H4V4H275.8 M279.8,0H0v601h279.8V0L279.8,0z"/>
</g>
<g>
	<rect x="287.1" y="2" class="st1" width="309.2" height="198.1"/>
	<path d="M594.3,4v194.1H289.1V4H594.3 M598.3,0H285.1v202.1h313.2V0L598.3,0z"/>
</g>
<g>
	<rect x="287.1" y="400.9" class="st1" width="309.2" height="198.1"/>
	<path d="M594.3,402.9V597H289.1V402.9H594.3 M598.3,398.9H285.1V601h313.2V398.9L598.3,398.9z"/>
</g>
<g>
	<polygon class="st2" points="313.9,205.6 475.3,299.2 313.9,395.4 	"/>
	<path d="M315.9,209.1l155.4,90.2l-155.4,92.6V209.1 M311.9,202.1v196.8l167.3-99.7L311.9,202.1L311.9,202.1z"/>
</g>
</svg>
