<?xml version="1.0" encoding="UTF-8"?>
<svg enable-background="new 0 0 362 102.4" version="1.1" viewBox="0 0 362 102.4" xml:space="preserve" xmlns="http://www.w3.org/2000/svg">
	<path d="m358.4 63.8c4.9-2.4 4.9-10.4 0-12.9-37.9-20.8-76.5-39.8-118.1-50.8-6.1-1.2-12.2 5.5-8.6 11 8.6 12.2 19 22.6 31.2 31.8-85.7-2.4-174.4-14-258.9 6.2-6.1 1.2-4.9 11.6 1.2 11 87.5-11 174.4-2.4 261.9-1.2-9.2 10.4-18.4 20.8-27.5 30.6-4.3 4.3-1.8 13.5 5.5 12.9 40.4-4.9 78.4-18.4 113.3-38.6zm-72.9-6.7c5.5-3.7 4.3-14.1-4.3-14.1h-1.2c-7.3-7.3-14.7-14.1-22-22 28.2 9.8 54.5 22 80.8 36.1-23.9 12.2-48.3 21.4-74.7 26.3 6.1-6.7 12.2-14.1 19-20.8 2.4-1.3 3.1-3.7 2.4-5.5z"/>
</svg>
