<?xml version="1.0" encoding="utf-8"?>
<!-- Generator: Adobe Illustrator 22.1.0, SVG Export Plug-In . SVG Version: 6.00 Build 0)  -->
<svg version="1.1" id="Layer_1" xmlns="http://www.w3.org/2000/svg" xmlns:xlink="http://www.w3.org/1999/xlink" x="0px" y="0px"
	 viewBox="0 0 741 525.9" style="enable-background:new 0 0 741 525.9;" xml:space="preserve">
<path d="M327.9,188.8c-1.8,22.6-0.2,45.1-5.4,67.4c-17.8,76.6-86.2,130.1-164.6,127.8c-75.5-2.2-142.2-60.2-155-135.2
	C1.2,239,0.3,229,0.3,219.1C0.1,149.9,0.3,80.7,0,11.6C0,3.1,1.5-0.3,10.9,0c21,0.8,42.2,0.7,63.2,0c9.1-0.3,11.3,2.5,11.3,11.3
	c-0.4,68,0.6,136-0.5,204c-0.7,43.2,28.3,74.1,62.3,81.7c44.6,10,92.3-23.5,93.7-69.2c1.8-58.4,0.7-116.9,0.9-175.3
	c0-14.7,0.2-29.4-0.1-44.1c-0.1-6.2,2-8.3,8.2-8.2c23.1,0.3,46.1,0.5,69.2-0.1c7.9-0.2,8.6,4.5,10.3,9.9
	c15.2,48.4,34.5,95.1,59.7,139.2c6.1,10.6,12.6,20.9,19.9,33c8.8-25.5,18.5-48.6,34.1-68.6C485.3,59,541.2,37.3,608,51.8
	c69,14.9,113.8,58.9,128.8,128.1c20.5,94.1-37,180.8-131.2,200.7c-48.3,10.2-93.7-1-136.1-25.1c-7.3-4.1-10.2-6.1-12.4,4.9
	c-10.3,51.6-21.8,102.9-32.5,154.4c-1.6,7.7-4,11.3-13,11c-21.8-0.8-43.7-0.6-65.6-0.1c-8.9,0.2-10.1-1.8-8.2-10.8
	c16.4-74.6,32-149.3,47.9-224c1-4.8,1.1-9.2-2.3-13.4C361.7,250.2,344.8,219.8,327.9,188.8z M571.1,298.7
	c54.4,0.4,95.8-48.7,84-99.5c-8.7-37.4-35.6-61.8-73.1-66.2c-35.6-4.2-64.2,12.9-81.9,48.4c-11.7,23.4-14.6,49.1-20.5,74
	c-1.1,4.5,0.7,7.4,4.3,10.1C509.9,284.6,538,298.3,571.1,298.7z"/>
</svg>
